<svg xmlns="http://www.w3.org/2000/svg" xmlns:xlink="http://www.w3.org/1999/xlink" xmlns:lucid="lucid" width="1570.28" height="922.92"><g transform="translate(-102.85998093259641 -125.08978276193085)" lucid:page-tab-id="7sb6GY7~_y5_"><path d="M0 0h2000v1500H0z" fill="#fff"/><path d="M397.74 220.9a5 5 0 0 1 5-5h150a5 5 0 0 1 5 5v110a5 5 0 0 1-5 5h-150a5 5 0 0 1-5-5z" stroke="#1071e5" stroke-width="2" fill="#fff"/><use xlink:href="#a" transform="matrix(1,0,0,1,409.7395884317822,227.88655463102492) translate(9.549999999999997 50.4)"/><use xlink:href="#b" transform="matrix(1,0,0,1,409.7395884317822,227.88655463102492) translate(57.5 50.4)"/><use xlink:href="#c" transform="matrix(1,0,0,1,409.7395884317822,227.88655463102492) translate(114.45 50.4)"/><path d="M297.38 419.95l-92.45 42-.83-1.8 93.28-42.4zm179.86-81.74l-94 42.74v-2.2l93.18-42.35z" stroke="#000" stroke-width=".05"/><path d="M477.22 338.22l-.6-1.33h3.54z"/><path d="M477.2 338.25l-.63-1.4h3.7zm-.55-1.34l.58 1.3 2.8-1.3zM216.93 445.18l-10.5 15 18.2 1.97-.2 2-21.57-2.34 12.43-17.77z" stroke="#000" stroke-width=".05"/><use xlink:href="#d" transform="matrix(1,0,0,1,297.3747846821893,377.7467426783212) translate(0.005000000000002558 14.4)"/><use xlink:href="#e" transform="matrix(1,0,0,1,297.3747846821893,377.7467426783212) translate(25.930000000000007 36)"/><path d="M397.74 714.73a5 5 0 0 1 5-5h150a5 5 0 0 1 5 5v110a5 5 0 0 1-5 5h-150a5 5 0 0 1-5-5z" stroke="#000" stroke-width="2" fill="#ced4db"/><use xlink:href="#f" transform="matrix(1,0,0,1,409.7395884317822,721.7273068202103) translate(34.525 50.4)"/><path d="M1122.28 220.9a5 5 0 0 1 5-5h150a5 5 0 0 1 5 5v110a5 5 0 0 1-5 5h-150a5 5 0 0 1-5-5z" stroke="#1071e5" stroke-width="2" fill="#fff"/><use xlink:href="#a" transform="matrix(1,0,0,1,1134.2786845801909,227.88655463102492) translate(9.549999999999997 50.4)"/><use xlink:href="#b" transform="matrix(1,0,0,1,1134.2786845801909,227.88655463102492) translate(57.5 50.4)"/><use xlink:href="#g" transform="matrix(1,0,0,1,1134.2786845801909,227.88655463102492) translate(114.45 50.4)"/><path d="M122.86 467.8a5 5 0 0 1 5-5h150a5 5 0 0 1 5 5v110a5 5 0 0 1-5 5h-150a5 5 0 0 1-5-5z" stroke="#1071e5" stroke-width="2" fill="#fff"/><use xlink:href="#h" transform="matrix(1,0,0,1,134.85998093259641,474.8069307256176) translate(44.025 50.4)"/><path d="M202.86 584.8v9.25m0 9.24v18.48m0 9.24v9.25l.07.94.22.92.36.87.5.8.62.7.7.62.82.5.87.35.92.22.94.07h9.74m9.73 0h19.47m9.74 0H277m9.75 0h19.47m9.74 0h19.47m9.74 0h19.47m9.74 0h19.47m9.74 0h19.46m9.73 0h19.47m9.73 0h9.74l.94.07.9.22.88.36.8.5.72.6.6.72.5.8.37.87.22.93.07.94v9.1m0 9.1v18.23m0 9.1v9.1" stroke="#1071e5" stroke-width="2" fill="none"/><path d="M203.86 584.83h-2v-1.02h2z" stroke="#1071e5" stroke-width=".05" fill="#1071e5"/><path d="M467.56 689.55l10.18 17.2 10.18-17.2" stroke="#1071e5" stroke-width="2" fill="none"/><path d="M392.6 460.9l-1.64-1.16 34.54-49.6h2.44zM478 338.27l-35.02 50.27h-2.44l35.8-51.4z" stroke="#000" stroke-width=".05"/><path d="M477.97 338.3l-1.64-1.14.2-.27h2.43z"/><path d="M477.98 338.33l-1.68-1.17.2-.3h2.5zm-1.45-1.42l-.16.25 1.6 1.12.94-1.36zM394.35 440.32L393 458.58l16.64-7.6.83 1.82-19.73 9 1.6-21.62z" stroke="#000" stroke-width=".05"/><use xlink:href="#i" transform="matrix(1,0,0,1,409.2666550469487,388.5467426783212) translate(0.004999999999999005 14.4)"/><path d="M310.74 467.8a5 5 0 0 1 5-5h150a5 5 0 0 1 5 5v110a5 5 0 0 1-5 5h-150a5 5 0 0 1-5-5z" stroke="#1071e5" stroke-width="2" fill="#fff"/><use xlink:href="#j" transform="matrix(1,0,0,1,322.74372166211526,474.8069307256176) translate(46.525 50.4)"/><path d="M122.86 221.9a6 6 0 0 1 6-6h29.5a6 6 0 0 1 6 6v42.57a6 6 0 0 1-6 6h-29.5a6 6 0 0 1-6-6z" stroke="#000" stroke-opacity="0" fill="#fff" fill-opacity="0"/><use xlink:href="#k" transform="matrix(1,0,0,1,127.85998093259641,220.88655463102492) translate(4.333333333333334 26.21527777777778)"/><path d="M934.4 221.9a6 6 0 0 1 6-6h29.5a6 6 0 0 1 6 6v42.57a6 6 0 0 1-6 6h-29.5a6 6 0 0 1-6-6z" stroke="#000" stroke-opacity="0" fill="#fff" fill-opacity="0"/><use xlink:href="#l" transform="matrix(1,0,0,1,939.394943850672,220.88655463102492) translate(4.333333333333334 26.21527777777778)"/><path d="M498.63 467.8a5 5 0 0 1 5-5h150a5 5 0 0 1 5 5v110a5 5 0 0 1-5 5h-150a5 5 0 0 1-5-5z" stroke="#1071e5" stroke-width="2" fill="#fff"/><use xlink:href="#m" transform="matrix(1,0,0,1,510.62746239163414,474.8069307256176) translate(46 50.4)"/><path d="M578.26 459.76l-1.55 1.26-41.08-50.87h2.57zm-57.5-71.2h-2.58l-40.6-50.27 1.57-1.26z" stroke="#000" stroke-width=".05"/><path d="M479.16 337.06l-1.55 1.25-1.15-1.4h2.57z"/><path d="M479.2 337.06l-1.6 1.3-1.2-1.5h2.64zm-2.7-.15l1.1 1.38 1.53-1.23-.12-.14zM578.63 461.8l-20.32-7.58.7-1.87 17.16 6.4-2.65-18.12 2-.28z" stroke="#000" stroke-width=".05"/><use xlink:href="#i" transform="matrix(1,0,0,1,503.20852541170814,388.5467426783212) translate(0.004999999999999005 14.4)"/><path d="M686.5 467.8a5 5 0 0 1 5-5h150a5 5 0 0 1 5 5v110a5 5 0 0 1-5 5h-150a5 5 0 0 1-5-5z" stroke="#1071e5" stroke-width="2" fill="#fff"/><use xlink:href="#n" transform="matrix(1,0,0,1,698.511203121153,474.8069307256176) translate(40.025 50.4)"/><path d="M765.24 460.17l-.8 1.83-119.87-51.85h2.53v-1.1zm-165.56-71.62h-2.53v1.08l-118.9-51.43.8-1.83z" stroke="#000" stroke-width=".05"/><path d="M478.28 338.2l-3.06-1.3h3.64z"/><path d="M478.3 338.24l-3.2-1.38h3.8zm-2.96-1.33l2.93 1.28.55-1.27zM766.5 461.8l-21.5 2.73-.26-2 18.16-2.28-10.76-14.8 1.62-1.2z" stroke="#000" stroke-width=".05"/><use xlink:href="#i" transform="matrix(1,0,0,1,597.1503957764676,388.5467426783212) translate(0.004999999999999005 14.4)"/><path d="M390.74 584.8v9.25m0 9.24v18.48m0 9.24v9.25l.08.94.22.92.36.87.5.8.6.7.72.62.8.5.87.35.9.22.94.07h12.5m12.5 0h25m12.5 0h12.5l.94.07.9.22.88.36.8.5.72.6.6.72.5.8.37.87.22.93.07.94v9.1m0 9.1v18.23m0 9.1v9.1" stroke="#1071e5" stroke-width="2" fill="none"/><path d="M391.74 584.83h-2v-1.02h2z" stroke="#1071e5" stroke-width=".05" fill="#1071e5"/><path d="M467.56 689.55l10.18 17.2 10.18-17.2M578.63 584.8v9.25m0 9.24v18.48m0 9.24v9.25l-.08.94-.22.92-.36.87-.5.8-.6.7-.72.62-.8.5-.87.35-.9.22-.95.07h-9.88m-9.88 0h-19.75m-9.88 0H503.5m-9.88 0h-9.88l-.94.07-.92.22-.86.36-.8.5-.72.6-.62.72-.5.8-.35.87-.22.93-.06.94v9.1m0 9.1v18.23m0 9.1v9.1" stroke="#1071e5" stroke-width="2" fill="none"/><path d="M579.63 584.83h-2v-1.02h2z" stroke="#1071e5" stroke-width=".05" fill="#1071e5"/><path d="M467.56 689.55l10.18 17.2 10.18-17.2M766.5 584.8v9.25m0 9.24v18.48m0 9.24v9.25l-.06.94-.22.92-.36.87-.5.8-.6.7-.72.62-.8.5-.88.35-.9.22-.95.07h-10.24m-10.25 0h-20.5m-10.24 0h-20.5m-10.25 0H658m-10.25 0h-20.5m-10.25 0h-20.5m-10.25 0h-20.5m-10.25 0H535m-10.26 0h-20.5m-10.25 0h-10.26l-.94.07-.92.22-.86.36-.8.5-.72.6-.62.72-.5.8-.35.87-.22.93-.06.94v9.1m0 9.1v18.23m0 9.1v9.1" stroke="#1071e5" stroke-width="2" fill="none"/><path d="M767.5 584.83h-2v-1.02h2z" stroke="#1071e5" stroke-width=".05" fill="#1071e5"/><path d="M467.56 689.55l10.18 17.2 10.18-17.2" stroke="#1071e5" stroke-width="2" fill="none"/><path d="M1075.86 400.35h-56.43l-.66.05-.6.15-.6.24-.52.3-.48.42-.4.48-.34.53-.24.58-.15.62-.06.67V460h-2v-55.7l.07-.9.22-.9.35-.88.5-.8.6-.72.72-.6.8-.5.87-.36.92-.22.9-.07h56.5zm127.42-5.96l-.07.9-.2.9-.37.87-.5.8-.6.72-.72.6-.8.5-.87.36-.9.22-.9.07h-56.52v-2h56.44l.66-.06.6-.15.6-.24.53-.32.47-.4.4-.48.34-.54.24-.58.15-.6.05-.67v-56.4h2z" stroke="#000" stroke-width=".05"/><path d="M1203.28 337.9h-2v-1h2z"/><path d="M1203.3 337.94h-2.05v-1.08h2.05zm-2-1.03v1h1.95v-1zM1025.44 443.14l-11.05 18.67-11.05-18.66 1.73-1.02 9.3 15.76 9.34-15.76z" stroke="#000" stroke-width=".05"/><use xlink:href="#o" transform="matrix(1,0,0,1,1075.8618142154314,388.5467426783212) translate(0.005000000000002558 14.4)"/><use xlink:href="#p" transform="matrix(1,0,0,1,1075.8618142154314,388.5467426783212) translate(34.005 14.4)"/><path d="M934.4 467.8a5 5 0 0 1 5-5h150a5 5 0 0 1 5 5v110a5 5 0 0 1-5 5h-150a5 5 0 0 1-5-5z" stroke="#1071e5" stroke-width="2" fill="#fff"/><use xlink:href="#a" transform="matrix(1,0,0,1,946.394943850672,474.8069307256176) translate(9.074999999999996 50.4)"/><use xlink:href="#b" transform="matrix(1,0,0,1,946.394943850672,474.8069307256176) translate(57.025 50.4)"/><use xlink:href="#q" transform="matrix(1,0,0,1,946.394943850672,474.8069307256176) translate(113.975 50.4)"/><path d="M1122.28 467.8a5 5 0 0 1 5-5h150a5 5 0 0 1 5 5v110a5 5 0 0 1-5 5h-150a5 5 0 0 1-5-5z" stroke="#1071e5" stroke-width="2" fill="#fff"/><use xlink:href="#a" transform="matrix(1,0,0,1,1134.2786845801909,474.8069307256176) translate(13.049999999999997 50.4)"/><use xlink:href="#b" transform="matrix(1,0,0,1,1134.2786845801909,474.8069307256176) translate(61 50.4)"/><use xlink:href="#r" transform="matrix(1,0,0,1,1134.2786845801909,474.8069307256176) translate(117.95 50.4)"/><path d="M1310.16 467.8a5 5 0 0 1 5-5h150a5 5 0 0 1 5 5v110a5 5 0 0 1-5 5h-150a5 5 0 0 1-5-5z" stroke="#1071e5" stroke-width="2" fill="#fff"/><use xlink:href="#a" transform="matrix(1,0,0,1,1322.1624253097098,474.8069307256176) translate(11.049999999999997 50.4)"/><use xlink:href="#b" transform="matrix(1,0,0,1,1322.1624253097098,474.8069307256176) translate(59 50.4)"/><use xlink:href="#s" transform="matrix(1,0,0,1,1322.1624253097098,474.8069307256176) translate(115.95 50.4)"/><path d="M1202.28 337.9V460" stroke="#000" stroke-width="2" fill="none"/><path d="M1203.28 337.9h-2v-1h2z" stroke="#000" stroke-width=".05"/><path d="M1192.1 442.63l10.18 17.2 10.18-17.2M1202.28 337.9v56.45a5 5 0 0 0 5 5h177.88a5 5 0 0 1 5 5V460" stroke="#000" stroke-width="2" fill="none"/><path d="M1203.28 337.9h-2v-1h2z" stroke="#000" stroke-width=".05"/><path d="M1379.98 442.63l10.18 17.2 10.18-17.2" stroke="#000" stroke-width="2" fill="none"/><path d="M1111.96 706.9h-2v-46.68h2zm-96.5-65l.13.6.23.58.33.54.4.47.5.4.52.33.58.24.6.14.67.07H1086v2h-66.64l-.9-.07-.92-.22-.87-.36-.8-.5-.72-.6-.6-.72-.5-.8-.36-.88-.23-.9-.08-.9v-56.5h2v56.4z" stroke="#000" stroke-width=".05"/><path d="M1015.4 584.83h-2v-1.02h2z"/><path d="M1015.42 584.86h-2.05v-1.08h2.05zm-2-1.03v.98h1.95v-.97zM1122 690.06l-11.04 18.67-11.04-18.67 1.72-1.02 9.32 15.76 9.33-15.76z" stroke="#000" stroke-width=".05"/><path d="M1030.96 714.73a5 5 0 0 1 5-5h150a5 5 0 0 1 5 5v110a5 5 0 0 1-5 5h-150a5 5 0 0 1-5-5z" stroke="#1071e5" stroke-width="2" fill="#fff"/><use xlink:href="#n" transform="matrix(1,0,0,1,1042.9647277919373,721.7273068202103) translate(40.025 50.4)"/><path d="M1111.96 706.9h-2v-46.68h2zm91.32-65.6l-.07.9-.2.92-.37.87-.5.8-.6.7-.72.62-.8.5-.87.36-.9.22-.9.07h-61.4v-2h61.3l.67-.05.6-.15.6-.24.53-.33.47-.4.4-.48.34-.54.24-.58.15-.6.05-.67V584.8h2z" stroke="#000" stroke-width=".05"/><path d="M1203.28 584.83h-2v-1.02h2z"/><path d="M1203.3 584.86h-2.05v-1.08h2.05zm-2-1.03v.98h1.95v-.97zM1122 690.06l-11.04 18.67-11.04-18.67 1.72-1.02 9.32 15.76 9.33-15.76z" stroke="#000" stroke-width=".05"/><use xlink:href="#i" transform="matrix(1,0,0,1,1085.9897277919374,638.6242342607281) translate(0.004999999999999005 14.4)"/><path d="M1310.16 714.73a5 5 0 0 1 5-5h150a5 5 0 0 1 5 5v110a5 5 0 0 1-5 5h-150a5 5 0 0 1-5-5z" stroke="#1071e5" stroke-width="2" fill="#fff"/><use xlink:href="#t" transform="matrix(1,0,0,1,1322.1624253097098,721.7273068202103) translate(30.049999999999997 50.4)"/><path d="M1391.16 706.9h-2v-49.83h2zm0-71.43h-2V584.8h2z" stroke="#000" stroke-width=".05"/><path d="M1391.16 584.83h-2v-1.02h2z"/><path d="M1391.2 584.86h-2.06v-1.08h2.05zm-2-1.03v.98h1.94v-.97zM1401.2 690.06l-11.04 18.67-11.04-18.67 1.72-1.02 9.32 15.76 9.32-15.76z" stroke="#000" stroke-width=".05"/><use xlink:href="#i" transform="matrix(1,0,0,1,1365.1874253097099,635.467118772914) translate(0.004999999999999005 14.4)"/><path d="M1172.56 913a5 5 0 0 1 5-5h150a5 5 0 0 1 5 5v110a5 5 0 0 1-5 5h-150a5 5 0 0 1-5-5z" stroke="#000" stroke-width="2" fill="#ced4db"/><use xlink:href="#f" transform="matrix(1,0,0,1,1184.5582715301255,920.0097076716513) translate(34.525 50.4)"/><path d="M1110.96 831.73v10.38m0 10.4v10.37l.08.94.22.92.36.87.5.8.6.7.72.62.8.5.87.36.93.2.93.1h10.8m10.8 0h21.6m10.8 0h21.6m10.8 0h21.6m10.8 0h10.8l.94.06.9.22.88.36.8.5.72.6.6.72.5.8.37.87.2.93.1.94v10.1m0 10.1v10.12" stroke="#1071e5" stroke-width="2" fill="none"/><path d="M1111.96 831.75h-2v-1.02h2z" stroke="#1071e5" stroke-width=".05" fill="#1071e5"/><path d="M1242.38 887.83l10.18 17.2 10.18-17.2M1390.16 831.73v10.38m0 10.4v10.37l-.07.94-.23.92-.36.87-.48.8-.62.7-.7.62-.8.5-.88.36-.92.2-.94.1h-10.47m-10.47 0h-20.94m-10.47 0h-20.94m-10.47 0h-20.94m-10.47 0h-10.47l-.94.06-.92.22-.87.36-.8.5-.7.6-.63.72-.5.8-.35.87-.22.93-.07.94v10.1m0 10.1v10.12" stroke="#1071e5" stroke-width="2" fill="none"/><path d="M1391.16 831.75h-2v-1.02h2z" stroke="#1071e5" stroke-width=".05" fill="#1071e5"/><path d="M1242.38 887.83l10.18 17.2 10.18-17.2" stroke="#1071e5" stroke-width="2" fill="none"/><path d="M1351.48 276.9h-67.2v-2h67.2zm138.84-70.8h-97.57l-.67.04-.6.15-.6.23-.52.33-.48.4-.4.48-.33.53-.24.58-.14.62-.05.66v54.96h-2v-55.05l.08-.9.22-.9.36-.9.5-.8.6-.7.72-.62.8-.5.87-.35.92-.22.9-.07h97.65z" stroke="#e81313" stroke-width=".05" fill="#e81313"/><path d="M1284.3 276.9h-1.02v-2h1.02z" fill="#e81313"/><path d="M1284.33 276.9h-1.08v-2.04h1.08zm-1.03-2v1.96h.98v-1.95zM1492.14 205.1l-18.67 11.03-1.02-1.72 15.76-9.3-15.75-9.33 1.02-1.72z" stroke="#e81313" stroke-width=".05" fill="#e81313"/><use xlink:href="#u" transform="matrix(1,0,0,1,1351.4776223010401,265.0865546310249) translate(0.004999999999999005 14.4)"/><path d="M1493.14 150.1a5 5 0 0 1 5-5h150a5 5 0 0 1 5 5v110a5 5 0 0 1-5 5h-150a5 5 0 0 1-5-5z" stroke="#e81313" stroke-width="2" fill="#fff"/><use xlink:href="#v" transform="matrix(1,0,0,1,1505.1384399203505,157.08978276193085) translate(40.025 50.4)"/><path d="M1493.14 291.68a5 5 0 0 1 5-5h150a5 5 0 0 1 5 5v110a5 5 0 0 1-5 5h-150a5 5 0 0 1-5-5z" stroke="#e81313" stroke-width="2" fill="#fff"/><use xlink:href="#w" transform="matrix(1,0,0,1,1505.1384399203505,298.68332650011894) translate(30.049999999999997 50.4)"/><path d="M1388.7 341.64l.06.67.15.62.25.58.32.53.4.48.5.42.52.32.57.25.6.13.68.05h97.57v2h-97.65l-.9-.07-.92-.2-.87-.37-.8-.5-.72-.6-.6-.72-.5-.8-.36-.86-.22-.92-.07-.9V286.7h2zM1284.3 276.9v-2h67.2v2z" stroke="#e81313" stroke-width=".05" fill="#e81313"/><path d="M1284.3 276.9h-1.02v-2h1.02z" fill="#e81313"/><path d="M1284.33 276.9h-1.08v-2.04h1.08zm-1.03-2v1.96h.98v-1.95zM1492.14 346.68l-18.67 11.05-1.02-1.73 15.76-9.32-15.75-9.32 1.02-1.72z" stroke="#e81313" stroke-width=".05" fill="#e81313"/><path d="M1513.05 444.32a6 6 0 0 1 6-6h128.1a6 6 0 0 1 6 6v157a6 6 0 0 1-6 6h-128.1a6 6 0 0 1-6-6z" fill="#fff" fill-opacity="0"/><path d="M1528.53 438.32h9.5m4.74 0h9.5m4.73 0h9.5m4.73 0h9.5m4.73 0h9.5m4.74 0h9.48m4.75 0h9.5m4.73 0h9.5m4.73 0h4.74l.94.08.9.22.88.36.8.5.72.6.6.72.5.8.37.87.2.92.1.92v5.24m0 5.23v10.46m0 5.23v10.45m0 5.24v10.45m0 5.24v10.45m0 5.24v10.45m0 5.24v10.45m0 5.23v10.47m0 5.23v10.47m0 5.23v10.47m0 5.23v5.23l-.1.95-.2.92-.37.87-.5.8-.6.72-.72.6-.8.5-.87.36-.92.22-.94.07h-4.75m-4.75 0h-9.5m-4.73 0h-9.5m-4.74 0h-9.48m-4.75 0h-9.5m-4.73 0h-9.5m-4.73 0h-9.5m-4.74 0h-9.5m-4.74 0h-9.5m-4.73 0h-4.75l-.94-.06-.9-.22-.88-.36-.8-.5-.72-.6-.6-.72-.5-.8-.36-.87-.22-.92-.07-.94v-5.22m0-5.23v-10.47m0-5.23v-10.47m0-5.23v-10.47m0-5.23v-10.47m0-5.23V517.6m0-5.25V501.9m0-5.25V486.2m0-5.25V470.5m0-5.24V454.8m0-5.24v-5.24l.07-.93.22-.93.36-.87.5-.8.6-.72.72-.6.8-.5.87-.36.9-.22.95-.08h4.74" stroke="#000" fill="none"/><g><use xlink:href="#x" transform="matrix(1,0,0,1,1518.0452348259512,443.3241156447768) translate(14.97530864197531 22.74652777777778)"/><use xlink:href="#y" transform="matrix(1,0,0,1,1518.0452348259512,443.3241156447768) translate(63 22.74652777777778)"/><use xlink:href="#z" transform="matrix(1,0,0,1,1518.0452348259512,443.3241156447768) translate(22.351851851851855 49.41319444444444)"/><use xlink:href="#A" transform="matrix(1,0,0,1,1518.0452348259512,443.3241156447768) translate(92.66049382716048 49.41319444444444)"/><use xlink:href="#B" transform="matrix(1,0,0,1,1518.0452348259512,443.3241156447768) translate(3.216049382716051 76.07986111111111)"/><use xlink:href="#C" transform="matrix(1,0,0,1,1518.0452348259512,443.3241156447768) translate(109.26543209876543 76.07986111111111)"/><use xlink:href="#D" transform="matrix(1,0,0,1,1518.0452348259512,443.3241156447768) translate(28.462962962962962 102.74652777777777)"/><use xlink:href="#E" transform="matrix(1,0,0,1,1518.0452348259512,443.3241156447768) translate(59.32716049382716 102.74652777777777)"/><use xlink:href="#F" transform="matrix(1,0,0,1,1518.0452348259512,443.3241156447768) translate(9.358024691358025 129.41319444444446)"/><use xlink:href="#G" transform="matrix(1,0,0,1,1518.0452348259512,443.3241156447768) translate(84.60493827160494 129.41319444444446)"/><use xlink:href="#H" transform="matrix(1,0,0,1,1518.0452348259512,443.3241156447768) translate(18.648148148148145 156.07986111111111)"/></g><path d="M1512.1 447.7l-4.48-2.3m-4.48-2.27l-8.95-4.58m-4.5-2.3l-8.95-4.56m-4.47-2.3l-8.96-4.57m-4.48-2.3l-8.95-4.56m-4.5-2.3l-8.95-4.56m-4.48-2.28l-8.95-4.57m-4.48-2.3l-8.95-4.56m-4.5-2.3l-8.95-4.57m-4.48-2.3l-8.95-4.56m-4.48-2.3l-8.96-4.57m-4.47-2.28l-8.95-4.58m-4.48-2.28l-8.95-4.58m-4.48-2.28l-8.96-4.58m-4.48-2.3l-8.95-4.56m-4.48-2.3l-8.96-4.56m-4.46-2.3l-8.96-4.56m-4.48-2.3l-4.48-2.27" stroke="#3a414a" fill="none"/><path d="M1512.55 447.36v1.13l-.7-.36.47-.9zM1283.96 330.63l-.45.9-.26-.15.04-.45v-.65z" stroke="#3a414a" stroke-width=".05" fill="#3a414a"/><path d="M620.64 221.9a6 6 0 0 1 6-6H840.5a6 6 0 0 1 6 6v124.18a6 6 0 0 1-6 6H626.65a6 6 0 0 1-6-6z" fill="#fff" fill-opacity="0"/><path d="M636.83 215.9H647m5.1 0h10.2m5.08 0h10.2m5.08 0h10.18m5.1 0h10.18m5.1 0h10.17m5.1 0h10.17m5.1 0h10.18m5.1 0h10.17m5.1 0h10.18m5.1 0h10.17m5.1 0h10.18m5.1 0h10.18m5.1 0h5.08l.95.06.9.22.88.36.8.5.72.6.62.72.5.8.35.87.22.92.07.94v5.16m0 5.18v10.35m0 5.16v10.35m0 5.2v10.34m0 5.17v10.36m0 5.18v10.35m0 5.16v10.35m0 5.2v10.34m0 5.17v5.2l-.06.92-.22.92-.36.87-.5.8-.6.73-.72.6-.8.5-.88.36-.9.2-.95.08h-5.08m-5.1 0h-10.18m-5.1 0h-10.17m-5.1 0H789.6m-5.1 0h-10.18m-5.1 0h-10.18m-5.1 0h-10.18m-5.1 0H728.5m-5.1 0h-10.2m-5.08 0h-10.2m-5.08 0h-10.18m-5.1 0H667.4m-5.1 0h-10.17m-5.1 0h-10.17m-5.1 0h-5.1l-.92-.07-.9-.2-.88-.37-.8-.5-.72-.6-.6-.72-.5-.8-.36-.86-.22-.92-.08-.94v-5.17m0-5.16V325.4m0-5.2v-10.34m0-5.17v-10.36m0-5.18V278.8m0-5.16V263.3m0-5.2v-10.34m0-5.17v-10.36m0-5.18v-5.17l.08-.95.22-.92.36-.87.5-.8.6-.72.72-.6.8-.5.87-.36.9-.22.94-.07h5.1" stroke="#000" fill="none"/><g><use xlink:href="#x" transform="matrix(1,0,0,1,625.644985954582,220.88655463102492) translate(1.3333333333333428 17.77777777777778)"/><use xlink:href="#I" transform="matrix(1,0,0,1,625.644985954582,220.88655463102492) translate(49.35802469135803 17.77777777777778)"/><use xlink:href="#z" transform="matrix(1,0,0,1,625.644985954582,220.88655463102492) translate(108.55555555555557 17.77777777777778)"/><use xlink:href="#J" transform="matrix(1,0,0,1,625.644985954582,220.88655463102492) translate(178.8641975308642 17.77777777777778)"/><use xlink:href="#K" transform="matrix(1,0,0,1,625.644985954582,220.88655463102492) translate(21.055555555555543 44.44444444444444)"/><use xlink:href="#L" transform="matrix(1,0,0,1,625.644985954582,220.88655463102492) translate(51.91975308641974 44.44444444444444)"/><use xlink:href="#M" transform="matrix(1,0,0,1,625.644985954582,220.88655463102492) translate(152.96913580246914 44.44444444444444)"/><use xlink:href="#N" transform="matrix(1,0,0,1,625.644985954582,220.88655463102492) translate(8.771604938271608 71.11111111111111)"/><use xlink:href="#O" transform="matrix(1,0,0,1,625.644985954582,220.88655463102492) translate(51.98148148148149 71.11111111111111)"/><use xlink:href="#P" transform="matrix(1,0,0,1,625.644985954582,220.88655463102492) translate(134.45061728395063 71.11111111111111)"/><use xlink:href="#Q" transform="matrix(1,0,0,1,625.644985954582,220.88655463102492) translate(32.25925925925925 97.77777777777777)"/><use xlink:href="#R" transform="matrix(1,0,0,1,625.644985954582,220.88655463102492) translate(63.61728395061728 124.44444444444446)"/></g><path d="M619.65 283.92l-5.03-.66m-5.04-.67l-10.07-1.34m-5.02-.66l-10.07-1.33m-5.03-.66l-10.07-1.32m-5.03-.66l-5.03-.67" stroke="#3a414a" fill="none"/><path d="M620.14 283.48v1l-.57-.06.13-1zM559.3 275.46l-.12 1-.44-.07v-1.02z" stroke="#3a414a" stroke-width=".05" fill="#3a414a"/><defs><path fill="#1071e5" d="M233-177c-1 41-23 64-60 70L243 0h-38l-65-103H63V0H30v-248c88 3 205-21 203 71zM63-129c60-2 137 13 137-47 0-61-80-42-137-45v92" id="S"/><path fill="#1071e5" d="M100-194c62-1 85 37 85 99 1 63-27 99-86 99S16-35 15-95c0-66 28-99 85-99zM99-20c44 1 53-31 53-75 0-43-8-75-51-75s-53 32-53 75 10 74 51 75" id="T"/><path fill="#1071e5" d="M141-36C126-15 110 5 73 4 37 3 15-17 15-53c-1-64 63-63 125-63 3-35-9-54-41-54-24 1-41 7-42 31l-33-3c5-37 33-52 76-52 45 0 72 20 72 64v82c-1 20 7 32 28 27v20c-31 9-61-2-59-35zM48-53c0 20 12 33 32 33 41-3 63-29 60-74-43 2-92-5-92 41" id="U"/><path fill="#1071e5" d="M85-194c31 0 48 13 60 33l-1-100h32l1 261h-30c-2-10 0-23-3-31C134-8 116 4 85 4 32 4 16-35 15-94c0-66 23-100 70-100zm9 24c-40 0-46 34-46 75 0 40 6 74 45 74 42 0 51-32 51-76 0-42-9-74-50-73" id="V"/><g id="a"><use transform="matrix(0.05,0,0,0.05,0,0)" xlink:href="#S"/><use transform="matrix(0.05,0,0,0.05,12.950000000000001,0)" xlink:href="#T"/><use transform="matrix(0.05,0,0,0.05,22.950000000000003,0)" xlink:href="#U"/><use transform="matrix(0.05,0,0,0.05,32.95,0)" xlink:href="#V"/></g><path fill="#1071e5" d="M140-251c81 0 123 46 123 126C263-46 219 4 140 4 59 4 17-45 17-125s42-126 123-126zm0 227c63 0 89-41 89-101s-29-99-89-99c-61 0-89 39-89 99S79-25 140-24" id="W"/><path fill="#1071e5" d="M115-194c53 0 69 39 70 98 0 66-23 100-70 100C84 3 66-7 56-30L54 0H23l1-261h32v101c10-23 28-34 59-34zm-8 174c40 0 45-34 45-75 0-40-5-75-45-74-42 0-51 32-51 76 0 43 10 73 51 73" id="X"/><path fill="#1071e5" d="M24-231v-30h32v30H24zM-9 49c24 4 33-6 33-30v-209h32V24c2 40-23 58-65 49V49" id="Y"/><path fill="#1071e5" d="M100-194c63 0 86 42 84 106H49c0 40 14 67 53 68 26 1 43-12 49-29l28 8c-11 28-37 45-77 45C44 4 14-33 15-96c1-61 26-98 85-98zm52 81c6-60-76-77-97-28-3 7-6 17-6 28h103" id="Z"/><path fill="#1071e5" d="M96-169c-40 0-48 33-48 73s9 75 48 75c24 0 41-14 43-38l32 2c-6 37-31 61-74 61-59 0-76-41-82-99-10-93 101-131 147-64 4 7 5 14 7 22l-32 3c-4-21-16-35-41-35" id="aa"/><path fill="#1071e5" d="M59-47c-2 24 18 29 38 22v24C64 9 27 4 27-40v-127H5v-23h24l9-43h21v43h35v23H59v120" id="ab"/><g id="b"><use transform="matrix(0.05,0,0,0.05,0,0)" xlink:href="#W"/><use transform="matrix(0.05,0,0,0.05,14,0)" xlink:href="#X"/><use transform="matrix(0.05,0,0,0.05,24,0)" xlink:href="#Y"/><use transform="matrix(0.05,0,0,0.05,27.950000000000003,0)" xlink:href="#Z"/><use transform="matrix(0.05,0,0,0.05,37.95,0)" xlink:href="#aa"/><use transform="matrix(0.05,0,0,0.05,46.95,0)" xlink:href="#ab"/></g><path fill="#1071e5" d="M195 0l-74-108L45 0H8l94-129-87-119h37l69 98 67-98h37l-84 118L233 0h-38" id="ac"/><use transform="matrix(0.05,0,0,0.05,0,0)" xlink:href="#ac" id="c"/><path d="M141-36C126-15 110 5 73 4 37 3 15-17 15-53c-1-64 63-63 125-63 3-35-9-54-41-54-24 1-41 7-42 31l-33-3c5-37 33-52 76-52 45 0 72 20 72 64v82c-1 20 7 32 28 27v20c-31 9-61-2-59-35zM48-53c0 20 12 33 32 33 41-3 63-29 60-74-43 2-92-5-92 41" id="ad"/><path d="M85-194c31 0 48 13 60 33l-1-100h32l1 261h-30c-2-10 0-23-3-31C134-8 116 4 85 4 32 4 16-35 15-94c0-66 23-100 70-100zm9 24c-40 0-46 34-46 75 0 40 6 74 45 74 42 0 51-32 51-76 0-42-9-74-50-73" id="ae"/><path d="M24-231v-30h32v30H24zM24 0v-190h32V0H24" id="af"/><path d="M59-47c-2 24 18 29 38 22v24C64 9 27 4 27-40v-127H5v-23h24l9-43h21v43h35v23H59v120" id="ag"/><path d="M100-194c62-1 85 37 85 99 1 63-27 99-86 99S16-35 15-95c0-66 28-99 85-99zM99-20c44 1 53-31 53-75 0-43-8-75-51-75s-53 32-53 75 10 74 51 75" id="ah"/><path d="M117-194c89-4 53 116 60 194h-32v-121c0-31-8-49-39-48C34-167 62-67 57 0H25l-1-190h30c1 10-1 24 2 32 11-22 29-35 61-36" id="ai"/><path d="M24 0v-261h32V0H24" id="aj"/><path d="M179-190L93 31C79 59 56 82 12 73V49c39 6 53-20 64-50L1-190h34L92-34l54-156h33" id="ak"/><g id="d"><use transform="matrix(0.05,0,0,0.05,0,0)" xlink:href="#ad"/><use transform="matrix(0.05,0,0,0.05,10,0)" xlink:href="#ae"/><use transform="matrix(0.05,0,0,0.05,20,0)" xlink:href="#ae"/><use transform="matrix(0.05,0,0,0.05,30,0)" xlink:href="#af"/><use transform="matrix(0.05,0,0,0.05,33.95,0)" xlink:href="#ag"/><use transform="matrix(0.05,0,0,0.05,38.95,0)" xlink:href="#af"/><use transform="matrix(0.05,0,0,0.05,42.900000000000006,0)" xlink:href="#ah"/><use transform="matrix(0.05,0,0,0.05,52.900000000000006,0)" xlink:href="#ai"/><use transform="matrix(0.05,0,0,0.05,62.900000000000006,0)" xlink:href="#ad"/><use transform="matrix(0.05,0,0,0.05,72.9,0)" xlink:href="#aj"/><use transform="matrix(0.05,0,0,0.05,76.85000000000001,0)" xlink:href="#ak"/></g><path d="M115-194c55 1 70 41 70 98S169 2 115 4C84 4 66-9 55-30l1 105H24l-1-265h31l2 30c10-21 28-34 59-34zm-8 174c40 0 45-34 45-75s-6-73-45-74c-42 0-51 32-51 76 0 43 10 73 51 73" id="al"/><path d="M100-194c63 0 86 42 84 106H49c0 40 14 67 53 68 26 1 43-12 49-29l28 8c-11 28-37 45-77 45C44 4 14-33 15-96c1-61 26-98 85-98zm52 81c6-60-76-77-97-28-3 7-6 17-6 28h103" id="am"/><g id="e"><use transform="matrix(0.05,0,0,0.05,0,0)" xlink:href="#ag"/><use transform="matrix(0.05,0,0,0.05,5,0)" xlink:href="#ak"/><use transform="matrix(0.05,0,0,0.05,14,0)" xlink:href="#al"/><use transform="matrix(0.05,0,0,0.05,24,0)" xlink:href="#am"/></g><path d="M212-179c-10-28-35-45-73-45-59 0-87 40-87 99 0 60 29 101 89 101 43 0 62-24 78-52l27 14C228-24 195 4 139 4 59 4 22-46 18-125c-6-104 99-153 187-111 19 9 31 26 39 46" id="an"/><path d="M96-169c-40 0-48 33-48 73s9 75 48 75c24 0 41-14 43-38l32 2c-6 37-31 61-74 61-59 0-76-41-82-99-10-93 101-131 147-64 4 7 5 14 7 22l-32 3c-4-21-16-35-41-35" id="ao"/><g id="f"><use transform="matrix(0.05,0,0,0.05,0,0)" xlink:href="#an"/><use transform="matrix(0.05,0,0,0.05,12.950000000000001,0)" xlink:href="#ah"/><use transform="matrix(0.05,0,0,0.05,22.950000000000003,0)" xlink:href="#ai"/><use transform="matrix(0.05,0,0,0.05,32.95,0)" xlink:href="#ao"/><use transform="matrix(0.05,0,0,0.05,41.95,0)" xlink:href="#am"/><use transform="matrix(0.05,0,0,0.05,51.95,0)" xlink:href="#al"/><use transform="matrix(0.05,0,0,0.05,61.95,0)" xlink:href="#ag"/></g><path fill="#1071e5" d="M137-103V0h-34v-103L8-248h37l75 118 75-118h37" id="ap"/><use transform="matrix(0.05,0,0,0.05,0,0)" xlink:href="#ap" id="g"/><path fill="#1071e5" d="M185-189c-5-48-123-54-124 2 14 75 158 14 163 119 3 78-121 87-175 55-17-10-28-26-33-46l33-7c5 56 141 63 141-1 0-78-155-14-162-118-5-82 145-84 179-34 5 7 8 16 11 25" id="aq"/><path fill="#1071e5" d="M114-163C36-179 61-72 57 0H25l-1-190h30c1 12-1 29 2 39 6-27 23-49 58-41v29" id="ar"/><g id="h"><use transform="matrix(0.05,0,0,0.05,0,0)" xlink:href="#aq"/><use transform="matrix(0.05,0,0,0.05,12,0)" xlink:href="#ab"/><use transform="matrix(0.05,0,0,0.05,17,0)" xlink:href="#ar"/><use transform="matrix(0.05,0,0,0.05,22.95,0)" xlink:href="#Z"/><use transform="matrix(0.05,0,0,0.05,32.95,0)" xlink:href="#Z"/><use transform="matrix(0.05,0,0,0.05,42.95,0)" xlink:href="#ab"/></g><path d="M106-169C34-169 62-67 57 0H25v-261h32l-1 103c12-21 28-36 61-36 89 0 53 116 60 194h-32v-121c2-32-8-49-39-48" id="as"/><path d="M210-169c-67 3-38 105-44 169h-31v-121c0-29-5-50-35-48C34-165 62-65 56 0H25l-1-190h30c1 10-1 24 2 32 10-44 99-50 107 0 11-21 27-35 58-36 85-2 47 119 55 194h-31v-121c0-29-5-49-35-48" id="at"/><g id="i"><use transform="matrix(0.05,0,0,0.05,0,0)" xlink:href="#ag"/><use transform="matrix(0.05,0,0,0.05,5,0)" xlink:href="#as"/><use transform="matrix(0.05,0,0,0.05,15,0)" xlink:href="#am"/><use transform="matrix(0.05,0,0,0.05,25,0)" xlink:href="#at"/><use transform="matrix(0.05,0,0,0.05,39.95,0)" xlink:href="#am"/></g><path fill="#1071e5" d="M30 0v-248h33v221h125V0H30" id="au"/><path fill="#1071e5" d="M24 0v-261h32V0H24" id="av"/><g id="j"><use transform="matrix(0.05,0,0,0.05,0,0)" xlink:href="#au"/><use transform="matrix(0.05,0,0,0.05,10,0)" xlink:href="#T"/><use transform="matrix(0.05,0,0,0.05,20,0)" xlink:href="#aa"/><use transform="matrix(0.05,0,0,0.05,29,0)" xlink:href="#U"/><use transform="matrix(0.05,0,0,0.05,39,0)" xlink:href="#av"/></g><path fill="#3a414a" d="M199 0l-22-63H83L61 0H9l90-248h61L250 0h-51zm-33-102l-36-108c-10 38-24 72-36 108h72" id="aw"/><path fill="#3a414a" d="M102-93c0 74-22 123-52 168H0C30 29 54-18 53-93c0-74-22-123-53-168h50c30 45 52 94 52 168" id="ax"/><g id="k"><use transform="matrix(0.06172839506172839,0,0,0.06172839506172839,0,0)" xlink:href="#aw"/><use transform="matrix(0.06172839506172839,0,0,0.06172839506172839,15.987654320987653,0)" xlink:href="#ax"/></g><path fill="#3a414a" d="M182-130c37 4 62 22 62 59C244 23 116-4 24 0v-248c84 5 203-23 205 63 0 31-19 50-47 55zM76-148c40-3 101 13 101-30 0-44-60-28-101-31v61zm0 110c48-3 116 14 116-37 0-48-69-32-116-35v72" id="ay"/><g id="l"><use transform="matrix(0.06172839506172839,0,0,0.06172839506172839,0,0)" xlink:href="#ay"/><use transform="matrix(0.06172839506172839,0,0,0.06172839506172839,15.987654320987653,0)" xlink:href="#ax"/></g><path fill="#1071e5" d="M115-194c55 1 70 41 70 98S169 2 115 4C84 4 66-9 55-30l1 105H24l-1-265h31l2 30c10-21 28-34 59-34zm-8 174c40 0 45-34 45-75s-6-73-45-74c-42 0-51 32-51 76 0 43 10 73 51 73" id="az"/><path fill="#1071e5" d="M117-194c89-4 53 116 60 194h-32v-121c0-31-8-49-39-48C34-167 62-67 57 0H25l-1-190h30c1 10-1 24 2 32 11-22 29-35 61-36" id="aA"/><g id="m"><use transform="matrix(0.05,0,0,0.05,0,0)" xlink:href="#W"/><use transform="matrix(0.05,0,0,0.05,14,0)" xlink:href="#az"/><use transform="matrix(0.05,0,0,0.05,24,0)" xlink:href="#Z"/><use transform="matrix(0.05,0,0,0.05,34,0)" xlink:href="#aA"/></g><g id="n"><use transform="matrix(0.05,0,0,0.05,0,0)" xlink:href="#aq"/><use transform="matrix(0.05,0,0,0.05,12,0)" xlink:href="#Z"/><use transform="matrix(0.05,0,0,0.05,22,0)" xlink:href="#U"/><use transform="matrix(0.05,0,0,0.05,32,0)" xlink:href="#av"/><use transform="matrix(0.05,0,0,0.05,35.95,0)" xlink:href="#Z"/><use transform="matrix(0.05,0,0,0.05,45.95,0)" xlink:href="#V"/></g><path d="M135-143c-3-34-86-38-87 0 15 53 115 12 119 90S17 21 10-45l28-5c4 36 97 45 98 0-10-56-113-15-118-90-4-57 82-63 122-42 12 7 21 19 24 35" id="aB"/><g id="o"><use transform="matrix(0.05,0,0,0.05,0,0)" xlink:href="#as"/><use transform="matrix(0.05,0,0,0.05,10,0)" xlink:href="#ad"/><use transform="matrix(0.05,0,0,0.05,20,0)" xlink:href="#aB"/></g><path d="M114-163C36-179 61-72 57 0H25l-1-190h30c1 12-1 29 2 39 6-27 23-49 58-41v29" id="aC"/><g id="p"><use transform="matrix(0.05,0,0,0.05,0,0)" xlink:href="#al"/><use transform="matrix(0.05,0,0,0.05,10,0)" xlink:href="#ad"/><use transform="matrix(0.05,0,0,0.05,20,0)" xlink:href="#aC"/><use transform="matrix(0.05,0,0,0.05,25.950000000000003,0)" xlink:href="#ag"/></g><path fill="#1071e5" d="M197 0v-115H63V0H30v-248h33v105h134v-105h34V0h-34" id="aD"/><use transform="matrix(0.05,0,0,0.05,0,0)" xlink:href="#aD" id="q"/><path fill="#1071e5" d="M33 0v-248h34V0H33" id="aE"/><use transform="matrix(0.05,0,0,0.05,0,0)" xlink:href="#aE" id="r"/><path fill="#1071e5" d="M153-248C145-148 188 4 80 4 36 3 13-21 6-62l32-5c4 25 16 42 43 43 27 0 39-20 39-49v-147H72v-28h81" id="aF"/><use transform="matrix(0.05,0,0,0.05,0,0)" xlink:href="#aF" id="s"/><path fill="#1071e5" d="M232-93c-1 65-40 97-104 97C67 4 28-28 28-90v-158h33c8 89-33 224 67 224 102 0 64-133 71-224h33v155" id="aG"/><path fill="#1071e5" d="M135-143c-3-34-86-38-87 0 15 53 115 12 119 90S17 21 10-45l28-5c4 36 97 45 98 0-10-56-113-15-118-90-4-57 82-63 122-42 12 7 21 19 24 35" id="aH"/><g id="t"><use transform="matrix(0.05,0,0,0.05,0,0)" xlink:href="#aG"/><use transform="matrix(0.05,0,0,0.05,12.950000000000001,0)" xlink:href="#aA"/><use transform="matrix(0.05,0,0,0.05,22.950000000000003,0)" xlink:href="#aH"/><use transform="matrix(0.05,0,0,0.05,31.950000000000003,0)" xlink:href="#Z"/><use transform="matrix(0.05,0,0,0.05,41.95,0)" xlink:href="#U"/><use transform="matrix(0.05,0,0,0.05,51.95,0)" xlink:href="#av"/><use transform="matrix(0.05,0,0,0.05,55.900000000000006,0)" xlink:href="#Z"/><use transform="matrix(0.05,0,0,0.05,65.9,0)" xlink:href="#V"/></g><path fill="#e81313" d="M59-47c-2 24 18 29 38 22v24C64 9 27 4 27-40v-127H5v-23h24l9-43h21v43h35v23H59v120" id="aI"/><path fill="#e81313" d="M106-169C34-169 62-67 57 0H25v-261h32l-1 103c12-21 28-36 61-36 89 0 53 116 60 194h-32v-121c2-32-8-49-39-48" id="aJ"/><path fill="#e81313" d="M100-194c63 0 86 42 84 106H49c0 40 14 67 53 68 26 1 43-12 49-29l28 8c-11 28-37 45-77 45C44 4 14-33 15-96c1-61 26-98 85-98zm52 81c6-60-76-77-97-28-3 7-6 17-6 28h103" id="aK"/><path fill="#e81313" d="M210-169c-67 3-38 105-44 169h-31v-121c0-29-5-50-35-48C34-165 62-65 56 0H25l-1-190h30c1 10-1 24 2 32 10-44 99-50 107 0 11-21 27-35 58-36 85-2 47 119 55 194h-31v-121c0-29-5-49-35-48" id="aL"/><g id="u"><use transform="matrix(0.05,0,0,0.05,0,0)" xlink:href="#aI"/><use transform="matrix(0.05,0,0,0.05,5,0)" xlink:href="#aJ"/><use transform="matrix(0.05,0,0,0.05,15,0)" xlink:href="#aK"/><use transform="matrix(0.05,0,0,0.05,25,0)" xlink:href="#aL"/><use transform="matrix(0.05,0,0,0.05,39.95,0)" xlink:href="#aK"/></g><path fill="#e81313" d="M185-189c-5-48-123-54-124 2 14 75 158 14 163 119 3 78-121 87-175 55-17-10-28-26-33-46l33-7c5 56 141 63 141-1 0-78-155-14-162-118-5-82 145-84 179-34 5 7 8 16 11 25" id="aM"/><path fill="#e81313" d="M141-36C126-15 110 5 73 4 37 3 15-17 15-53c-1-64 63-63 125-63 3-35-9-54-41-54-24 1-41 7-42 31l-33-3c5-37 33-52 76-52 45 0 72 20 72 64v82c-1 20 7 32 28 27v20c-31 9-61-2-59-35zM48-53c0 20 12 33 32 33 41-3 63-29 60-74-43 2-92-5-92 41" id="aN"/><path fill="#e81313" d="M24 0v-261h32V0H24" id="aO"/><path fill="#e81313" d="M85-194c31 0 48 13 60 33l-1-100h32l1 261h-30c-2-10 0-23-3-31C134-8 116 4 85 4 32 4 16-35 15-94c0-66 23-100 70-100zm9 24c-40 0-46 34-46 75 0 40 6 74 45 74 42 0 51-32 51-76 0-42-9-74-50-73" id="aP"/><g id="v"><use transform="matrix(0.05,0,0,0.05,0,0)" xlink:href="#aM"/><use transform="matrix(0.05,0,0,0.05,12,0)" xlink:href="#aK"/><use transform="matrix(0.05,0,0,0.05,22,0)" xlink:href="#aN"/><use transform="matrix(0.05,0,0,0.05,32,0)" xlink:href="#aO"/><use transform="matrix(0.05,0,0,0.05,35.95,0)" xlink:href="#aK"/><use transform="matrix(0.05,0,0,0.05,45.95,0)" xlink:href="#aP"/></g><path fill="#e81313" d="M232-93c-1 65-40 97-104 97C67 4 28-28 28-90v-158h33c8 89-33 224 67 224 102 0 64-133 71-224h33v155" id="aQ"/><path fill="#e81313" d="M117-194c89-4 53 116 60 194h-32v-121c0-31-8-49-39-48C34-167 62-67 57 0H25l-1-190h30c1 10-1 24 2 32 11-22 29-35 61-36" id="aR"/><path fill="#e81313" d="M135-143c-3-34-86-38-87 0 15 53 115 12 119 90S17 21 10-45l28-5c4 36 97 45 98 0-10-56-113-15-118-90-4-57 82-63 122-42 12 7 21 19 24 35" id="aS"/><g id="w"><use transform="matrix(0.05,0,0,0.05,0,0)" xlink:href="#aQ"/><use transform="matrix(0.05,0,0,0.05,12.950000000000001,0)" xlink:href="#aR"/><use transform="matrix(0.05,0,0,0.05,22.950000000000003,0)" xlink:href="#aS"/><use transform="matrix(0.05,0,0,0.05,31.950000000000003,0)" xlink:href="#aK"/><use transform="matrix(0.05,0,0,0.05,41.95,0)" xlink:href="#aN"/><use transform="matrix(0.05,0,0,0.05,51.95,0)" xlink:href="#aO"/><use transform="matrix(0.05,0,0,0.05,55.900000000000006,0)" xlink:href="#aK"/><use transform="matrix(0.05,0,0,0.05,65.9,0)" xlink:href="#aP"/></g><path fill="#3a414a" d="M127-220V0H93v-220H8v-28h204v28h-85" id="aT"/><path fill="#3a414a" d="M106-169C34-169 62-67 57 0H25v-261h32l-1 103c12-21 28-36 61-36 89 0 53 116 60 194h-32v-121c2-32-8-49-39-48" id="aU"/><path fill="#3a414a" d="M24-231v-30h32v30H24zM24 0v-190h32V0H24" id="aV"/><path fill="#3a414a" d="M135-143c-3-34-86-38-87 0 15 53 115 12 119 90S17 21 10-45l28-5c4 36 97 45 98 0-10-56-113-15-118-90-4-57 82-63 122-42 12 7 21 19 24 35" id="aW"/><g id="x"><use transform="matrix(0.06172839506172839,0,0,0.06172839506172839,0,0)" xlink:href="#aT"/><use transform="matrix(0.06172839506172839,0,0,0.06172839506172839,13.518518518518517,0)" xlink:href="#aU"/><use transform="matrix(0.06172839506172839,0,0,0.06172839506172839,25.864197530864196,0)" xlink:href="#aV"/><use transform="matrix(0.06172839506172839,0,0,0.06172839506172839,30.74074074074074,0)" xlink:href="#aW"/></g><path fill="#3a414a" d="M233-177c-1 41-23 64-60 70L243 0h-38l-65-103H63V0H30v-248c88 3 205-21 203 71zM63-129c60-2 137 13 137-47 0-61-80-42-137-45v92" id="aX"/><path fill="#3a414a" d="M100-194c62-1 85 37 85 99 1 63-27 99-86 99S16-35 15-95c0-66 28-99 85-99zM99-20c44 1 53-31 53-75 0-43-8-75-51-75s-53 32-53 75 10 74 51 75" id="aY"/><path fill="#3a414a" d="M141-36C126-15 110 5 73 4 37 3 15-17 15-53c-1-64 63-63 125-63 3-35-9-54-41-54-24 1-41 7-42 31l-33-3c5-37 33-52 76-52 45 0 72 20 72 64v82c-1 20 7 32 28 27v20c-31 9-61-2-59-35zM48-53c0 20 12 33 32 33 41-3 63-29 60-74-43 2-92-5-92 41" id="aZ"/><path fill="#3a414a" d="M85-194c31 0 48 13 60 33l-1-100h32l1 261h-30c-2-10 0-23-3-31C134-8 116 4 85 4 32 4 16-35 15-94c0-66 23-100 70-100zm9 24c-40 0-46 34-46 75 0 40 6 74 45 74 42 0 51-32 51-76 0-42-9-74-50-73" id="ba"/><g id="y"><use transform="matrix(0.06172839506172839,0,0,0.06172839506172839,0,0)" xlink:href="#aX"/><use transform="matrix(0.06172839506172839,0,0,0.06172839506172839,15.987654320987653,0)" xlink:href="#aY"/><use transform="matrix(0.06172839506172839,0,0,0.06172839506172839,28.333333333333332,0)" xlink:href="#aZ"/><use transform="matrix(0.06172839506172839,0,0,0.06172839506172839,40.67901234567901,0)" xlink:href="#ba"/></g><path fill="#3a414a" d="M140-251c81 0 123 46 123 126C263-46 219 4 140 4 59 4 17-45 17-125s42-126 123-126zm0 227c63 0 89-41 89-101s-29-99-89-99c-61 0-89 39-89 99S79-25 140-24" id="bb"/><path fill="#3a414a" d="M115-194c53 0 69 39 70 98 0 66-23 100-70 100C84 3 66-7 56-30L54 0H23l1-261h32v101c10-23 28-34 59-34zm-8 174c40 0 45-34 45-75 0-40-5-75-45-74-42 0-51 32-51 76 0 43 10 73 51 73" id="bc"/><path fill="#3a414a" d="M24-231v-30h32v30H24zM-9 49c24 4 33-6 33-30v-209h32V24c2 40-23 58-65 49V49" id="bd"/><path fill="#3a414a" d="M100-194c63 0 86 42 84 106H49c0 40 14 67 53 68 26 1 43-12 49-29l28 8c-11 28-37 45-77 45C44 4 14-33 15-96c1-61 26-98 85-98zm52 81c6-60-76-77-97-28-3 7-6 17-6 28h103" id="be"/><path fill="#3a414a" d="M96-169c-40 0-48 33-48 73s9 75 48 75c24 0 41-14 43-38l32 2c-6 37-31 61-74 61-59 0-76-41-82-99-10-93 101-131 147-64 4 7 5 14 7 22l-32 3c-4-21-16-35-41-35" id="bf"/><path fill="#3a414a" d="M59-47c-2 24 18 29 38 22v24C64 9 27 4 27-40v-127H5v-23h24l9-43h21v43h35v23H59v120" id="bg"/><g id="z"><use transform="matrix(0.06172839506172839,0,0,0.06172839506172839,0,0)" xlink:href="#bb"/><use transform="matrix(0.06172839506172839,0,0,0.06172839506172839,17.28395061728395,0)" xlink:href="#bc"/><use transform="matrix(0.06172839506172839,0,0,0.06172839506172839,29.629629629629626,0)" xlink:href="#bd"/><use transform="matrix(0.06172839506172839,0,0,0.06172839506172839,34.50617283950617,0)" xlink:href="#be"/><use transform="matrix(0.06172839506172839,0,0,0.06172839506172839,46.85185185185185,0)" xlink:href="#bf"/><use transform="matrix(0.06172839506172839,0,0,0.06172839506172839,57.96296296296296,0)" xlink:href="#bg"/></g><g id="A"><use transform="matrix(0.06172839506172839,0,0,0.06172839506172839,0,0)" xlink:href="#aV"/><use transform="matrix(0.06172839506172839,0,0,0.06172839506172839,4.876543209876543,0)" xlink:href="#aW"/></g><path fill="#3a414a" d="M24 0v-261h32V0H24" id="bh"/><path fill="#3a414a" d="M84 4C-5 8 30-112 23-190h32v120c0 31 7 50 39 49 72-2 45-101 50-169h31l1 190h-30c-1-10 1-25-2-33-11 22-28 36-60 37" id="bi"/><g id="B"><use transform="matrix(0.06172839506172839,0,0,0.06172839506172839,0,0)" xlink:href="#bf"/><use transform="matrix(0.06172839506172839,0,0,0.06172839506172839,11.11111111111111,0)" xlink:href="#aZ"/><use transform="matrix(0.06172839506172839,0,0,0.06172839506172839,23.45679012345679,0)" xlink:href="#bh"/><use transform="matrix(0.06172839506172839,0,0,0.06172839506172839,28.333333333333336,0)" xlink:href="#bf"/><use transform="matrix(0.06172839506172839,0,0,0.06172839506172839,39.44444444444444,0)" xlink:href="#bi"/><use transform="matrix(0.06172839506172839,0,0,0.06172839506172839,51.79012345679012,0)" xlink:href="#bh"/><use transform="matrix(0.06172839506172839,0,0,0.06172839506172839,56.666666666666664,0)" xlink:href="#aZ"/><use transform="matrix(0.06172839506172839,0,0,0.06172839506172839,69.01234567901234,0)" xlink:href="#bg"/><use transform="matrix(0.06172839506172839,0,0,0.06172839506172839,75.18518518518518,0)" xlink:href="#be"/><use transform="matrix(0.06172839506172839,0,0,0.06172839506172839,87.53086419753086,0)" xlink:href="#ba"/></g><g id="C"><use transform="matrix(0.06172839506172839,0,0,0.06172839506172839,0,0)" xlink:href="#bg"/><use transform="matrix(0.06172839506172839,0,0,0.06172839506172839,6.172839506172839,0)" xlink:href="#aY"/></g><g id="D"><use transform="matrix(0.06172839506172839,0,0,0.06172839506172839,0,0)" xlink:href="#bc"/><use transform="matrix(0.06172839506172839,0,0,0.06172839506172839,12.345679012345679,0)" xlink:href="#be"/></g><g id="E"><use transform="matrix(0.06172839506172839,0,0,0.06172839506172839,0,0)" xlink:href="#bc"/><use transform="matrix(0.06172839506172839,0,0,0.06172839506172839,12.345679012345679,0)" xlink:href="#aY"/><use transform="matrix(0.06172839506172839,0,0,0.06172839506172839,24.691358024691358,0)" xlink:href="#bg"/><use transform="matrix(0.06172839506172839,0,0,0.06172839506172839,30.864197530864196,0)" xlink:href="#aU"/></g><path fill="#3a414a" d="M185-189c-5-48-123-54-124 2 14 75 158 14 163 119 3 78-121 87-175 55-17-10-28-26-33-46l33-7c5 56 141 63 141-1 0-78-155-14-162-118-5-82 145-84 179-34 5 7 8 16 11 25" id="bj"/><g id="F"><use transform="matrix(0.06172839506172839,0,0,0.06172839506172839,0,0)" xlink:href="#bj"/><use transform="matrix(0.06172839506172839,0,0,0.06172839506172839,14.814814814814813,0)" xlink:href="#be"/><use transform="matrix(0.06172839506172839,0,0,0.06172839506172839,27.160493827160494,0)" xlink:href="#aZ"/><use transform="matrix(0.06172839506172839,0,0,0.06172839506172839,39.50617283950617,0)" xlink:href="#bh"/><use transform="matrix(0.06172839506172839,0,0,0.06172839506172839,44.382716049382715,0)" xlink:href="#be"/><use transform="matrix(0.06172839506172839,0,0,0.06172839506172839,56.72839506172839,0)" xlink:href="#ba"/></g><path fill="#3a414a" d="M117-194c89-4 53 116 60 194h-32v-121c0-31-8-49-39-48C34-167 62-67 57 0H25l-1-190h30c1 10-1 24 2 32 11-22 29-35 61-36" id="bk"/><g id="G"><use transform="matrix(0.06172839506172839,0,0,0.06172839506172839,0,0)" xlink:href="#aZ"/><use transform="matrix(0.06172839506172839,0,0,0.06172839506172839,12.345679012345679,0)" xlink:href="#bk"/><use transform="matrix(0.06172839506172839,0,0,0.06172839506172839,24.691358024691358,0)" xlink:href="#ba"/></g><path fill="#3a414a" d="M232-93c-1 65-40 97-104 97C67 4 28-28 28-90v-158h33c8 89-33 224 67 224 102 0 64-133 71-224h33v155" id="bl"/><g id="H"><use transform="matrix(0.06172839506172839,0,0,0.06172839506172839,0,0)" xlink:href="#bl"/><use transform="matrix(0.06172839506172839,0,0,0.06172839506172839,15.987654320987653,0)" xlink:href="#bk"/><use transform="matrix(0.06172839506172839,0,0,0.06172839506172839,28.333333333333332,0)" xlink:href="#aW"/><use transform="matrix(0.06172839506172839,0,0,0.06172839506172839,39.44444444444444,0)" xlink:href="#be"/><use transform="matrix(0.06172839506172839,0,0,0.06172839506172839,51.79012345679012,0)" xlink:href="#aZ"/><use transform="matrix(0.06172839506172839,0,0,0.06172839506172839,64.1358024691358,0)" xlink:href="#bh"/><use transform="matrix(0.06172839506172839,0,0,0.06172839506172839,69.01234567901234,0)" xlink:href="#be"/><use transform="matrix(0.06172839506172839,0,0,0.06172839506172839,81.35802469135803,0)" xlink:href="#ba"/></g><g id="I"><use transform="matrix(0.06172839506172839,0,0,0.06172839506172839,0,0)" xlink:href="#aX"/><use transform="matrix(0.06172839506172839,0,0,0.06172839506172839,15.987654320987653,0)" xlink:href="#aY"/><use transform="matrix(0.06172839506172839,0,0,0.06172839506172839,28.333333333333332,0)" xlink:href="#aZ"/><use transform="matrix(0.06172839506172839,0,0,0.06172839506172839,40.67901234567901,0)" xlink:href="#ba"/></g><g id="J"><use transform="matrix(0.06172839506172839,0,0,0.06172839506172839,0,0)" xlink:href="#aU"/><use transform="matrix(0.06172839506172839,0,0,0.06172839506172839,12.345679012345679,0)" xlink:href="#aZ"/><use transform="matrix(0.06172839506172839,0,0,0.06172839506172839,24.691358024691358,0)" xlink:href="#aW"/></g><g id="K"><use transform="matrix(0.06172839506172839,0,0,0.06172839506172839,0,0)" xlink:href="#aZ"/><use transform="matrix(0.06172839506172839,0,0,0.06172839506172839,12.345679012345679,0)" xlink:href="#bk"/></g><g id="L"><use transform="matrix(0.06172839506172839,0,0,0.06172839506172839,0,0)" xlink:href="#aZ"/><use transform="matrix(0.06172839506172839,0,0,0.06172839506172839,12.345679012345679,0)" xlink:href="#ba"/><use transform="matrix(0.06172839506172839,0,0,0.06172839506172839,24.691358024691358,0)" xlink:href="#ba"/><use transform="matrix(0.06172839506172839,0,0,0.06172839506172839,37.03703703703704,0)" xlink:href="#aV"/><use transform="matrix(0.06172839506172839,0,0,0.06172839506172839,41.91358024691358,0)" xlink:href="#bg"/><use transform="matrix(0.06172839506172839,0,0,0.06172839506172839,48.086419753086425,0)" xlink:href="#aV"/><use transform="matrix(0.06172839506172839,0,0,0.06172839506172839,52.96296296296297,0)" xlink:href="#aY"/><use transform="matrix(0.06172839506172839,0,0,0.06172839506172839,65.30864197530865,0)" xlink:href="#bk"/><use transform="matrix(0.06172839506172839,0,0,0.06172839506172839,77.65432098765433,0)" xlink:href="#aZ"/><use transform="matrix(0.06172839506172839,0,0,0.06172839506172839,90.00000000000001,0)" xlink:href="#bh"/></g><path fill="#3a414a" d="M179-190L93 31C79 59 56 82 12 73V49c39 6 53-20 64-50L1-190h34L92-34l54-156h33" id="bm"/><path fill="#3a414a" d="M115-194c55 1 70 41 70 98S169 2 115 4C84 4 66-9 55-30l1 105H24l-1-265h31l2 30c10-21 28-34 59-34zm-8 174c40 0 45-34 45-75s-6-73-45-74c-42 0-51 32-51 76 0 43 10 73 51 73" id="bn"/><g id="M"><use transform="matrix(0.06172839506172839,0,0,0.06172839506172839,0,0)" xlink:href="#bg"/><use transform="matrix(0.06172839506172839,0,0,0.06172839506172839,6.172839506172839,0)" xlink:href="#bm"/><use transform="matrix(0.06172839506172839,0,0,0.06172839506172839,17.28395061728395,0)" xlink:href="#bn"/><use transform="matrix(0.06172839506172839,0,0,0.06172839506172839,29.629629629629626,0)" xlink:href="#be"/></g><g id="N"><use transform="matrix(0.06172839506172839,0,0,0.06172839506172839,0,0)" xlink:href="#aZ"/><use transform="matrix(0.06172839506172839,0,0,0.06172839506172839,12.345679012345679,0)" xlink:href="#bk"/><use transform="matrix(0.06172839506172839,0,0,0.06172839506172839,24.691358024691358,0)" xlink:href="#ba"/></g><path fill="#3a414a" d="M210-169c-67 3-38 105-44 169h-31v-121c0-29-5-50-35-48C34-165 62-65 56 0H25l-1-190h30c1 10-1 24 2 32 10-44 99-50 107 0 11-21 27-35 58-36 85-2 47 119 55 194h-31v-121c0-29-5-49-35-48" id="bo"/><g id="O"><use transform="matrix(0.06172839506172839,0,0,0.06172839506172839,0,0)" xlink:href="#bo"/><use transform="matrix(0.06172839506172839,0,0,0.06172839506172839,18.456790123456788,0)" xlink:href="#bi"/><use transform="matrix(0.06172839506172839,0,0,0.06172839506172839,30.80246913580247,0)" xlink:href="#bh"/><use transform="matrix(0.06172839506172839,0,0,0.06172839506172839,35.67901234567901,0)" xlink:href="#bg"/><use transform="matrix(0.06172839506172839,0,0,0.06172839506172839,41.851851851851855,0)" xlink:href="#aV"/><use transform="matrix(0.06172839506172839,0,0,0.06172839506172839,46.7283950617284,0)" xlink:href="#bn"/><use transform="matrix(0.06172839506172839,0,0,0.06172839506172839,59.074074074074076,0)" xlink:href="#bh"/><use transform="matrix(0.06172839506172839,0,0,0.06172839506172839,63.95061728395061,0)" xlink:href="#be"/></g><g id="P"><use transform="matrix(0.06172839506172839,0,0,0.06172839506172839,0,0)" xlink:href="#bg"/><use transform="matrix(0.06172839506172839,0,0,0.06172839506172839,6.172839506172839,0)" xlink:href="#aU"/><use transform="matrix(0.06172839506172839,0,0,0.06172839506172839,18.51851851851852,0)" xlink:href="#be"/><use transform="matrix(0.06172839506172839,0,0,0.06172839506172839,30.864197530864196,0)" xlink:href="#bo"/><use transform="matrix(0.06172839506172839,0,0,0.06172839506172839,49.32098765432099,0)" xlink:href="#be"/><use transform="matrix(0.06172839506172839,0,0,0.06172839506172839,61.666666666666664,0)" xlink:href="#aW"/></g><path fill="#3a414a" d="M87 75C49 33 22-17 22-94c0-76 28-126 65-167h31c-38 41-64 92-64 168S80 34 118 75H87" id="bp"/><path fill="#3a414a" d="M101-234c-31-9-42 10-38 44h38v23H63V0H32v-167H5v-23h27c-7-52 17-82 69-68v24" id="bq"/><path fill="#3a414a" d="M33-261c38 41 65 92 65 168S71 34 33 75H2C39 34 66-17 66-93S39-220 2-261h31" id="br"/><g id="Q"><use transform="matrix(0.06172839506172839,0,0,0.06172839506172839,0,0)" xlink:href="#bp"/><use transform="matrix(0.06172839506172839,0,0,0.06172839506172839,7.345679012345679,0)" xlink:href="#bf"/><use transform="matrix(0.06172839506172839,0,0,0.06172839506172839,18.45679012345679,0)" xlink:href="#bh"/><use transform="matrix(0.06172839506172839,0,0,0.06172839506172839,23.333333333333336,0)" xlink:href="#aZ"/><use transform="matrix(0.06172839506172839,0,0,0.06172839506172839,35.67901234567901,0)" xlink:href="#aW"/><use transform="matrix(0.06172839506172839,0,0,0.06172839506172839,46.79012345679013,0)" xlink:href="#aW"/><use transform="matrix(0.06172839506172839,0,0,0.06172839506172839,57.90123456790124,0)" xlink:href="#aV"/><use transform="matrix(0.06172839506172839,0,0,0.06172839506172839,62.777777777777786,0)" xlink:href="#bq"/><use transform="matrix(0.06172839506172839,0,0,0.06172839506172839,68.95061728395062,0)" xlink:href="#aV"/><use transform="matrix(0.06172839506172839,0,0,0.06172839506172839,73.82716049382717,0)" xlink:href="#bf"/><use transform="matrix(0.06172839506172839,0,0,0.06172839506172839,84.93827160493828,0)" xlink:href="#aZ"/><use transform="matrix(0.06172839506172839,0,0,0.06172839506172839,97.28395061728396,0)" xlink:href="#bg"/><use transform="matrix(0.06172839506172839,0,0,0.06172839506172839,103.4567901234568,0)" xlink:href="#aV"/><use transform="matrix(0.06172839506172839,0,0,0.06172839506172839,108.33333333333334,0)" xlink:href="#aY"/><use transform="matrix(0.06172839506172839,0,0,0.06172839506172839,120.67901234567903,0)" xlink:href="#bk"/><use transform="matrix(0.06172839506172839,0,0,0.06172839506172839,133.0246913580247,0)" xlink:href="#aW"/><use transform="matrix(0.06172839506172839,0,0,0.06172839506172839,144.13580246913583,0)" xlink:href="#br"/></g><g id="R"><use transform="matrix(0.06172839506172839,0,0,0.06172839506172839,0,0)" xlink:href="#aV"/><use transform="matrix(0.06172839506172839,0,0,0.06172839506172839,4.876543209876543,0)" xlink:href="#bk"/><use transform="matrix(0.06172839506172839,0,0,0.06172839506172839,17.22222222222222,0)" xlink:href="#ba"/><use transform="matrix(0.06172839506172839,0,0,0.06172839506172839,29.5679012345679,0)" xlink:href="#aV"/><use transform="matrix(0.06172839506172839,0,0,0.06172839506172839,34.44444444444444,0)" xlink:href="#bf"/><use transform="matrix(0.06172839506172839,0,0,0.06172839506172839,45.55555555555556,0)" xlink:href="#aZ"/><use transform="matrix(0.06172839506172839,0,0,0.06172839506172839,57.901234567901234,0)" xlink:href="#bg"/><use transform="matrix(0.06172839506172839,0,0,0.06172839506172839,64.07407407407408,0)" xlink:href="#be"/><use transform="matrix(0.06172839506172839,0,0,0.06172839506172839,76.41975308641976,0)" xlink:href="#ba"/></g></defs></g></svg>