<svg xmlns="http://www.w3.org/2000/svg" xmlns:xlink="http://www.w3.org/1999/xlink" xmlns:lucid="lucid" width="1183.17" height="1001.38"><g transform="translate(158.32084901346224 -100.1106217343987)" lucid:page-tab-id="pctYkOyMCLGi"><path d="M-500 0h2000v1500H-500z" fill="#fff"/><path d="M129.1 125.1a5 5 0 0 1 5-5h150a5 5 0 0 1 5 5v110a5 5 0 0 1-5 5h-150a5 5 0 0 1-5-5z" stroke="#1071e5" stroke-width="2" fill="#fff"/><use xlink:href="#a" transform="matrix(1,0,0,1,141.10356258612399,132.1106217343987) translate(11.574999999999996 50.4)"/><use xlink:href="#b" transform="matrix(1,0,0,1,141.10356258612399,132.1106217343987) translate(59.525 50.4)"/><use xlink:href="#c" transform="matrix(1,0,0,1,141.10356258612399,132.1106217343987) translate(112.42500000000001 50.4)"/><path d="M-58.32 242.1v28.45" stroke="#3a414a" stroke-width="2" fill="none"/><path d="M-57.32 242.14h-2v-1.03h2z" stroke="#3a414a" stroke-width=".05" fill="#3a414a"/><path d="M-58.32 285.82l-4.64-14.27h9.27z" stroke="#3a414a" stroke-width="2" fill="#fff"/><path d="M264.53 304.72a5 5 0 0 1 5-5h150a5 5 0 0 1 5 5v110a5 5 0 0 1-5 5h-150a5 5 0 0 1-5-5z" stroke="#1071e5" stroke-width="2" fill="#fff"/><use xlink:href="#d" transform="matrix(1,0,0,1,276.52677721387124,311.7167741613803) translate(24.049999999999997 41.4)"/><use xlink:href="#b" transform="matrix(1,0,0,1,276.52677721387124,311.7167741613803) translate(35.074999999999996 63)"/><use xlink:href="#e" transform="matrix(1,0,0,1,276.52677721387124,311.7167741613803) translate(87.975 63)"/><path d="M210.1 353.68l.07.82.18.76.3.73.4.65.52.6.6.5.67.42.72.3.76.18.82.07h46.57v2h-46.64l-1.05-.1-1.06-.24-1.02-.42-.93-.58-.85-.7-.7-.85-.6-.93-.4-1.02-.26-1.07-.1-1.04v-34.3h2zm0-55.55h-2V242.1h2z" stroke="#3a414a" stroke-width=".05" fill="#3a414a"/><path d="M210.1 242.14h-2v-1.03h2z" fill="#3a414a"/><path d="M210.13 242.16h-2.05v-1.07h2.05zm-2-1.02v.97h1.95v-.96zM263.53 359.72l-18.67 11.04-1.02-1.72 15.76-9.32-15.76-9.32 1.02-1.72z" stroke="#3a414a" stroke-width=".05" fill="#3a414a"/><path d="M568.23 306.14a5 5 0 0 1 5-5h150a5 5 0 0 1 5 5v110a5 5 0 0 1-5 5h-150a5 5 0 0 1-5-5z" stroke="#000" stroke-width="2" fill="#fff"/><use xlink:href="#f" transform="matrix(1,0,0,1,580.2263212341519,313.13905107062226) translate(20.549999999999997 41.4)"/><use xlink:href="#g" transform="matrix(1,0,0,1,580.2263212341519,313.13905107062226) translate(68.5 41.4)"/><use xlink:href="#h" transform="matrix(1,0,0,1,580.2263212341519,313.13905107062226) translate(44.05 63)"/><path d="M568.23 535.78a5 5 0 0 1 5-5h150a5 5 0 0 1 5 5v110a5 5 0 0 1-5 5h-150a5 5 0 0 1-5-5z" stroke="#000" stroke-width="2" fill="#fff"/><use xlink:href="#f" transform="matrix(1,0,0,1,580.2263212341518,542.7837885847523) translate(24.549999999999997 50.4)"/><use xlink:href="#i" transform="matrix(1,0,0,1,580.2263212341518,542.7837885847523) translate(72.5 50.4)"/><path d="M568.23 822.92a5 5 0 0 1 5-5h150a5 5 0 0 1 5 5v110a5 5 0 0 1-5 5h-150a5 5 0 0 1-5-5z" stroke="#000" stroke-width="2" fill="#fff"/><use xlink:href="#f" transform="matrix(1,0,0,1,580.2263212341518,829.9230191589277) translate(21.724999999999994 50.4)"/><use xlink:href="#j" transform="matrix(1,0,0,1,580.2263212341518,829.9230191589277) translate(69.675 50.4)"/><path d="M452.87 883.1h-26.34v-2h26.34zm112.54-4.18h-36.63v-2h36.64z" stroke="#3a414a" stroke-width=".05" fill="#3a414a"/><path d="M567.23 877.92l-18.67 11.05-1.02-1.73 15.76-9.32-15.76-9.32 1.02-1.72z" stroke="#3a414a" stroke-width=".05" fill="#3a414a"/><path d="M426.55 883.1h-1.02v-2h1.02z" fill="#3a414a"/><path d="M426.58 883.12h-1.08v-2.05h1.08zm-1.03-2v1.95h.98v-1.95z" stroke="#3a414a" stroke-width=".05" fill="#3a414a"/><use xlink:href="#k" transform="matrix(1,0,0,1,452.8734044005611,860.7633181588975) translate(0.005000000000002558 14.222222222222223)"/><use xlink:href="#l" transform="matrix(1,0,0,1,452.8734044005611,860.7633181588975) translate(21.165493827160496 35.55555555555556)"/><path d="M458.43 591.78h-31.9v-2h31.9zm106.98 0h-31.07v-2h31.08z" stroke="#3a414a" stroke-width=".05" fill="#3a414a"/><path d="M567.23 590.78l-18.67 11.05-1.02-1.73 15.76-9.32-15.76-9.32 1.02-1.72z" stroke="#3a414a" stroke-width=".05" fill="#3a414a"/><path d="M426.55 591.78h-1.02v-2h1.02z" fill="#3a414a"/><path d="M426.58 591.8h-1.08v-2.04h1.08zm-1.03-2v1.96h.98v-1.95z" stroke="#3a414a" stroke-width=".05" fill="#3a414a"/><use xlink:href="#k" transform="matrix(1,0,0,1,458.4259319400608,569.4504552514189) translate(0.005000000000002558 14.222222222222223)"/><use xlink:href="#l" transform="matrix(1,0,0,1,458.4259319400608,569.4504552514189) translate(21.165493827160496 35.55555555555556)"/><path d="M565.4 360.14v2h-31.07v-2zm-138.87.58v-2h31.9v2z" stroke="#3a414a" stroke-width=".05" fill="#3a414a"/><path d="M567.23 361.14l-18.67 11.04-1.02-1.72 15.76-9.32-15.76-9.32 1.02-1.72z" stroke="#3a414a" stroke-width=".05" fill="#3a414a"/><path d="M426.55 360.72h-1.02v-2h1.02z" fill="#3a414a"/><path d="M426.58 360.74h-1.08v-2.05h1.08zm-1.03-2v1.95h.98v-1.96z" stroke="#3a414a" stroke-width=".05" fill="#3a414a"/><use xlink:href="#k" transform="matrix(1,0,0,1,458.42593194006093,339.0945792826679) translate(0.005000000000002558 14.222222222222223)"/><use xlink:href="#l" transform="matrix(1,0,0,1,458.42593194006093,339.0945792826679) translate(21.165493827160496 35.55555555555556)"/><path d="M568.23 151.5a5 5 0 0 1 5-5h150a5 5 0 0 1 5 5v57.2a5 5 0 0 1-5 5h-150a5 5 0 0 1-5-5z" stroke="#e81313" stroke-width="2" fill="#fff"/><use xlink:href="#m" transform="matrix(1,0,0,1,580.2263212341518,158.5106217343987) translate(4.150000000000006 25.4)"/><use xlink:href="#n" transform="matrix(1,0,0,1,580.2263212341518,158.5106217343987) translate(76.5 25.4)"/><use xlink:href="#o" transform="matrix(1,0,0,1,580.2263212341518,158.5106217343987) translate(98.5 25.4)"/><path d="M335.88 181.1H291.1v-2h44.77zm229.53 0h-43.94v-2h43.95z" stroke="#e81313" stroke-width=".05" fill="#e81313"/><path d="M567.23 180.1l-18.67 11.05-1.02-1.72 15.76-9.32-15.76-9.3 1.02-1.73z" stroke="#e81313" stroke-width=".05" fill="#e81313"/><path d="M291.13 181.1h-1.03v-2h1.03z" fill="#e81313"/><path d="M291.15 181.14h-1.07v-2.05h1.07zm-1.02-2v1.95h.97v-1.96z" stroke="#e81313" stroke-width=".05" fill="#e81313"/><use xlink:href="#p" transform="matrix(1,0,0,1,335.87481845334725,169.44395506773205) translate(0 14.222222222222223)"/><use xlink:href="#q" transform="matrix(1,0,0,1,335.87481845334725,169.44395506773205) translate(33.580246913580254 14.222222222222223)"/><use xlink:href="#r" transform="matrix(1,0,0,1,335.87481845334725,169.44395506773205) translate(141.1851851851852 14.222222222222223)"/><path d="M568.23 449.5a5 5 0 0 1 5-5h150a5 5 0 0 1 5 5v50.22a5 5 0 0 1-5 5h-150a5 5 0 0 1-5-5z" stroke="#1071e5" stroke-width="2" fill="#fff"/><use xlink:href="#s" transform="matrix(1,0,0,1,580.2263212341519,456.5054665492707) translate(31.150000000000006 21.3375)"/><path d="M566.42 472.7l-1.24 1.57-65.63-51.88h3.22zm-90.63-71.65h-3.24L425.7 364l1.23-1.57z" stroke="#000" stroke-width=".05"/><path d="M567.23 474.6l-21.5-2.9.27-2 18.14 2.48-6.58-17.1 1.87-.7z" stroke="#000" stroke-width=".05"/><path d="M426.95 362.44L425.7 364l-.17-.13v-2.55z"/><path d="M427 362.44l-1.3 1.6-.2-.16v-2.6zm-1.45 1.42l.16.12 1.22-1.53-1.37-1.08z" stroke="#000" stroke-width=".05"/><use xlink:href="#t" transform="matrix(1,0,0,1,466.45955917153555,401.05299961299585) translate(0.004999999999999005 14.222222222222223)"/><path d="M568.23 679.35a5 5 0 0 1 5-5h150a5 5 0 0 1 5 5v110a5 5 0 0 1-5 5h-150a5 5 0 0 1-5-5z" stroke="#1071e5" stroke-width="2" fill="#fff"/><use xlink:href="#a" transform="matrix(1,0,0,1,580.2263212341518,686.3534038718399) translate(20.049999999999997 41.4)"/><use xlink:href="#u" transform="matrix(1,0,0,1,580.2263212341518,686.3534038718399) translate(68 41.4)"/><use xlink:href="#v" transform="matrix(1,0,0,1,580.2263212341518,686.3534038718399) translate(11.049999999999997 63)"/><use xlink:href="#w" transform="matrix(1,0,0,1,580.2263212341518,686.3534038718399) translate(66.05 63)"/><use xlink:href="#x" transform="matrix(1,0,0,1,580.2263212341518,686.3534038718399) translate(77 63)"/><path d="M566.66 732.36l-1.42 1.4-70.1-70.8h2.82zm-89.8-90.72h-2.83l-48.5-49 1.4-1.4z" stroke="#000" stroke-width=".05"/><path d="M567.23 734.35l-21-5.5.52-1.93 17.7 4.64L560 713.8l1.94-.48z" stroke="#000" stroke-width=".05"/><path d="M426.96 591.25l-1.42 1.4v-2.85z"/><path d="M427 591.25l-1.5 1.46v-2.96zm-1.44 1.34l1.36-1.36-1.37-1.38z" stroke="#000" stroke-width=".05"/><use xlink:href="#t" transform="matrix(1,0,0,1,464.7882672617772,641.6367498700337) translate(0.004999999999999005 14.222222222222223)"/><path d="M566.65 1021.8l-1.42 1.42-69.98-70h2.83zm-89.9-89.9h-2.83l-48.4-48.4 1.42-1.4z" stroke="#000" stroke-width=".05"/><path d="M567.23 1023.8l-21-5.4.48-1.93 17.75 4.55-4.56-17.74 1.93-.5zM426.96 882.1l-1.4 1.43-.74-.73 1.4-1.4z" stroke="#000" stroke-width=".05"/><use xlink:href="#t" transform="matrix(1,0,0,1,464.7882676539766,931.9014018088791) translate(0.004999999999999005 14.222222222222223)"/><path d="M844.85 822.92a5 5 0 0 1 5-5h150a5 5 0 0 1 5 5v110a5 5 0 0 1-5 5h-150a5 5 0 0 1-5-5z" stroke="#000" stroke-width="2" fill="#ced4db"/><use xlink:href="#y" transform="matrix(1,0,0,1,856.8541283290971,829.9230191589277) translate(47 41.4)"/><use xlink:href="#z" transform="matrix(1,0,0,1,856.8541283290971,829.9230191589277) translate(34.525 63)"/><path d="M730 782.75l7.5 6.26m7.5 6.28l14.98 12.54m7.5 6.26l15 12.54m7.5 6.26l15 12.54m7.5 6.27l14.98 12.52m7.5 6.27l7.5 6.26" stroke="#1071e5" stroke-width="2" fill="none"/><path d="M730.65 782l-1.28 1.53-.14-.12v-2.6z" stroke="#1071e5" stroke-width=".05" fill="#1071e5"/><path d="M822.6 873.43l19.75 3.23-6.68-18.85" stroke="#1071e5" stroke-width="2" fill="none"/><path d="M264.53 827.1a5 5 0 0 1 5-5h150a5 5 0 0 1 5 5v110a5 5 0 0 1-5 5h-150a5 5 0 0 1-5-5z" stroke="#1071e5" stroke-width="2" fill="#fff"/><use xlink:href="#d" transform="matrix(1,0,0,1,276.52677721387124,834.0966514922309) translate(24.049999999999997 41.4)"/><use xlink:href="#b" transform="matrix(1,0,0,1,276.52677721387124,834.0966514922309) translate(37.05 63)"/><use xlink:href="#A" transform="matrix(1,0,0,1,276.52677721387124,834.0966514922309) translate(89.95 63)"/><path d="M264.53 535.78a5 5 0 0 1 5-5h150a5 5 0 0 1 5 5v110a5 5 0 0 1-5 5h-150a5 5 0 0 1-5-5z" stroke="#1071e5" stroke-width="2" fill="#fff"/><use xlink:href="#d" transform="matrix(1,0,0,1,276.52677721387124,542.7837885847523) translate(24.049999999999997 41.4)"/><use xlink:href="#b" transform="matrix(1,0,0,1,276.52677721387124,542.7837885847523) translate(39.05 63)"/><use xlink:href="#B" transform="matrix(1,0,0,1,276.52677721387124,542.7837885847523) translate(91.95 63)"/><path d="M210.1 584.74l.07.83.18.76.3.72.4.67.52.6.6.5.67.42.72.3.76.18.82.06h46.57v2h-46.64l-1.05-.08-1.06-.26-1.02-.42-.93-.57-.85-.7-.7-.85-.6-.94-.4-1-.26-1.08-.1-1.06V319.47h2zm0-286.6h-2V242.1h2z" stroke="#3a414a" stroke-width=".05" fill="#3a414a"/><path d="M210.1 242.14h-2v-1.03h2z" fill="#3a414a"/><path d="M210.13 242.16h-2.05v-1.07h2.05zm-2-1.02v.97h1.95v-.96zM263.53 590.78l-18.67 11.05-1.02-1.73 15.76-9.32-15.76-9.32 1.02-1.72z" stroke="#3a414a" stroke-width=".05" fill="#3a414a"/><use xlink:href="#C" transform="matrix(1,0,0,1,177.0294885120499,298.1334317446197) translate(0.005000000000002558 14.222222222222223)"/><use xlink:href="#D" transform="matrix(1,0,0,1,177.0294885120499,298.1334317446197) translate(33.58524691358026 14.222222222222223)"/><path d="M210.1 876.06l.07.82.18.76.3.73.4.66.52.6.6.5.67.42.72.3.76.18.82.07h46.57v2h-46.64L214 883l-1.06-.24-1.02-.42-.93-.58-.85-.7-.7-.85-.6-.92-.4-1.02-.26-1.07-.1-1.06V319.47h2zm0-577.93h-2V242.1h2z" stroke="#000" stroke-width=".05"/><path d="M210.1 242.14h-2v-1.03h2z"/><path d="M210.13 242.16h-2.05v-1.07h2.05zm-2-1.02v.97h1.95v-.96zM263.53 882.1l-18.67 11.04-1.02-1.72 15.76-9.32-15.76-9.32 1.02-1.73z" stroke="#000" stroke-width=".05"/><path d="M844.85 449.5a5 5 0 0 1 5-5h150a5 5 0 0 1 5 5v50.22a5 5 0 0 1-5 5h-150a5 5 0 0 1-5-5z" stroke="#000" stroke-width="2" fill="#ced4db"/><use xlink:href="#E" transform="matrix(1,0,0,1,856.8541283290971,456.5054665492707) translate(50.525 14.4)"/><use xlink:href="#F" transform="matrix(1,0,0,1,856.8541283290971,456.5054665492707) translate(43.575 36)"/><path d="M730.23 474.6h9.3m9.33 0h18.64m9.3 0h18.65m9.32 0h18.63m9.32 0h9.32" stroke="#1071e5" stroke-width="2" fill="none"/><path d="M730.25 475.6h-1.02v-2h1.02z" stroke="#1071e5" stroke-width=".05" fill="#1071e5"/><path d="M824.67 484.8l17.22-10.2-17.23-10.17" stroke="#1071e5" stroke-width="2" fill="none"/><path d="M844.85 710.36a5 5 0 0 1 5-5h150a5 5 0 0 1 5 5V761a5 5 0 0 1-5 5h-150a5 5 0 0 1-5-5z" stroke="#1071e5" stroke-width="2" fill="#fff"/><use xlink:href="#G" transform="matrix(1,0,0,1,856.8541283290972,717.3605281051229) translate(37.675 21.3375)"/><path d="M743.12 735.35h-12.9v-2h12.9zm98.92-2.22h-26.97v-2h26.97z" stroke="#000" stroke-width=".05"/><path d="M843.85 732.13l-18.67 11.05-1-1.72 15.75-9.33-15.76-9.3 1-1.74z" stroke="#000" stroke-width=".05"/><path d="M730.25 735.35h-1.02v-2h1.02z"/><path d="M730.28 735.38h-1.08v-2.05h1.08zm-1.03-2v1.95h.98v-1.95z" stroke="#000" stroke-width=".05"/><use xlink:href="#H" transform="matrix(1,0,0,1,743.1161091112975,713.0200705385065) translate(0.005000000000002558 14.222222222222223)"/><use xlink:href="#I" transform="matrix(1,0,0,1,743.1161091112975,713.0200705385065) translate(17.26425925925927 35.55555555555556)"/><path d="M-138.32 125.1a5 5 0 0 1 5-5h150a5 5 0 0 1 5 5v110a5 5 0 0 1-5 5h-150a5 5 0 0 1-5-5z" stroke="#000" stroke-width="2" fill="#fff"/><use xlink:href="#J" transform="matrix(1,0,0,1,-126.32084901346224,132.1106217343987) translate(20.074999999999996 50.4)"/><use xlink:href="#K" transform="matrix(1,0,0,1,-126.32084901346224,132.1106217343987) translate(68.025 50.4)"/><path d="M-138.32 295.06a5 5 0 0 1 5-5h150a5 5 0 0 1 5 5v110a5 5 0 0 1-5 5h-150a5 5 0 0 1-5-5z" stroke="#000" stroke-width="2" fill="#ced4db"/><use xlink:href="#L" transform="matrix(1,0,0,1,-126.32084901346224,302.05529835170194) translate(24.049999999999997 41.4)"/><use xlink:href="#K" transform="matrix(1,0,0,1,-126.32084901346224,302.05529835170194) translate(44.05 63)"/><path d="M262.53 391.05h-9.45m-9.46 0h-18.9m-9.45 0h-18.9m-9.46 0H168m-9.44 0h-9.46l-.94-.07-.9-.22-.88-.36-.8-.5-.72-.6-.6-.72-.5-.8-.36-.87-.22-.9-.08-.95v-9.66m0-9.68v-9.67l-.07-.93-.22-.92-.35-.87-.5-.8-.6-.72-.72-.6-.8-.5-.87-.35-.92-.22-.94-.07h-9.38m-9.4 0H99.58m-9.4 0H71.43m-9.4 0H43.27m-9.38 0H24.5" stroke="#1071e5" stroke-width="2" fill="none"/><path d="M263.53 392.05h-1.03v-2h1.03z" stroke="#1071e5" stroke-width=".05" fill="#1071e5"/><path d="M41.86 339.87l-17.22 10.2 17.22 10.17M262.53 624.2h-8.07m-8.07 0h-16.16m-8.07 0h-8.07l-.96-2.97-2.46-1.8-1.58-.24-2.95.95-1.8 2.46-.25 1.6h-9.16m-9.17 0h-18.33m-9.17 0h-9.17l-.94-.1-.9-.2-.88-.37-.8-.5-.72-.6-.6-.7-.5-.82-.36-.86-.22-.9-.08-.95v-9.72m0-9.7v-19.43m0-9.7v-19.42m0-9.7V521.1m0-9.7v-19.42m0-9.7v-19.43m0-9.7V433.7m0-9.7V404.6m0-9.7v-19.43m0-9.7v-9.7l-.07-.95-.22-.92-.35-.87-.5-.8-.6-.72-.72-.6-.8-.5-.87-.35-.92-.22-.94-.07h-9.38m-9.4 0H99.58m-9.4 0H71.43m-9.4 0H43.27m-9.38 0H24.5" stroke="#1071e5" stroke-width="2" fill="none"/><path d="M263.53 625.2h-1.03v-2h1.03z" stroke="#1071e5" stroke-width=".05" fill="#1071e5"/><path d="M41.86 339.87l-17.22 10.2 17.22 10.17M262.53 920.97h-9.45m-9.46 0h-18.9m-9.45 0h-18.9m-9.46 0H168m-9.44 0h-9.46l-.94-.08-.9-.23-.88-.35-.8-.5-.72-.6-.6-.73-.5-.8-.36-.88-.22-.9-.08-.95v-9.8m0-9.8v-19.62m0-9.8v-19.62m0-9.8V816.9m0-9.8v-19.6m0-9.8v-19.62m0-9.8v-19.62m0-9.8v-19.6m0-9.82v-19.6m0-9.8V640.4m0-9.8V611m0-9.8v-19.62m0-9.8v-19.62m0-9.8v-19.6m0-9.82v-19.6m0-9.8V463.9m0-9.8V434.5m0-9.8v-19.62m0-9.8v-19.6m0-9.82v-9.8l-.07-.94-.22-.92-.35-.87-.5-.8-.6-.72-.72-.6-.8-.5-.87-.35-.92-.22-.94-.07h-9.38m-9.4 0H99.58m-9.4 0H71.43m-9.4 0H43.27m-9.38 0H24.5" stroke="#1071e5" stroke-width="2" fill="none"/><path d="M263.53 921.97h-1.03v-2h1.03z" stroke="#1071e5" stroke-width=".05" fill="#1071e5"/><path d="M41.86 339.87l-17.22 10.2 17.22 10.17M127.1 180.1h-8.6m-8.63 0H92.63m-8.62 0H66.9m-8.47 0H41.46m-8.48 0H24.5" stroke="#1071e5" stroke-width="2" fill="none"/><path d="M128.1 181.1h-1.02v-2h1.02z" stroke="#1071e5" stroke-width=".05" fill="#1071e5"/><path d="M41.86 169.93L24.65 180.1l17.2 10.2M729.98 976.97l7.5-6.52m7.5-6.52l15-13.05m7.5-6.53l15-13.04m7.5-6.52l15-13.04m7.5-6.53l15-13.04m7.5-6.52l7.5-6.52" stroke="#1071e5" stroke-width="2" fill="none"/><path d="M730.66 977.7l-1.43 1.25v-2.65l.1-.1z" stroke="#1071e5" stroke-width=".05" fill="#1071e5"/><path d="M836.07 898.2l6.3-19-19.67 3.63" stroke="#1071e5" stroke-width="2" fill="none"/><path d="M844.85 1009.93a5 5 0 0 1 5-5h150a5 5 0 0 1 5 5v50.64a5 5 0 0 1-5 5h-150a5 5 0 0 1-5-5z" stroke="#1071e5" stroke-width="2" fill="#fff"/><g><use xlink:href="#M" transform="matrix(1,0,0,1,856.8541283290972,1016.9285446152352) translate(38.15 21.3375)"/></g><path d="M568.23 966.5a5 5 0 0 1 5-5h150a5 5 0 0 1 5 5v110a5 5 0 0 1-5 5h-150a5 5 0 0 1-5-5z" stroke="#1071e5" stroke-width="2" fill="#fff"/><g><use xlink:href="#a" transform="matrix(1,0,0,1,580.2263212341519,973.4926344460155) translate(6.75 41.4)"/><use xlink:href="#N" transform="matrix(1,0,0,1,580.2263212341519,973.4926344460155) translate(54.7 41.4)"/><use xlink:href="#O" transform="matrix(1,0,0,1,580.2263212341519,973.4926344460155) translate(123.3 41.4)"/><use xlink:href="#P" transform="matrix(1,0,0,1,580.2263212341519,973.4926344460155) translate(44.5 63)"/></g><path d="M742.17 1022.5h-11.94v-2h11.94zm99.87 0h-27.92v-2h27.92z" stroke="#000" stroke-width=".05"/><path d="M843.85 1021.5l-18.67 11.03-1-1.72 15.75-9.3-15.76-9.33 1-1.72z" stroke="#000" stroke-width=".05"/><path d="M730.25 1022.5h-1.02v-2h1.02z"/><path d="M730.28 1022.52h-1.08v-2.05h1.08zm-1.03-2v1.95h.98v-1.95z" stroke="#000" stroke-width=".05"/><g><use xlink:href="#H" transform="matrix(1,0,0,1,742.1702947587933,1000.1593011126821) translate(0.005000000000002558 14.222222222222223)"/><use xlink:href="#I" transform="matrix(1,0,0,1,742.1702947587933,1000.1593011126821) translate(17.26425925925927 35.55555555555556)"/></g><path d="M754.2 189.05a6 6 0 0 1 6-6h238.65a6 6 0 0 1 6 6v104.67a6 6 0 0 1-6 6H760.2a6 6 0 0 1-6-6z" fill="#fff" fill-opacity="0"/><path d="M770.13 183.05h9.95m4.97 0H795m4.97 0h9.94m4.98 0h9.95m4.97 0h9.94m4.98 0h9.94m4.97 0h9.95m4.97 0h9.94m4.97 0h9.94m4.98 0h9.95m4.97 0h9.94m4.98 0h9.94m4.97 0h9.95m4.97 0H974m4.97 0h9.94m4.98 0h4.97l.94.07.9.22.88.36.8.5.72.6.6.72.5.8.36.88.22.9.07.95v4.98m0 5v9.96m0 4.97v9.97m0 4.98v9.97m0 4.98v9.96m0 5v9.96m0 4.98v9.97m0 4.98v5l-.07.92-.22.92-.36.87-.5.8-.6.72-.72.6-.8.5-.87.36-.9.22-.95.08h-4.97m-4.97 0h-9.93m-4.98 0h-9.95m-4.97 0h-9.95m-4.97 0h-9.94m-4.98 0h-9.94m-4.97 0h-9.95m-4.97 0h-9.93m-4.98 0h-9.95m-4.97 0h-9.95m-4.97 0h-9.94m-4.98 0h-9.94m-4.97 0h-9.95m-4.97 0h-9.93m-4.98 0h-9.95m-4.97 0h-9.95m-4.97 0h-4.97l-.95-.08-.92-.22-.87-.36-.8-.5-.7-.6-.63-.72-.5-.8-.35-.87-.22-.92-.07-.93v-5m0-4.97v-9.97m0-4.98v-9.97m0-5v-9.95m0-5v-9.96m0-4.98v-9.97m0-4.98V199m0-5v-4.97l.06-.94.22-.9.36-.87.5-.8.6-.72.72-.6.8-.5.87-.36.92-.22.94-.07h4.96" stroke="#000" fill="none"/><g><use xlink:href="#Q" transform="matrix(1,0,0,1,759.1874616624306,188.05010749471364) translate(17.506172839506178 21.12152777777778)"/><use xlink:href="#R" transform="matrix(1,0,0,1,759.1874616624306,188.05010749471364) translate(82.81481481481481 21.12152777777778)"/><use xlink:href="#S" transform="matrix(1,0,0,1,759.1874616624306,188.05010749471364) translate(186.45679012345678 21.12152777777778)"/><use xlink:href="#T" transform="matrix(1,0,0,1,759.1874616624306,188.05010749471364) translate(26.117283950617292 47.78819444444444)"/><use xlink:href="#U" transform="matrix(1,0,0,1,759.1874616624306,188.05010749471364) translate(130.99382716049382 47.78819444444444)"/><use xlink:href="#V" transform="matrix(1,0,0,1,759.1874616624306,188.05010749471364) translate(202.53703703703704 47.78819444444444)"/><use xlink:href="#W" transform="matrix(1,0,0,1,759.1874616624306,188.05010749471364) translate(8.987654320987659 74.45486111111111)"/><use xlink:href="#X" transform="matrix(1,0,0,1,759.1874616624306,188.05010749471364) translate(100.22222222222221 74.45486111111111)"/><use xlink:href="#Y" transform="matrix(1,0,0,1,759.1874616624306,188.05010749471364) translate(8.925925925925924 101.12152777777777)"/><use xlink:href="#Z" transform="matrix(1,0,0,1,759.1874616624306,188.05010749471364) translate(134.7283950617284 101.12152777777777)"/><use xlink:href="#aa" transform="matrix(1,0,0,1,759.1874616624306,188.05010749471364) translate(166.76543209876542 101.12152777777777)"/></g><path d="M753.35 206.63l-3.96-4.35m-3.98-4.36l-7.93-8.72m-3.97-4.36l-3.97-4.36" stroke="#3a414a" fill="none"/><path d="M753.7 207.75l-.73-.8.72-.64zM729.94 180.15l-.7.65v-1.43z" stroke="#3a414a" stroke-width=".05" fill="#3a414a"/><defs><path fill="#1071e5" d="M233-177c-1 41-23 64-60 70L243 0h-38l-65-103H63V0H30v-248c88 3 205-21 203 71zM63-129c60-2 137 13 137-47 0-61-80-42-137-45v92" id="ab"/><path fill="#1071e5" d="M100-194c62-1 85 37 85 99 1 63-27 99-86 99S16-35 15-95c0-66 28-99 85-99zM99-20c44 1 53-31 53-75 0-43-8-75-51-75s-53 32-53 75 10 74 51 75" id="ac"/><path fill="#1071e5" d="M141-36C126-15 110 5 73 4 37 3 15-17 15-53c-1-64 63-63 125-63 3-35-9-54-41-54-24 1-41 7-42 31l-33-3c5-37 33-52 76-52 45 0 72 20 72 64v82c-1 20 7 32 28 27v20c-31 9-61-2-59-35zM48-53c0 20 12 33 32 33 41-3 63-29 60-74-43 2-92-5-92 41" id="ad"/><path fill="#1071e5" d="M85-194c31 0 48 13 60 33l-1-100h32l1 261h-30c-2-10 0-23-3-31C134-8 116 4 85 4 32 4 16-35 15-94c0-66 23-100 70-100zm9 24c-40 0-46 34-46 75 0 40 6 74 45 74 42 0 51-32 51-76 0-42-9-74-50-73" id="ae"/><g id="a"><use transform="matrix(0.05,0,0,0.05,0,0)" xlink:href="#ab"/><use transform="matrix(0.05,0,0,0.05,12.950000000000001,0)" xlink:href="#ac"/><use transform="matrix(0.05,0,0,0.05,22.950000000000003,0)" xlink:href="#ad"/><use transform="matrix(0.05,0,0,0.05,32.95,0)" xlink:href="#ae"/></g><path fill="#1071e5" d="M190 0L58-211 59 0H30v-248h39L202-35l-2-213h31V0h-41" id="af"/><path fill="#1071e5" d="M210-169c-67 3-38 105-44 169h-31v-121c0-29-5-50-35-48C34-165 62-65 56 0H25l-1-190h30c1 10-1 24 2 32 10-44 99-50 107 0 11-21 27-35 58-36 85-2 47 119 55 194h-31v-121c0-29-5-49-35-48" id="ag"/><path fill="#1071e5" d="M100-194c63 0 86 42 84 106H49c0 40 14 67 53 68 26 1 43-12 49-29l28 8c-11 28-37 45-77 45C44 4 14-33 15-96c1-61 26-98 85-98zm52 81c6-60-76-77-97-28-3 7-6 17-6 28h103" id="ah"/><g id="b"><use transform="matrix(0.05,0,0,0.05,0,0)" xlink:href="#af"/><use transform="matrix(0.05,0,0,0.05,12.950000000000001,0)" xlink:href="#ad"/><use transform="matrix(0.05,0,0,0.05,22.950000000000003,0)" xlink:href="#ag"/><use transform="matrix(0.05,0,0,0.05,37.900000000000006,0)" xlink:href="#ah"/></g><path fill="#1071e5" d="M195 0l-74-108L45 0H8l94-129-87-119h37l69 98 67-98h37l-84 118L233 0h-38" id="ai"/><use transform="matrix(0.05,0,0,0.05,0,0)" xlink:href="#ai" id="c"/><path fill="#1071e5" d="M212-179c-10-28-35-45-73-45-59 0-87 40-87 99 0 60 29 101 89 101 43 0 62-24 78-52l27 14C228-24 195 4 139 4 59 4 22-46 18-125c-6-104 99-153 187-111 19 9 31 26 39 46" id="aj"/><path fill="#1071e5" d="M115-194c55 1 70 41 70 98S169 2 115 4C84 4 66-9 55-30l1 105H24l-1-265h31l2 30c10-21 28-34 59-34zm-8 174c40 0 45-34 45-75s-6-73-45-74c-42 0-51 32-51 76 0 43 10 73 51 73" id="ak"/><path fill="#1071e5" d="M84 4C-5 8 30-112 23-190h32v120c0 31 7 50 39 49 72-2 45-101 50-169h31l1 190h-30c-1-10 1-25-2-33-11 22-28 36-60 37" id="al"/><path fill="#1071e5" d="M117-194c89-4 53 116 60 194h-32v-121c0-31-8-49-39-48C34-167 62-67 57 0H25l-1-190h30c1 10-1 24 2 32 11-22 29-35 61-36" id="am"/><g id="d"><use transform="matrix(0.05,0,0,0.05,0,0)" xlink:href="#aj"/><use transform="matrix(0.05,0,0,0.05,12.950000000000001,0)" xlink:href="#ac"/><use transform="matrix(0.05,0,0,0.05,22.950000000000003,0)" xlink:href="#ag"/><use transform="matrix(0.05,0,0,0.05,37.900000000000006,0)" xlink:href="#ak"/><use transform="matrix(0.05,0,0,0.05,47.900000000000006,0)" xlink:href="#ac"/><use transform="matrix(0.05,0,0,0.05,57.900000000000006,0)" xlink:href="#al"/><use transform="matrix(0.05,0,0,0.05,67.9,0)" xlink:href="#am"/><use transform="matrix(0.05,0,0,0.05,77.9,0)" xlink:href="#ae"/></g><path fill="#1071e5" d="M197 0v-115H63V0H30v-248h33v105h134v-105h34V0h-34" id="an"/><use transform="matrix(0.05,0,0,0.05,0,0)" xlink:href="#an" id="e"/><path d="M233-177c-1 41-23 64-60 70L243 0h-38l-65-103H63V0H30v-248c88 3 205-21 203 71zM63-129c60-2 137 13 137-47 0-61-80-42-137-45v92" id="ao"/><path d="M100-194c62-1 85 37 85 99 1 63-27 99-86 99S16-35 15-95c0-66 28-99 85-99zM99-20c44 1 53-31 53-75 0-43-8-75-51-75s-53 32-53 75 10 74 51 75" id="ap"/><path d="M141-36C126-15 110 5 73 4 37 3 15-17 15-53c-1-64 63-63 125-63 3-35-9-54-41-54-24 1-41 7-42 31l-33-3c5-37 33-52 76-52 45 0 72 20 72 64v82c-1 20 7 32 28 27v20c-31 9-61-2-59-35zM48-53c0 20 12 33 32 33 41-3 63-29 60-74-43 2-92-5-92 41" id="aq"/><path d="M85-194c31 0 48 13 60 33l-1-100h32l1 261h-30c-2-10 0-23-3-31C134-8 116 4 85 4 32 4 16-35 15-94c0-66 23-100 70-100zm9 24c-40 0-46 34-46 75 0 40 6 74 45 74 42 0 51-32 51-76 0-42-9-74-50-73" id="ar"/><g id="f"><use transform="matrix(0.05,0,0,0.05,0,0)" xlink:href="#ao"/><use transform="matrix(0.05,0,0,0.05,12.950000000000001,0)" xlink:href="#ap"/><use transform="matrix(0.05,0,0,0.05,22.950000000000003,0)" xlink:href="#aq"/><use transform="matrix(0.05,0,0,0.05,32.95,0)" xlink:href="#ar"/></g><path d="M143 4C61 4 22-44 18-125c-5-107 100-154 193-111 17 8 29 25 37 43l-32 9c-13-25-37-40-76-40-61 0-88 39-88 99 0 61 29 100 91 101 35 0 62-11 79-27v-45h-74v-28h105v86C228-13 192 4 143 4" id="as"/><path d="M24-231v-30h32v30H24zM24 0v-190h32V0H24" id="at"/><path d="M108 0H70L1-190h34L89-25l56-165h34" id="au"/><path d="M100-194c63 0 86 42 84 106H49c0 40 14 67 53 68 26 1 43-12 49-29l28 8c-11 28-37 45-77 45C44 4 14-33 15-96c1-61 26-98 85-98zm52 81c6-60-76-77-97-28-3 7-6 17-6 28h103" id="av"/><path d="M117-194c89-4 53 116 60 194h-32v-121c0-31-8-49-39-48C34-167 62-67 57 0H25l-1-190h30c1 10-1 24 2 32 11-22 29-35 61-36" id="aw"/><g id="g"><use transform="matrix(0.05,0,0,0.05,0,0)" xlink:href="#as"/><use transform="matrix(0.05,0,0,0.05,14,0)" xlink:href="#at"/><use transform="matrix(0.05,0,0,0.05,17.95,0)" xlink:href="#au"/><use transform="matrix(0.05,0,0,0.05,26.950000000000003,0)" xlink:href="#av"/><use transform="matrix(0.05,0,0,0.05,36.95,0)" xlink:href="#aw"/></g><path d="M190 0L58-211 59 0H30v-248h39L202-35l-2-213h31V0h-41" id="ax"/><path d="M210-169c-67 3-38 105-44 169h-31v-121c0-29-5-50-35-48C34-165 62-65 56 0H25l-1-190h30c1 10-1 24 2 32 10-44 99-50 107 0 11-21 27-35 58-36 85-2 47 119 55 194h-31v-121c0-29-5-49-35-48" id="ay"/><g id="h"><use transform="matrix(0.05,0,0,0.05,0,0)" xlink:href="#ax"/><use transform="matrix(0.05,0,0,0.05,12.950000000000001,0)" xlink:href="#aq"/><use transform="matrix(0.05,0,0,0.05,22.950000000000003,0)" xlink:href="#ay"/><use transform="matrix(0.05,0,0,0.05,37.900000000000006,0)" xlink:href="#av"/></g><path d="M127-220V0H93v-220H8v-28h204v28h-85" id="az"/><path d="M179-190L93 31C79 59 56 82 12 73V49c39 6 53-20 64-50L1-190h34L92-34l54-156h33" id="aA"/><path d="M115-194c55 1 70 41 70 98S169 2 115 4C84 4 66-9 55-30l1 105H24l-1-265h31l2 30c10-21 28-34 59-34zm-8 174c40 0 45-34 45-75s-6-73-45-74c-42 0-51 32-51 76 0 43 10 73 51 73" id="aB"/><g id="i"><use transform="matrix(0.05,0,0,0.05,0,0)" xlink:href="#az"/><use transform="matrix(0.05,0,0,0.05,9.950000000000001,0)" xlink:href="#aA"/><use transform="matrix(0.05,0,0,0.05,18.950000000000003,0)" xlink:href="#aB"/><use transform="matrix(0.05,0,0,0.05,28.950000000000003,0)" xlink:href="#av"/></g><path d="M185-189c-5-48-123-54-124 2 14 75 158 14 163 119 3 78-121 87-175 55-17-10-28-26-33-46l33-7c5 56 141 63 141-1 0-78-155-14-162-118-5-82 145-84 179-34 5 7 8 16 11 25" id="aC"/><path d="M84 4C-5 8 30-112 23-190h32v120c0 31 7 50 39 49 72-2 45-101 50-169h31l1 190h-30c-1-10 1-25-2-33-11 22-28 36-60 37" id="aD"/><path d="M101-234c-31-9-42 10-38 44h38v23H63V0H32v-167H5v-23h27c-7-52 17-82 69-68v24" id="aE"/><path d="M141 0L90-78 38 0H4l68-98-65-92h35l48 74 47-74h35l-64 92 68 98h-35" id="aF"/><g id="j"><use transform="matrix(0.05,0,0,0.05,0,0)" xlink:href="#aC"/><use transform="matrix(0.05,0,0,0.05,12,0)" xlink:href="#aD"/><use transform="matrix(0.05,0,0,0.05,22,0)" xlink:href="#aE"/><use transform="matrix(0.05,0,0,0.05,26.649999999999995,0)" xlink:href="#aE"/><use transform="matrix(0.05,0,0,0.05,31.649999999999995,0)" xlink:href="#at"/><use transform="matrix(0.05,0,0,0.05,35.6,0)" xlink:href="#aF"/></g><path fill="#333" d="M141-36C126-15 110 5 73 4 37 3 15-17 15-53c-1-64 63-63 125-63 3-35-9-54-41-54-24 1-41 7-42 31l-33-3c5-37 33-52 76-52 45 0 72 20 72 64v82c-1 20 7 32 28 27v20c-31 9-61-2-59-35zM48-53c0 20 12 33 32 33 41-3 63-29 60-74-43 2-92-5-92 41" id="aG"/><path fill="#333" d="M85-194c31 0 48 13 60 33l-1-100h32l1 261h-30c-2-10 0-23-3-31C134-8 116 4 85 4 32 4 16-35 15-94c0-66 23-100 70-100zm9 24c-40 0-46 34-46 75 0 40 6 74 45 74 42 0 51-32 51-76 0-42-9-74-50-73" id="aH"/><path fill="#333" d="M24-231v-30h32v30H24zM24 0v-190h32V0H24" id="aI"/><path fill="#333" d="M59-47c-2 24 18 29 38 22v24C64 9 27 4 27-40v-127H5v-23h24l9-43h21v43h35v23H59v120" id="aJ"/><path fill="#333" d="M100-194c62-1 85 37 85 99 1 63-27 99-86 99S16-35 15-95c0-66 28-99 85-99zM99-20c44 1 53-31 53-75 0-43-8-75-51-75s-53 32-53 75 10 74 51 75" id="aK"/><path fill="#333" d="M117-194c89-4 53 116 60 194h-32v-121c0-31-8-49-39-48C34-167 62-67 57 0H25l-1-190h30c1 10-1 24 2 32 11-22 29-35 61-36" id="aL"/><path fill="#333" d="M24 0v-261h32V0H24" id="aM"/><g id="k"><use transform="matrix(0.04938271604938272,0,0,0.04938271604938272,0,0)" xlink:href="#aG"/><use transform="matrix(0.04938271604938272,0,0,0.04938271604938272,9.876543209876544,0)" xlink:href="#aH"/><use transform="matrix(0.04938271604938272,0,0,0.04938271604938272,19.75308641975309,0)" xlink:href="#aH"/><use transform="matrix(0.04938271604938272,0,0,0.04938271604938272,29.629629629629633,0)" xlink:href="#aI"/><use transform="matrix(0.04938271604938272,0,0,0.04938271604938272,33.53086419753087,0)" xlink:href="#aJ"/><use transform="matrix(0.04938271604938272,0,0,0.04938271604938272,38.46913580246914,0)" xlink:href="#aI"/><use transform="matrix(0.04938271604938272,0,0,0.04938271604938272,42.370370370370374,0)" xlink:href="#aK"/><use transform="matrix(0.04938271604938272,0,0,0.04938271604938272,52.24691358024692,0)" xlink:href="#aL"/><use transform="matrix(0.04938271604938272,0,0,0.04938271604938272,62.12345679012346,0)" xlink:href="#aG"/><use transform="matrix(0.04938271604938272,0,0,0.04938271604938272,72,0)" xlink:href="#aM"/></g><path fill="#333" d="M179-190L93 31C79 59 56 82 12 73V49c39 6 53-20 64-50L1-190h34L92-34l54-156h33" id="aN"/><path fill="#333" d="M115-194c55 1 70 41 70 98S169 2 115 4C84 4 66-9 55-30l1 105H24l-1-265h31l2 30c10-21 28-34 59-34zm-8 174c40 0 45-34 45-75s-6-73-45-74c-42 0-51 32-51 76 0 43 10 73 51 73" id="aO"/><path fill="#333" d="M100-194c63 0 86 42 84 106H49c0 40 14 67 53 68 26 1 43-12 49-29l28 8c-11 28-37 45-77 45C44 4 14-33 15-96c1-61 26-98 85-98zm52 81c6-60-76-77-97-28-3 7-6 17-6 28h103" id="aP"/><g id="l"><use transform="matrix(0.04938271604938272,0,0,0.04938271604938272,0,0)" xlink:href="#aJ"/><use transform="matrix(0.04938271604938272,0,0,0.04938271604938272,4.938271604938272,0)" xlink:href="#aN"/><use transform="matrix(0.04938271604938272,0,0,0.04938271604938272,13.827160493827162,0)" xlink:href="#aO"/><use transform="matrix(0.04938271604938272,0,0,0.04938271604938272,23.703703703703706,0)" xlink:href="#aP"/></g><path fill="#e81313" d="M109-170H84l-4-78h32zm-65 0H19l-4-78h33" id="aQ"/><path fill="#e81313" d="M137-103V0h-34v-103L8-248h37l75 118 75-118h37" id="aR"/><path fill="#e81313" d="M84 4C-5 8 30-112 23-190h32v120c0 31 7 50 39 49 72-2 45-101 50-169h31l1 190h-30c-1-10 1-25-2-33-11 22-28 36-60 37" id="aS"/><path fill="#e81313" d="M117-194c89-4 53 116 60 194h-32v-121c0-31-8-49-39-48C34-167 62-67 57 0H25l-1-190h30c1 10-1 24 2 32 11-22 29-35 61-36" id="aT"/><path fill="#e81313" d="M85-194c31 0 48 13 60 33l-1-100h32l1 261h-30c-2-10 0-23-3-31C134-8 116 4 85 4 32 4 16-35 15-94c0-66 23-100 70-100zm9 24c-40 0-46 34-46 75 0 40 6 74 45 74 42 0 51-32 51-76 0-42-9-74-50-73" id="aU"/><path fill="#e81313" d="M141-36C126-15 110 5 73 4 37 3 15-17 15-53c-1-64 63-63 125-63 3-35-9-54-41-54-24 1-41 7-42 31l-33-3c5-37 33-52 76-52 45 0 72 20 72 64v82c-1 20 7 32 28 27v20c-31 9-61-2-59-35zM48-53c0 20 12 33 32 33 41-3 63-29 60-74-43 2-92-5-92 41" id="aV"/><path fill="#e81313" d="M106-169C34-169 62-67 57 0H25v-261h32l-1 103c12-21 28-36 61-36 89 0 53 116 60 194h-32v-121c2-32-8-49-39-48" id="aW"/><g id="m"><use transform="matrix(0.05,0,0,0.05,0,0)" xlink:href="#aQ"/><use transform="matrix(0.05,0,0,0.05,6.3500000000000005,0)" xlink:href="#aR"/><use transform="matrix(0.05,0,0,0.05,17.35,0)" xlink:href="#aS"/><use transform="matrix(0.05,0,0,0.05,27.35,0)" xlink:href="#aT"/><use transform="matrix(0.05,0,0,0.05,37.35,0)" xlink:href="#aU"/><use transform="matrix(0.05,0,0,0.05,47.35,0)" xlink:href="#aV"/><use transform="matrix(0.05,0,0,0.05,57.35,0)" xlink:href="#aW"/></g><path fill="#e81313" d="M185-189c-5-48-123-54-124 2 14 75 158 14 163 119 3 78-121 87-175 55-17-10-28-26-33-46l33-7c5 56 141 63 141-1 0-78-155-14-162-118-5-82 145-84 179-34 5 7 8 16 11 25" id="aX"/><path fill="#e81313" d="M59-47c-2 24 18 29 38 22v24C64 9 27 4 27-40v-127H5v-23h24l9-43h21v43h35v23H59v120" id="aY"/><g id="n"><use transform="matrix(0.05,0,0,0.05,0,0)" xlink:href="#aX"/><use transform="matrix(0.05,0,0,0.05,12,0)" xlink:href="#aY"/></g><g id="o"><use transform="matrix(0.05,0,0,0.05,0,0)" xlink:href="#aX"/><use transform="matrix(0.05,0,0,0.05,12,0)" xlink:href="#aY"/><use transform="matrix(0.05,0,0,0.05,17,0)" xlink:href="#aW"/><use transform="matrix(0.05,0,0,0.05,27,0)" xlink:href="#aQ"/></g><path fill="#e81313" d="M135-143c-3-34-86-38-87 0 15 53 115 12 119 90S17 21 10-45l28-5c4 36 97 45 98 0-10-56-113-15-118-90-4-57 82-63 122-42 12 7 21 19 24 35" id="aZ"/><g id="p"><use transform="matrix(0.04938271604938272,0,0,0.04938271604938272,0,0)" xlink:href="#aW"/><use transform="matrix(0.04938271604938272,0,0,0.04938271604938272,9.876543209876544,0)" xlink:href="#aV"/><use transform="matrix(0.04938271604938272,0,0,0.04938271604938272,19.75308641975309,0)" xlink:href="#aZ"/></g><path fill="#e81313" d="M96-169c-40 0-48 33-48 73s9 75 48 75c24 0 41-14 43-38l32 2c-6 37-31 61-74 61-59 0-76-41-82-99-10-93 101-131 147-64 4 7 5 14 7 22l-32 3c-4-21-16-35-41-35" id="ba"/><path fill="#e81313" d="M100-194c62-1 85 37 85 99 1 63-27 99-86 99S16-35 15-95c0-66 28-99 85-99zM99-20c44 1 53-31 53-75 0-43-8-75-51-75s-53 32-53 75 10 74 51 75" id="bb"/><path fill="#e81313" d="M210-169c-67 3-38 105-44 169h-31v-121c0-29-5-50-35-48C34-165 62-65 56 0H25l-1-190h30c1 10-1 24 2 32 10-44 99-50 107 0 11-21 27-35 58-36 85-2 47 119 55 194h-31v-121c0-29-5-49-35-48" id="bc"/><path fill="#e81313" d="M115-194c55 1 70 41 70 98S169 2 115 4C84 4 66-9 55-30l1 105H24l-1-265h31l2 30c10-21 28-34 59-34zm-8 174c40 0 45-34 45-75s-6-73-45-74c-42 0-51 32-51 76 0 43 10 73 51 73" id="bd"/><path fill="#e81313" d="M100-194c63 0 86 42 84 106H49c0 40 14 67 53 68 26 1 43-12 49-29l28 8c-11 28-37 45-77 45C44 4 14-33 15-96c1-61 26-98 85-98zm52 81c6-60-76-77-97-28-3 7-6 17-6 28h103" id="be"/><g id="q"><use transform="matrix(0.04938271604938272,0,0,0.04938271604938272,0,0)" xlink:href="#ba"/><use transform="matrix(0.04938271604938272,0,0,0.04938271604938272,8.88888888888889,0)" xlink:href="#bb"/><use transform="matrix(0.04938271604938272,0,0,0.04938271604938272,18.765432098765434,0)" xlink:href="#bc"/><use transform="matrix(0.04938271604938272,0,0,0.04938271604938272,33.53086419753087,0)" xlink:href="#bd"/><use transform="matrix(0.04938271604938272,0,0,0.04938271604938272,43.40740740740741,0)" xlink:href="#bb"/><use transform="matrix(0.04938271604938272,0,0,0.04938271604938272,53.283950617283956,0)" xlink:href="#aS"/><use transform="matrix(0.04938271604938272,0,0,0.04938271604938272,63.1604938271605,0)" xlink:href="#aT"/><use transform="matrix(0.04938271604938272,0,0,0.04938271604938272,73.03703703703704,0)" xlink:href="#aU"/><use transform="matrix(0.04938271604938272,0,0,0.04938271604938272,82.91358024691358,0)" xlink:href="#be"/><use transform="matrix(0.04938271604938272,0,0,0.04938271604938272,92.79012345679013,0)" xlink:href="#aU"/></g><g id="r"><use transform="matrix(0.04938271604938272,0,0,0.04938271604938272,0,0)" xlink:href="#aT"/><use transform="matrix(0.04938271604938272,0,0,0.04938271604938272,9.876543209876544,0)" xlink:href="#aV"/><use transform="matrix(0.04938271604938272,0,0,0.04938271604938272,19.75308641975309,0)" xlink:href="#bc"/><use transform="matrix(0.04938271604938272,0,0,0.04938271604938272,34.51851851851852,0)" xlink:href="#be"/></g><path fill="#1071e5" d="M109-170H84l-4-78h32zm-65 0H19l-4-78h33" id="bf"/><path fill="#1071e5" d="M137-103V0h-34v-103L8-248h37l75 118 75-118h37" id="bg"/><path fill="#1071e5" d="M106-169C34-169 62-67 57 0H25v-261h32l-1 103c12-21 28-36 61-36 89 0 53 116 60 194h-32v-121c2-32-8-49-39-48" id="bh"/><g id="s"><use transform="matrix(0.05,0,0,0.05,0,0)" xlink:href="#bf"/><use transform="matrix(0.05,0,0,0.05,6.3500000000000005,0)" xlink:href="#bg"/><use transform="matrix(0.05,0,0,0.05,17.35,0)" xlink:href="#al"/><use transform="matrix(0.05,0,0,0.05,27.35,0)" xlink:href="#am"/><use transform="matrix(0.05,0,0,0.05,37.35,0)" xlink:href="#ae"/><use transform="matrix(0.05,0,0,0.05,47.35,0)" xlink:href="#ad"/><use transform="matrix(0.05,0,0,0.05,57.35,0)" xlink:href="#bh"/><use transform="matrix(0.05,0,0,0.05,67.35,0)" xlink:href="#bf"/></g><path d="M24 0v-261h32V0H24" id="bi"/><g id="t"><use transform="matrix(0.04938271604938272,0,0,0.04938271604938272,0,0)" xlink:href="#au"/><use transform="matrix(0.04938271604938272,0,0,0.04938271604938272,8.88888888888889,0)" xlink:href="#aq"/><use transform="matrix(0.04938271604938272,0,0,0.04938271604938272,18.765432098765434,0)" xlink:href="#bi"/><use transform="matrix(0.04938271604938272,0,0,0.04938271604938272,22.666666666666668,0)" xlink:href="#aD"/><use transform="matrix(0.04938271604938272,0,0,0.04938271604938272,32.543209876543216,0)" xlink:href="#av"/></g><path fill="#1071e5" d="M127-220V0H93v-220H8v-28h204v28h-85" id="bj"/><path fill="#1071e5" d="M179-190L93 31C79 59 56 82 12 73V49c39 6 53-20 64-50L1-190h34L92-34l54-156h33" id="bk"/><path fill="#1071e5" d="M135-143c-3-34-86-38-87 0 15 53 115 12 119 90S17 21 10-45l28-5c4 36 97 45 98 0-10-56-113-15-118-90-4-57 82-63 122-42 12 7 21 19 24 35" id="bl"/><g id="u"><use transform="matrix(0.05,0,0,0.05,0,0)" xlink:href="#bj"/><use transform="matrix(0.05,0,0,0.05,9.950000000000001,0)" xlink:href="#bk"/><use transform="matrix(0.05,0,0,0.05,18.950000000000003,0)" xlink:href="#ak"/><use transform="matrix(0.05,0,0,0.05,28.950000000000003,0)" xlink:href="#ah"/><use transform="matrix(0.05,0,0,0.05,38.95,0)" xlink:href="#bl"/></g><path fill="#1071e5" d="M137 0h-34L2-248h35l83 218 83-218h36" id="bm"/><path fill="#1071e5" d="M96-169c-40 0-48 33-48 73s9 75 48 75c24 0 41-14 43-38l32 2c-6 37-31 61-74 61-59 0-76-41-82-99-10-93 101-131 147-64 4 7 5 14 7 22l-32 3c-4-21-16-35-41-35" id="bn"/><path fill="#1071e5" d="M115-194c53 0 69 39 70 98 0 66-23 100-70 100C84 3 66-7 56-30L54 0H23l1-261h32v101c10-23 28-34 59-34zm-8 174c40 0 45-34 45-75 0-40-5-75-45-74-42 0-51 32-51 76 0 43 10 73 51 73" id="bo"/><g id="v"><use transform="matrix(0.05,0,0,0.05,0,0)" xlink:href="#bm"/><use transform="matrix(0.05,0,0,0.05,11,0)" xlink:href="#ac"/><use transform="matrix(0.05,0,0,0.05,21,0)" xlink:href="#bn"/><use transform="matrix(0.05,0,0,0.05,30,0)" xlink:href="#ad"/><use transform="matrix(0.05,0,0,0.05,40,0)" xlink:href="#bo"/></g><path fill="#1071e5" d="M16-82v-28h88v28H16" id="bp"/><use transform="matrix(0.05,0,0,0.05,0,0)" xlink:href="#bp" id="w"/><path fill="#1071e5" d="M185-189c-5-48-123-54-124 2 14 75 158 14 163 119 3 78-121 87-175 55-17-10-28-26-33-46l33-7c5 56 141 63 141-1 0-78-155-14-162-118-5-82 145-84 179-34 5 7 8 16 11 25" id="bq"/><path fill="#1071e5" d="M59-47c-2 24 18 29 38 22v24C64 9 27 4 27-40v-127H5v-23h24l9-43h21v43h35v23H59v120" id="br"/><path fill="#1071e5" d="M114-163C36-179 61-72 57 0H25l-1-190h30c1 12-1 29 2 39 6-27 23-49 58-41v29" id="bs"/><g id="x"><use transform="matrix(0.05,0,0,0.05,0,0)" xlink:href="#bq"/><use transform="matrix(0.05,0,0,0.05,12,0)" xlink:href="#br"/><use transform="matrix(0.05,0,0,0.05,17,0)" xlink:href="#bs"/><use transform="matrix(0.05,0,0,0.05,22.95,0)" xlink:href="#ah"/><use transform="matrix(0.05,0,0,0.05,32.95,0)" xlink:href="#ah"/><use transform="matrix(0.05,0,0,0.05,42.95,0)" xlink:href="#br"/></g><path d="M135-143c-3-34-86-38-87 0 15 53 115 12 119 90S17 21 10-45l28-5c4 36 97 45 98 0-10-56-113-15-118-90-4-57 82-63 122-42 12 7 21 19 24 35" id="bt"/><path d="M143 0L79-87 56-68V0H24v-261h32v163l83-92h37l-77 82L181 0h-38" id="bu"/><path d="M33-154v-36h34v36H33zM33 0v-36h34V0H33" id="bv"/><g id="y"><use transform="matrix(0.05,0,0,0.05,0,0)" xlink:href="#bt"/><use transform="matrix(0.05,0,0,0.05,9,0)" xlink:href="#bu"/><use transform="matrix(0.05,0,0,0.05,18,0)" xlink:href="#ap"/><use transform="matrix(0.05,0,0,0.05,28,0)" xlink:href="#bt"/><use transform="matrix(0.05,0,0,0.05,37,0)" xlink:href="#bv"/></g><path d="M212-179c-10-28-35-45-73-45-59 0-87 40-87 99 0 60 29 101 89 101 43 0 62-24 78-52l27 14C228-24 195 4 139 4 59 4 22-46 18-125c-6-104 99-153 187-111 19 9 31 26 39 46" id="bw"/><path d="M96-169c-40 0-48 33-48 73s9 75 48 75c24 0 41-14 43-38l32 2c-6 37-31 61-74 61-59 0-76-41-82-99-10-93 101-131 147-64 4 7 5 14 7 22l-32 3c-4-21-16-35-41-35" id="bx"/><path d="M59-47c-2 24 18 29 38 22v24C64 9 27 4 27-40v-127H5v-23h24l9-43h21v43h35v23H59v120" id="by"/><g id="z"><use transform="matrix(0.05,0,0,0.05,0,0)" xlink:href="#bw"/><use transform="matrix(0.05,0,0,0.05,12.950000000000001,0)" xlink:href="#ap"/><use transform="matrix(0.05,0,0,0.05,22.950000000000003,0)" xlink:href="#aw"/><use transform="matrix(0.05,0,0,0.05,32.95,0)" xlink:href="#bx"/><use transform="matrix(0.05,0,0,0.05,41.95,0)" xlink:href="#av"/><use transform="matrix(0.05,0,0,0.05,51.95,0)" xlink:href="#aB"/><use transform="matrix(0.05,0,0,0.05,61.95,0)" xlink:href="#by"/></g><path fill="#1071e5" d="M153-248C145-148 188 4 80 4 36 3 13-21 6-62l32-5c4 25 16 42 43 43 27 0 39-20 39-49v-147H72v-28h81" id="bz"/><use transform="matrix(0.05,0,0,0.05,0,0)" xlink:href="#bz" id="A"/><path fill="#1071e5" d="M33 0v-248h34V0H33" id="bA"/><use transform="matrix(0.05,0,0,0.05,0,0)" xlink:href="#bA" id="B"/><path fill="#333" d="M106-169C34-169 62-67 57 0H25v-261h32l-1 103c12-21 28-36 61-36 89 0 53 116 60 194h-32v-121c2-32-8-49-39-48" id="bB"/><path fill="#333" d="M135-143c-3-34-86-38-87 0 15 53 115 12 119 90S17 21 10-45l28-5c4 36 97 45 98 0-10-56-113-15-118-90-4-57 82-63 122-42 12 7 21 19 24 35" id="bC"/><g id="C"><use transform="matrix(0.04938271604938272,0,0,0.04938271604938272,0,0)" xlink:href="#bB"/><use transform="matrix(0.04938271604938272,0,0,0.04938271604938272,9.876543209876544,0)" xlink:href="#aG"/><use transform="matrix(0.04938271604938272,0,0,0.04938271604938272,19.75308641975309,0)" xlink:href="#bC"/></g><path fill="#333" d="M114-163C36-179 61-72 57 0H25l-1-190h30c1 12-1 29 2 39 6-27 23-49 58-41v29" id="bD"/><g id="D"><use transform="matrix(0.04938271604938272,0,0,0.04938271604938272,0,0)" xlink:href="#aO"/><use transform="matrix(0.04938271604938272,0,0,0.04938271604938272,9.876543209876544,0)" xlink:href="#aG"/><use transform="matrix(0.04938271604938272,0,0,0.04938271604938272,19.75308641975309,0)" xlink:href="#bD"/><use transform="matrix(0.04938271604938272,0,0,0.04938271604938272,25.629629629629633,0)" xlink:href="#aJ"/></g><path d="M114-163C36-179 61-72 57 0H25l-1-190h30c1 12-1 29 2 39 6-27 23-49 58-41v29" id="bE"/><g id="E"><use transform="matrix(0.05,0,0,0.05,0,0)" xlink:href="#bE"/><use transform="matrix(0.05,0,0,0.05,5.95,0)" xlink:href="#ar"/><use transform="matrix(0.05,0,0,0.05,15.949999999999998,0)" xlink:href="#aE"/><use transform="matrix(0.05,0,0,0.05,20.95,0)" xlink:href="#bt"/><use transform="matrix(0.05,0,0,0.05,29.950000000000003,0)" xlink:href="#bv"/></g><path d="M30 0v-248h33v221h125V0H30" id="bF"/><g id="F"><use transform="matrix(0.05,0,0,0.05,0,0)" xlink:href="#bF"/><use transform="matrix(0.05,0,0,0.05,10,0)" xlink:href="#at"/><use transform="matrix(0.05,0,0,0.05,13.949999999999998,0)" xlink:href="#by"/><use transform="matrix(0.05,0,0,0.05,18.95,0)" xlink:href="#av"/><use transform="matrix(0.05,0,0,0.05,28.950000000000003,0)" xlink:href="#bE"/><use transform="matrix(0.05,0,0,0.05,34.9,0)" xlink:href="#aq"/><use transform="matrix(0.05,0,0,0.05,44.9,0)" xlink:href="#bi"/></g><g id="G"><use transform="matrix(0.05,0,0,0.05,0,0)" xlink:href="#bf"/><use transform="matrix(0.05,0,0,0.05,6.3500000000000005,0)" xlink:href="#bq"/><use transform="matrix(0.05,0,0,0.05,18.35,0)" xlink:href="#br"/><use transform="matrix(0.05,0,0,0.05,23.35,0)" xlink:href="#bs"/><use transform="matrix(0.05,0,0,0.05,29.3,0)" xlink:href="#ah"/><use transform="matrix(0.05,0,0,0.05,39.3,0)" xlink:href="#ah"/><use transform="matrix(0.05,0,0,0.05,49.3,0)" xlink:href="#br"/><use transform="matrix(0.05,0,0,0.05,54.29999999999999,0)" xlink:href="#bf"/></g><g id="H"><use transform="matrix(0.04938271604938272,0,0,0.04938271604938272,0,0)" xlink:href="#aB"/><use transform="matrix(0.04938271604938272,0,0,0.04938271604938272,9.876543209876544,0)" xlink:href="#bE"/><use transform="matrix(0.04938271604938272,0,0,0.04938271604938272,15.753086419753087,0)" xlink:href="#av"/><use transform="matrix(0.04938271604938272,0,0,0.04938271604938272,25.629629629629633,0)" xlink:href="#aE"/><use transform="matrix(0.04938271604938272,0,0,0.04938271604938272,30.567901234567906,0)" xlink:href="#av"/><use transform="matrix(0.04938271604938272,0,0,0.04938271604938272,40.44444444444445,0)" xlink:href="#bE"/><use transform="matrix(0.04938271604938272,0,0,0.04938271604938272,46.320987654320994,0)" xlink:href="#bE"/><use transform="matrix(0.04938271604938272,0,0,0.04938271604938272,52.19753086419754,0)" xlink:href="#av"/><use transform="matrix(0.04938271604938272,0,0,0.04938271604938272,62.074074074074076,0)" xlink:href="#ar"/></g><path d="M115-194c53 0 69 39 70 98 0 66-23 100-70 100C84 3 66-7 56-30L54 0H23l1-261h32v101c10-23 28-34 59-34zm-8 174c40 0 45-34 45-75 0-40-5-75-45-74-42 0-51 32-51 76 0 43 10 73 51 73" id="bG"/><g id="I"><use transform="matrix(0.04938271604938272,0,0,0.04938271604938272,0,0)" xlink:href="#bi"/><use transform="matrix(0.04938271604938272,0,0,0.04938271604938272,3.901234567901235,0)" xlink:href="#aq"/><use transform="matrix(0.04938271604938272,0,0,0.04938271604938272,13.777777777777779,0)" xlink:href="#bG"/><use transform="matrix(0.04938271604938272,0,0,0.04938271604938272,23.654320987654323,0)" xlink:href="#av"/><use transform="matrix(0.04938271604938272,0,0,0.04938271604938272,33.53086419753087,0)" xlink:href="#bi"/></g><g id="J"><use transform="matrix(0.05,0,0,0.05,0,0)" xlink:href="#ao"/><use transform="matrix(0.05,0,0,0.05,12.950000000000001,0)" xlink:href="#ap"/><use transform="matrix(0.05,0,0,0.05,22.950000000000003,0)" xlink:href="#aq"/><use transform="matrix(0.05,0,0,0.05,32.95,0)" xlink:href="#ar"/></g><g id="K"><use transform="matrix(0.05,0,0,0.05,0,0)" xlink:href="#ax"/><use transform="matrix(0.05,0,0,0.05,12.950000000000001,0)" xlink:href="#aq"/><use transform="matrix(0.05,0,0,0.05,22.950000000000003,0)" xlink:href="#ay"/><use transform="matrix(0.05,0,0,0.05,37.900000000000006,0)" xlink:href="#av"/></g><g id="L"><use transform="matrix(0.05,0,0,0.05,0,0)" xlink:href="#bw"/><use transform="matrix(0.05,0,0,0.05,12.950000000000001,0)" xlink:href="#ap"/><use transform="matrix(0.05,0,0,0.05,22.950000000000003,0)" xlink:href="#ay"/><use transform="matrix(0.05,0,0,0.05,37.900000000000006,0)" xlink:href="#aB"/><use transform="matrix(0.05,0,0,0.05,47.900000000000006,0)" xlink:href="#ap"/><use transform="matrix(0.05,0,0,0.05,57.900000000000006,0)" xlink:href="#aD"/><use transform="matrix(0.05,0,0,0.05,67.9,0)" xlink:href="#aw"/><use transform="matrix(0.05,0,0,0.05,77.9,0)" xlink:href="#ar"/></g><g id="M"><use transform="matrix(0.05,0,0,0.05,0,0)" xlink:href="#bf"/><use transform="matrix(0.05,0,0,0.05,6.3500000000000005,0)" xlink:href="#bq"/><use transform="matrix(0.05,0,0,0.05,18.35,0)" xlink:href="#ac"/><use transform="matrix(0.05,0,0,0.05,28.35,0)" xlink:href="#al"/><use transform="matrix(0.05,0,0,0.05,38.35,0)" xlink:href="#br"/><use transform="matrix(0.05,0,0,0.05,43.35,0)" xlink:href="#bh"/><use transform="matrix(0.05,0,0,0.05,53.35,0)" xlink:href="#bf"/></g><path fill="#1071e5" d="M101-234c-31-9-42 10-38 44h38v23H63V0H32v-167H5v-23h27c-7-52 17-82 69-68v24" id="bH"/><path fill="#1071e5" d="M24-231v-30h32v30H24zM24 0v-190h32V0H24" id="bI"/><path fill="#1071e5" d="M141 0L90-78 38 0H4l68-98-65-92h35l48 74 47-74h35l-64 92 68 98h-35" id="bJ"/><g id="N"><use transform="matrix(0.05,0,0,0.05,0,0)" xlink:href="#bq"/><use transform="matrix(0.05,0,0,0.05,12,0)" xlink:href="#al"/><use transform="matrix(0.05,0,0,0.05,22,0)" xlink:href="#bH"/><use transform="matrix(0.05,0,0,0.05,26.649999999999995,0)" xlink:href="#bH"/><use transform="matrix(0.05,0,0,0.05,31.649999999999995,0)" xlink:href="#bI"/><use transform="matrix(0.05,0,0,0.05,35.6,0)" xlink:href="#bJ"/><use transform="matrix(0.05,0,0,0.05,44.6,0)" xlink:href="#ah"/><use transform="matrix(0.05,0,0,0.05,54.6,0)" xlink:href="#bl"/></g><use transform="matrix(0.05,0,0,0.05,0,0)" xlink:href="#bp" id="O"/><g id="P"><use transform="matrix(0.05,0,0,0.05,0,0)" xlink:href="#bq"/><use transform="matrix(0.05,0,0,0.05,12,0)" xlink:href="#ac"/><use transform="matrix(0.05,0,0,0.05,22,0)" xlink:href="#al"/><use transform="matrix(0.05,0,0,0.05,32,0)" xlink:href="#br"/><use transform="matrix(0.05,0,0,0.05,37,0)" xlink:href="#bh"/></g><path fill="#3a414a" d="M190 0L58-211 59 0H30v-248h39L202-35l-2-213h31V0h-41" id="bK"/><path fill="#3a414a" d="M141-36C126-15 110 5 73 4 37 3 15-17 15-53c-1-64 63-63 125-63 3-35-9-54-41-54-24 1-41 7-42 31l-33-3c5-37 33-52 76-52 45 0 72 20 72 64v82c-1 20 7 32 28 27v20c-31 9-61-2-59-35zM48-53c0 20 12 33 32 33 41-3 63-29 60-74-43 2-92-5-92 41" id="bL"/><path fill="#3a414a" d="M210-169c-67 3-38 105-44 169h-31v-121c0-29-5-50-35-48C34-165 62-65 56 0H25l-1-190h30c1 10-1 24 2 32 10-44 99-50 107 0 11-21 27-35 58-36 85-2 47 119 55 194h-31v-121c0-29-5-49-35-48" id="bM"/><path fill="#3a414a" d="M100-194c63 0 86 42 84 106H49c0 40 14 67 53 68 26 1 43-12 49-29l28 8c-11 28-37 45-77 45C44 4 14-33 15-96c1-61 26-98 85-98zm52 81c6-60-76-77-97-28-3 7-6 17-6 28h103" id="bN"/><g id="Q"><use transform="matrix(0.06172839506172839,0,0,0.06172839506172839,0,0)" xlink:href="#bK"/><use transform="matrix(0.06172839506172839,0,0,0.06172839506172839,15.987654320987653,0)" xlink:href="#bL"/><use transform="matrix(0.06172839506172839,0,0,0.06172839506172839,28.333333333333332,0)" xlink:href="#bM"/><use transform="matrix(0.06172839506172839,0,0,0.06172839506172839,46.79012345679012,0)" xlink:href="#bN"/></g><path fill="#3a414a" d="M96-169c-40 0-48 33-48 73s9 75 48 75c24 0 41-14 43-38l32 2c-6 37-31 61-74 61-59 0-76-41-82-99-10-93 101-131 147-64 4 7 5 14 7 22l-32 3c-4-21-16-35-41-35" id="bO"/><path fill="#3a414a" d="M100-194c62-1 85 37 85 99 1 63-27 99-86 99S16-35 15-95c0-66 28-99 85-99zM99-20c44 1 53-31 53-75 0-43-8-75-51-75s-53 32-53 75 10 74 51 75" id="bP"/><path fill="#3a414a" d="M115-194c55 1 70 41 70 98S169 2 115 4C84 4 66-9 55-30l1 105H24l-1-265h31l2 30c10-21 28-34 59-34zm-8 174c40 0 45-34 45-75s-6-73-45-74c-42 0-51 32-51 76 0 43 10 73 51 73" id="bQ"/><path fill="#3a414a" d="M84 4C-5 8 30-112 23-190h32v120c0 31 7 50 39 49 72-2 45-101 50-169h31l1 190h-30c-1-10 1-25-2-33-11 22-28 36-60 37" id="bR"/><path fill="#3a414a" d="M59-47c-2 24 18 29 38 22v24C64 9 27 4 27-40v-127H5v-23h24l9-43h21v43h35v23H59v120" id="bS"/><path fill="#3a414a" d="M85-194c31 0 48 13 60 33l-1-100h32l1 261h-30c-2-10 0-23-3-31C134-8 116 4 85 4 32 4 16-35 15-94c0-66 23-100 70-100zm9 24c-40 0-46 34-46 75 0 40 6 74 45 74 42 0 51-32 51-76 0-42-9-74-50-73" id="bT"/><g id="R"><use transform="matrix(0.06172839506172839,0,0,0.06172839506172839,0,0)" xlink:href="#bO"/><use transform="matrix(0.06172839506172839,0,0,0.06172839506172839,11.11111111111111,0)" xlink:href="#bP"/><use transform="matrix(0.06172839506172839,0,0,0.06172839506172839,23.45679012345679,0)" xlink:href="#bM"/><use transform="matrix(0.06172839506172839,0,0,0.06172839506172839,41.91358024691358,0)" xlink:href="#bQ"/><use transform="matrix(0.06172839506172839,0,0,0.06172839506172839,54.25925925925926,0)" xlink:href="#bR"/><use transform="matrix(0.06172839506172839,0,0,0.06172839506172839,66.60493827160494,0)" xlink:href="#bS"/><use transform="matrix(0.06172839506172839,0,0,0.06172839506172839,72.77777777777777,0)" xlink:href="#bN"/><use transform="matrix(0.06172839506172839,0,0,0.06172839506172839,85.12345679012346,0)" xlink:href="#bT"/></g><path fill="#3a414a" d="M117-194c89-4 53 116 60 194h-32v-121c0-31-8-49-39-48C34-167 62-67 57 0H25l-1-190h30c1 10-1 24 2 32 11-22 29-35 61-36" id="bU"/><g id="S"><use transform="matrix(0.06172839506172839,0,0,0.06172839506172839,0,0)" xlink:href="#bL"/><use transform="matrix(0.06172839506172839,0,0,0.06172839506172839,12.345679012345679,0)" xlink:href="#bU"/><use transform="matrix(0.06172839506172839,0,0,0.06172839506172839,24.691358024691358,0)" xlink:href="#bT"/></g><path fill="#3a414a" d="M114-163C36-179 61-72 57 0H25l-1-190h30c1 12-1 29 2 39 6-27 23-49 58-41v29" id="bV"/><path fill="#3a414a" d="M135-143c-3-34-86-38-87 0 15 53 115 12 119 90S17 21 10-45l28-5c4 36 97 45 98 0-10-56-113-15-118-90-4-57 82-63 122-42 12 7 21 19 24 35" id="bW"/><g id="T"><use transform="matrix(0.06172839506172839,0,0,0.06172839506172839,0,0)" xlink:href="#bQ"/><use transform="matrix(0.06172839506172839,0,0,0.06172839506172839,12.345679012345679,0)" xlink:href="#bV"/><use transform="matrix(0.06172839506172839,0,0,0.06172839506172839,19.691358024691358,0)" xlink:href="#bN"/><use transform="matrix(0.06172839506172839,0,0,0.06172839506172839,32.03703703703704,0)" xlink:href="#bW"/><use transform="matrix(0.06172839506172839,0,0,0.06172839506172839,43.14814814814815,0)" xlink:href="#bN"/><use transform="matrix(0.06172839506172839,0,0,0.06172839506172839,55.49382716049383,0)" xlink:href="#bU"/><use transform="matrix(0.06172839506172839,0,0,0.06172839506172839,67.8395061728395,0)" xlink:href="#bS"/><use transform="matrix(0.06172839506172839,0,0,0.06172839506172839,74.01234567901234,0)" xlink:href="#bN"/><use transform="matrix(0.06172839506172839,0,0,0.06172839506172839,86.35802469135803,0)" xlink:href="#bT"/></g><path fill="#3a414a" d="M24-231v-30h32v30H24zM24 0v-190h32V0H24" id="bX"/><path fill="#3a414a" d="M177-190C167-65 218 103 67 71c-23-6-38-20-44-43l32-5c15 47 100 32 89-28v-30C133-14 115 1 83 1 29 1 15-40 15-95c0-56 16-97 71-98 29-1 48 16 59 35 1-10 0-23 2-32h30zM94-22c36 0 50-32 50-73 0-42-14-75-50-75-39 0-46 34-46 75s6 73 46 73" id="bY"/><g id="U"><use transform="matrix(0.06172839506172839,0,0,0.06172839506172839,0,0)" xlink:href="#bR"/><use transform="matrix(0.06172839506172839,0,0,0.06172839506172839,12.345679012345679,0)" xlink:href="#bW"/><use transform="matrix(0.06172839506172839,0,0,0.06172839506172839,23.45679012345679,0)" xlink:href="#bN"/><use transform="matrix(0.06172839506172839,0,0,0.06172839506172839,35.80246913580247,0)" xlink:href="#bX"/><use transform="matrix(0.06172839506172839,0,0,0.06172839506172839,40.67901234567901,0)" xlink:href="#bU"/><use transform="matrix(0.06172839506172839,0,0,0.06172839506172839,53.02469135802469,0)" xlink:href="#bY"/></g><use transform="matrix(0.06172839506172839,0,0,0.06172839506172839,0,0)" xlink:href="#bL" id="V"/><path fill="#3a414a" d="M24 0v-261h32V0H24" id="bZ"/><g id="W"><use transform="matrix(0.06172839506172839,0,0,0.06172839506172839,0,0)" xlink:href="#bS"/><use transform="matrix(0.06172839506172839,0,0,0.06172839506172839,6.172839506172839,0)" xlink:href="#bN"/><use transform="matrix(0.06172839506172839,0,0,0.06172839506172839,18.51851851851852,0)" xlink:href="#bM"/><use transform="matrix(0.06172839506172839,0,0,0.06172839506172839,36.9753086419753,0)" xlink:href="#bQ"/><use transform="matrix(0.06172839506172839,0,0,0.06172839506172839,49.32098765432098,0)" xlink:href="#bZ"/><use transform="matrix(0.06172839506172839,0,0,0.06172839506172839,54.197530864197525,0)" xlink:href="#bL"/><use transform="matrix(0.06172839506172839,0,0,0.06172839506172839,66.5432098765432,0)" xlink:href="#bS"/><use transform="matrix(0.06172839506172839,0,0,0.06172839506172839,72.71604938271604,0)" xlink:href="#bN"/></g><g id="X"><use transform="matrix(0.06172839506172839,0,0,0.06172839506172839,0,0)" xlink:href="#bX"/><use transform="matrix(0.06172839506172839,0,0,0.06172839506172839,4.876543209876543,0)" xlink:href="#bM"/><use transform="matrix(0.06172839506172839,0,0,0.06172839506172839,23.33333333333333,0)" xlink:href="#bQ"/><use transform="matrix(0.06172839506172839,0,0,0.06172839506172839,35.679012345679006,0)" xlink:href="#bZ"/><use transform="matrix(0.06172839506172839,0,0,0.06172839506172839,40.55555555555555,0)" xlink:href="#bN"/><use transform="matrix(0.06172839506172839,0,0,0.06172839506172839,52.90123456790123,0)" xlink:href="#bM"/><use transform="matrix(0.06172839506172839,0,0,0.06172839506172839,71.35802469135801,0)" xlink:href="#bN"/><use transform="matrix(0.06172839506172839,0,0,0.06172839506172839,83.7037037037037,0)" xlink:href="#bU"/><use transform="matrix(0.06172839506172839,0,0,0.06172839506172839,96.04938271604938,0)" xlink:href="#bS"/><use transform="matrix(0.06172839506172839,0,0,0.06172839506172839,102.22222222222221,0)" xlink:href="#bX"/><use transform="matrix(0.06172839506172839,0,0,0.06172839506172839,107.09876543209876,0)" xlink:href="#bU"/><use transform="matrix(0.06172839506172839,0,0,0.06172839506172839,119.44444444444444,0)" xlink:href="#bY"/></g><g id="Y"><use transform="matrix(0.06172839506172839,0,0,0.06172839506172839,0,0)" xlink:href="#bO"/><use transform="matrix(0.06172839506172839,0,0,0.06172839506172839,11.11111111111111,0)" xlink:href="#bP"/><use transform="matrix(0.06172839506172839,0,0,0.06172839506172839,23.45679012345679,0)" xlink:href="#bU"/><use transform="matrix(0.06172839506172839,0,0,0.06172839506172839,35.80246913580247,0)" xlink:href="#bS"/><use transform="matrix(0.06172839506172839,0,0,0.06172839506172839,41.97530864197531,0)" xlink:href="#bV"/><use transform="matrix(0.06172839506172839,0,0,0.06172839506172839,49.32098765432099,0)" xlink:href="#bL"/><use transform="matrix(0.06172839506172839,0,0,0.06172839506172839,61.666666666666664,0)" xlink:href="#bO"/><use transform="matrix(0.06172839506172839,0,0,0.06172839506172839,72.77777777777777,0)" xlink:href="#bS"/><use transform="matrix(0.06172839506172839,0,0,0.06172839506172839,78.9506172839506,0)" xlink:href="#bX"/><use transform="matrix(0.06172839506172839,0,0,0.06172839506172839,83.82716049382715,0)" xlink:href="#bP"/><use transform="matrix(0.06172839506172839,0,0,0.06172839506172839,96.17283950617283,0)" xlink:href="#bU"/><use transform="matrix(0.06172839506172839,0,0,0.06172839506172839,108.51851851851852,0)" xlink:href="#bW"/></g><path fill="#3a414a" d="M101-234c-31-9-42 10-38 44h38v23H63V0H32v-167H5v-23h27c-7-52 17-82 69-68v24" id="ca"/><g id="Z"><use transform="matrix(0.06172839506172839,0,0,0.06172839506172839,0,0)" xlink:href="#ca"/><use transform="matrix(0.06172839506172839,0,0,0.06172839506172839,6.172839506172839,0)" xlink:href="#bP"/><use transform="matrix(0.06172839506172839,0,0,0.06172839506172839,18.51851851851852,0)" xlink:href="#bV"/></g><path fill="#3a414a" d="M115-194c53 0 69 39 70 98 0 66-23 100-70 100C84 3 66-7 56-30L54 0H23l1-261h32v101c10-23 28-34 59-34zm-8 174c40 0 45-34 45-75 0-40-5-75-45-74-42 0-51 32-51 76 0 43 10 73 51 73" id="cb"/><path fill="#3a414a" d="M108 0H70L1-190h34L89-25l56-165h34" id="cc"/><path fill="#3a414a" d="M179-190L93 31C79 59 56 82 12 73V49c39 6 53-20 64-50L1-190h34L92-34l54-156h33" id="cd"/><g id="aa"><use transform="matrix(0.06172839506172839,0,0,0.06172839506172839,0,0)" xlink:href="#cb"/><use transform="matrix(0.06172839506172839,0,0,0.06172839506172839,12.345679012345679,0)" xlink:href="#bV"/><use transform="matrix(0.06172839506172839,0,0,0.06172839506172839,19.691358024691358,0)" xlink:href="#bN"/><use transform="matrix(0.06172839506172839,0,0,0.06172839506172839,32.03703703703704,0)" xlink:href="#cc"/><use transform="matrix(0.06172839506172839,0,0,0.06172839506172839,43.14814814814815,0)" xlink:href="#bX"/><use transform="matrix(0.06172839506172839,0,0,0.06172839506172839,48.0246913580247,0)" xlink:href="#bS"/><use transform="matrix(0.06172839506172839,0,0,0.06172839506172839,54.19753086419754,0)" xlink:href="#cd"/></g></defs></g></svg>