<svg xmlns="http://www.w3.org/2000/svg" xmlns:xlink="http://www.w3.org/1999/xlink" xmlns:lucid="lucid" width="1165.86" height="837.22"><g transform="translate(-384.80852759512754 -248.98413353284548)" lucid:page-tab-id="jai6X1WgdpHT"><path d="M0 0h2000v1500H0z" fill="#fff"/><path d="M608.05 329.48H566.3v-1h41.75zm86.28 0H653v-1h41.33z" stroke="#000" stroke-width=".05"/><path d="M566.32 329.48h-.5v-1h.5z"/><path d="M566.35 329.5h-.57v-1.04h.57zm-.52-1v.96h.47v-.95zM695.24 328.98L677.3 339.6l-.5-.87 16.48-9.75-16.5-9.75.52-.86z" stroke="#000" stroke-width=".05"/><use xlink:href="#a" transform="matrix(1,0,0,1,608.0498057382055,296.5841335328455) translate(16.005000000000003 14.4)"/><use xlink:href="#b" transform="matrix(1,0,0,1,608.0498057382055,296.5841335328455) translate(0.004999999999999005 36)"/><use xlink:href="#c" transform="matrix(1,0,0,1,608.0498057382055,296.5841335328455) translate(12.005 57.6)"/><path d="M404.8 273.98a5 5 0 0 1 5-5h150a5 5 0 0 1 5 5v110a5 5 0 0 1-5 5h-150a5 5 0 0 1-5-5z" stroke="#1071e5" stroke-width="2" fill="#fff"/><use xlink:href="#d" transform="matrix(1,0,0,1,416.80852759512754,280.9841335328455) translate(11.574999999999996 50.4)"/><use xlink:href="#e" transform="matrix(1,0,0,1,416.80852759512754,280.9841335328455) translate(59.525 50.4)"/><use xlink:href="#f" transform="matrix(1,0,0,1,416.80852759512754,280.9841335328455) translate(112.42500000000001 50.4)"/><path d="M696.24 273.98a5 5 0 0 1 5-5h150a5 5 0 0 1 5 5v110a5 5 0 0 1-5 5h-150a5 5 0 0 1-5-5z" stroke="#1071e5" stroke-width="2" fill="#fff"/><use xlink:href="#d" transform="matrix(1,0,0,1,708.2410838812837,280.9841335328455) translate(9.549999999999997 50.4)"/><use xlink:href="#g" transform="matrix(1,0,0,1,708.2410838812837,280.9841335328455) translate(57.5 50.4)"/><use xlink:href="#h" transform="matrix(1,0,0,1,708.2410838812837,280.9841335328455) translate(114.45 50.4)"/><path d="M776.74 544.82h-1v-66.17h1zm0-87.77h-1V390.5h1z" stroke="#000" stroke-width=".05"/><path d="M776.74 390.5h-1v-.52h1z"/><path d="M776.77 390.52h-1.05v-.56h1.05zm-1-.5v.45h.95V390zM786.85 527.78l-10.6 17.95-10.62-17.95.86-.5 9.74 16.48 9.75-16.5z" stroke="#000" stroke-width=".05"/><use xlink:href="#i" transform="matrix(1,0,0,1,743.7660838812836,457.05472450683766) translate(0.005000000000002558 14.4)"/><use xlink:href="#j" transform="matrix(1,0,0,1,743.7660838812836,457.05472450683766) translate(34.005 14.4)"/><path d="M1370.67 951.2a5 5 0 0 1 5-5h150a5 5 0 0 1 5 5v110a5 5 0 0 1-5 5h-150a5 5 0 0 1-5-5z" stroke="#000" stroke-width="2" fill="#ced4db"/><use xlink:href="#k" transform="matrix(1,0,0,1,1382.6666666666665,958.2066410189534) translate(28.549999999999997 50.4)"/><path d="M404.8 551.73a5 5 0 0 1 5-5h150a5 5 0 0 1 5 5v110a5 5 0 0 1-5 5h-150a5 5 0 0 1-5-5z" stroke="#1071e5" stroke-width="2" fill="#fff"/><use xlink:href="#l" transform="matrix(1,0,0,1,416.80852759512754,558.7253154808299) translate(7.850000000000001 41.4)"/><use xlink:href="#m" transform="matrix(1,0,0,1,416.80852759512754,558.7253154808299) translate(80.19999999999999 41.4)"/><use xlink:href="#n" transform="matrix(1,0,0,1,416.80852759512754,558.7253154808299) translate(41.325 63)"/><path d="M485.8 543.9h-2v-65.38h2zm0-86.7h-2v-66.22h2z" stroke="#1071e5" stroke-width=".05" fill="#1071e5"/><path d="M484.8 541.8l9.33-15.76 1.72 1-11.04 18.7-11.03-18.7 1.72-1z" stroke="#1071e5" stroke-width=".05" fill="#1071e5"/><path d="M485.8 391h-2V390h2z" fill="#1071e5"/><path d="M485.83 391.04h-2.05v-1.08h2.05zm-2-1.03v1h1.95v-1z" stroke="#1071e5" stroke-width=".05" fill="#1071e5"/><use xlink:href="#o" transform="matrix(1,0,0,1,392.0184041383374,457.188057840171) translate(0 14.222222222222223)"/><use xlink:href="#p" transform="matrix(1,0,0,1,392.0184041383374,457.188057840171) translate(33.580246913580254 14.222222222222223)"/><use xlink:href="#q" transform="matrix(1,0,0,1,392.0184041383374,457.188057840171) translate(141.1851851851852 14.222222222222223)"/><path d="M696.24 551.73a5 5 0 0 1 5-5h150a5 5 0 0 1 5 5v110a5 5 0 0 1-5 5h-150a5 5 0 0 1-5-5z" stroke="#1071e5" stroke-width="2" fill="#fff"/><use xlink:href="#d" transform="matrix(1,0,0,1,708.2410838812837,558.7253154808299) translate(9.074999999999996 50.4)"/><use xlink:href="#g" transform="matrix(1,0,0,1,708.2410838812837,558.7253154808299) translate(57.025 50.4)"/><use xlink:href="#r" transform="matrix(1,0,0,1,708.2410838812837,558.7253154808299) translate(113.975 50.4)"/><path d="M885.33 551.73a5 5 0 0 1 5-5h150a5 5 0 0 1 5 5v110a5 5 0 0 1-5 5h-150a5 5 0 0 1-5-5z" stroke="#1071e5" stroke-width="2" fill="#fff"/><use xlink:href="#d" transform="matrix(1,0,0,1,897.3333333333333,558.7253154808299) translate(13.049999999999997 50.4)"/><use xlink:href="#g" transform="matrix(1,0,0,1,897.3333333333333,558.7253154808299) translate(61 50.4)"/><use xlink:href="#s" transform="matrix(1,0,0,1,897.3333333333333,558.7253154808299) translate(117.95 50.4)"/><path d="M1074.43 551.73a5 5 0 0 1 5-5h150a5 5 0 0 1 5 5v110a5 5 0 0 1-5 5h-150a5 5 0 0 1-5-5z" stroke="#1071e5" stroke-width="2" fill="#fff"/><use xlink:href="#d" transform="matrix(1,0,0,1,1086.4255827853829,558.7253154808299) translate(11.049999999999997 50.4)"/><use xlink:href="#g" transform="matrix(1,0,0,1,1086.4255827853829,558.7253154808299) translate(59 50.4)"/><use xlink:href="#t" transform="matrix(1,0,0,1,1086.4255827853829,558.7253154808299) translate(115.95 50.4)"/><path d="M960.35 467.36l.84.06.83.2.8.33.74.45.65.56.56.66.46.74.33.8.2.83.06.83v72h-1v-71.96l-.05-.72-.17-.7-.26-.64-.37-.6-.46-.53-.52-.46-.6-.35-.66-.27-.68-.17-.73-.04H808.73v-1zm-183.6-10.3h-1v-66.58h1z" stroke="#000" stroke-width=".05"/><path d="M776.74 390.5h-1v-.52h1z"/><path d="M776.77 390.52h-1.05v-.56h1.05zm-1-.5v.45h.95V390zM975.95 527.78l-10.62 17.95-10.6-17.95.85-.5 9.75 16.48 9.75-16.5z" stroke="#000" stroke-width=".05"/><path d="M1149.44 467.36l.85.06.83.2.8.33.73.45.66.56.56.66.45.74.33.8.2.83.07.83v72h-1v-71.96l-.06-.72-.17-.7-.27-.64-.37-.6-.45-.53-.53-.46-.6-.35-.65-.27-.7-.17-.7-.04H808.7v-1zm-372.7-10.3h-1v-66.58h1z" stroke="#000" stroke-width=".05"/><path d="M776.74 390.5h-1v-.52h1z"/><path d="M776.77 390.52h-1.05v-.56h1.05zm-1-.5v.45h.95V390zM1165.04 527.78l-10.6 17.95-10.63-17.95.88-.5 9.75 16.48 9.75-16.5z" stroke="#000" stroke-width=".05"/><path d="M696.24 767.67a5 5 0 0 1 5-5h150a5 5 0 0 1 5 5v110a5 5 0 0 1-5 5h-150a5 5 0 0 1-5-5z" stroke="#1071e5" stroke-width="2" fill="#fff"/><use xlink:href="#u" transform="matrix(1,0,0,1,708.2410838812837,774.6666666666666) translate(36.025 50.4)"/><use xlink:href="#v" transform="matrix(1,0,0,1,708.2410838812837,774.6666666666666) translate(89.975 50.4)"/><path d="M885.33 767.67a5 5 0 0 1 5-5h150a5 5 0 0 1 5 5v110a5 5 0 0 1-5 5h-150a5 5 0 0 1-5-5z" stroke="#1071e5" stroke-width="2" fill="#fff"/><use xlink:href="#u" transform="matrix(1,0,0,1,897.3333333333333,774.6666666666666) translate(36.025 50.4)"/><use xlink:href="#w" transform="matrix(1,0,0,1,897.3333333333333,774.6666666666666) translate(89.975 50.4)"/><path d="M1074.43 767.67a5 5 0 0 1 5-5h150a5 5 0 0 1 5 5v110a5 5 0 0 1-5 5h-150a5 5 0 0 1-5-5z" stroke="#1071e5" stroke-width="2" fill="#fff"/><use xlink:href="#u" transform="matrix(1,0,0,1,1086.4255827853829,774.6666666666666) translate(36.025 50.4)"/><use xlink:href="#x" transform="matrix(1,0,0,1,1086.4255827853829,774.6666666666666) translate(89.975 50.4)"/><path d="M776.24 884.67v9.7m0 9.72v19.4m0 9.73v19.42m0 9.7v19.43m0 9.72v9.7l.06.8.2.75.3.73.4.67.5.6.6.5.67.4.73.3.76.2.78.06h9.78m9.77 0h19.55m9.77 0h19.56m9.78 0H879m9.8 0h19.54m9.78 0h19.55m9.78 0H967m9.78 0h19.55m9.78 0h19.56m9.78 0H1055m9.77 0h19.55m9.78 0h19.55m9.78 0h19.55m9.78 0h19.55m9.8 0h19.54m9.78 0h19.55m9.78 0h19.55m9.78 0h19.55m9.78 0h19.56m9.78 0h19.56m9.77 0h9.78" stroke="#1071e5" stroke-width="2" fill="none"/><path d="M777.24 884.7h-2v-1.03h2z" stroke="#1071e5" stroke-width=".05" fill="#1071e5"/><path d="M1350.5 1016.4l17.2-10.2-17.2-10.17M965.33 884.67v9.7m0 9.72v19.4m0 9.73v19.42m0 9.7v19.43m0 9.72v9.7l.06.8.18.75.3.73.4.67.52.6.6.5.66.4.73.3.75.2.78.06h10.2m10.2 0h20.37m10.2 0h20.38m10.2 0h20.38m10.2 0h20.38m10.2 0h20.38m10.2 0H1164m10.2 0h20.37m10.2 0h20.38m10.2 0h20.38m10.2 0h20.38m10.2 0h20.38m10.2 0h20.38m10.2 0h10.2" stroke="#1071e5" stroke-width="2" fill="none"/><path d="M966.33 884.7h-2v-1.03h2z" stroke="#1071e5" stroke-width=".05" fill="#1071e5"/><path d="M1350.5 1016.4l17.2-10.2-17.2-10.17M1154.43 884.67v9.7m0 9.72v19.4m0 9.73v19.42m0 9.7v19.43m0 9.72v9.7l.06.8.17.75.3.73.4.67.52.6.6.5.66.4.72.3.76.2.8.06h9.9m9.94 0h19.85m9.92 0h19.85m9.92 0h19.86m9.92 0h19.85m9.92 0h19.85m9.93 0H1348m9.92 0h9.93" stroke="#1071e5" stroke-width="2" fill="none"/><path d="M1155.43 884.7h-2v-1.03h2z" stroke="#1071e5" stroke-width=".05" fill="#1071e5"/><path d="M1350.5 1016.4l17.2-10.2-17.2-10.17" stroke="#1071e5" stroke-width="2" fill="none"/><path d="M1181.33 371.67a6 6 0 0 1 6-6H1426a6 6 0 0 1 6 6v78a6 6 0 0 1-6 6h-238.67a6 6 0 0 1-6-6z" fill="#fff" fill-opacity="0"/><path d="M1197.28 365.67h9.94m4.97 0h9.94m4.97 0h9.96m4.97 0h9.94m4.97 0h9.95m4.96 0h9.95m4.98 0h9.94m4.97 0h9.94m4.97 0h9.96m4.97 0h9.94m4.97 0h9.95m4.96 0h9.95m4.98 0h9.94m4.97 0h9.94m4.97 0h9.96m4.97 0h4.97l.94.07.9.22.88.36.8.5.72.6.6.72.5.8.37.87.23.93.07.94v5.2m0 5.2v10.4m0 5.2v10.4m0 5.2v10.4m0 5.2v10.4m0 5.2v5.2l-.07.94-.22.92-.35.87-.5.8-.6.7-.72.62-.8.5-.88.35-.9.22-.95.07h-4.97m-4.97 0h-9.95m-4.96 0h-9.95m-4.98 0h-9.94m-4.97 0h-9.94m-4.97 0h-9.96m-4.97 0h-9.94m-4.97 0h-9.95m-4.96 0h-9.95m-4.98 0h-9.94m-4.97 0h-9.94m-4.97 0h-9.96m-4.97 0h-9.94m-4.97 0h-9.95m-4.96 0h-9.95m-4.98 0h-9.94m-4.97 0h-4.97l-.93-.08-.92-.23-.87-.36-.8-.48-.7-.6-.62-.73-.5-.8-.35-.88-.22-.9-.07-.95v-5.2m0-5.2v-10.4m0-5.2v-10.4m0-5.2v-10.4m0-5.2v-10.4m0-5.2v-5.2l.08-.94.23-.92.36-.86.48-.8.6-.72.73-.6.8-.5.88-.36.9-.22.95-.07h4.98" stroke="#000" fill="none"/><use xlink:href="#y" transform="matrix(1,0,0,1,1186.3333333333335,370.6666666667055) translate(18.18518518518519 30.27777777777778)"/><use xlink:href="#z" transform="matrix(1,0,0,1,1186.3333333333335,370.6666666667055) translate(66.20987654320987 30.27777777777778)"/><use xlink:href="#A" transform="matrix(1,0,0,1,1186.3333333333335,370.6666666667055) translate(169.79012345679013 30.27777777777778)"/><use xlink:href="#B" transform="matrix(1,0,0,1,1186.3333333333335,370.6666666667055) translate(191.9506172839506 30.27777777777778)"/><use xlink:href="#C" transform="matrix(1,0,0,1,1186.3333333333335,370.6666666667055) translate(0.8086419753086602 56.94444444444445)"/><use xlink:href="#D" transform="matrix(1,0,0,1,1186.3333333333335,370.6666666667055) translate(61.240740740740755 56.94444444444445)"/><use xlink:href="#E" transform="matrix(1,0,0,1,1186.3333333333335,370.6666666667055) translate(85.93209876543212 56.94444444444445)"/><use xlink:href="#F" transform="matrix(1,0,0,1,1186.3333333333335,370.6666666667055) translate(163.64814814814815 56.94444444444445)"/><use xlink:href="#G" transform="matrix(1,0,0,1,1186.3333333333335,370.6666666667055) translate(188.33950617283952 56.94444444444445)"/><use xlink:href="#H" transform="matrix(1,0,0,1,1186.3333333333335,370.6666666667055) translate(206.85802469135803 56.94444444444445)"/><use xlink:href="#I" transform="matrix(1,0,0,1,1186.3333333333335,370.6666666667055) translate(227.84567901234567 56.94444444444445)"/><path d="M987.67 273.98a5 5 0 0 1 5-5h150a5 5 0 0 1 5 5v110a5 5 0 0 1-5 5h-150a5 5 0 0 1-5-5z" stroke="#1071e5" stroke-width="2" fill="#fff"/><g><use xlink:href="#u" transform="matrix(1,0,0,1,999.6736401674398,280.9841335328455) translate(36.025 50.4)"/><use xlink:href="#x" transform="matrix(1,0,0,1,999.6736401674398,280.9841335328455) translate(89.975 50.4)"/></g><path d="M877.68 329.48h-19.94v-1h19.94zm108.1 0h-34.13v-1h34.12z" stroke="#000" stroke-width=".05"/><path d="M857.75 329.48h-.5v-1h.5z"/><path d="M857.78 329.5h-.56v-1.04h.56zm-.5-1v.96h.45v-.95zM986.67 328.98l-17.94 10.62-.5-.87L984.7 329l-16.48-9.75.5-.86z" stroke="#000" stroke-width=".05"/><g><use xlink:href="#J" transform="matrix(1,0,0,1,877.679012345679,307.65080019951216) translate(22.671666666666667 14.222222222222223)"/><use xlink:href="#K" transform="matrix(1,0,0,1,877.679012345679,307.65080019951216) translate(0.005000000000002558 35.55555555555556)"/></g><path d="M965.83 760.76h-1v-30.02h1zm0-72.7h-1v-19.83h1z" stroke="#000" stroke-width=".05"/><path d="M965.83 668.24h-1v-.5h1z"/><path d="M965.86 668.26h-1.05v-.56h1.06zm-1-.5v.45h.95v-.45zM975.95 743.72l-10.62 17.95-10.6-17.95.85-.5 9.75 16.48 9.75-16.5z" stroke="#000" stroke-width=".05"/><g><use xlink:href="#J" transform="matrix(1,0,0,1,928.3456790123456,688.071114464493) translate(22.671666666666667 14.222222222222223)"/><use xlink:href="#K" transform="matrix(1,0,0,1,928.3456790123456,688.071114464493) translate(0.005000000000002558 35.55555555555556)"/></g><path d="M1154.93 760.76h-1v-30.02h1zm0-72.7h-1v-19.83h1z" stroke="#000" stroke-width=".05"/><path d="M1154.93 668.24h-1v-.5h1z"/><path d="M1154.95 668.26h-1.05v-.56h1.05zm-1-.5v.45h.95v-.45zM1165.04 743.72l-10.6 17.95-10.63-17.95.88-.5 9.75 16.48 9.75-16.5z" stroke="#000" stroke-width=".05"/><g><use xlink:href="#J" transform="matrix(1,0,0,1,1117.437928464395,688.071114464493) translate(22.671666666666667 14.222222222222223)"/><use xlink:href="#K" transform="matrix(1,0,0,1,1117.437928464395,688.071114464493) translate(0.005000000000002558 35.55555555555556)"/></g><path d="M776.74 760.76h-1v-30.02h1zm0-72.7h-1v-19.83h1z" stroke="#000" stroke-width=".05"/><path d="M776.74 668.24h-1v-.5h1z"/><path d="M776.77 668.26h-1.05v-.56h1.05zm-1-.5v.45h.95v-.45zM786.85 743.72l-10.6 17.95-10.62-17.95.86-.5 9.74 16.48 9.75-16.5z" stroke="#000" stroke-width=".05"/><g><use xlink:href="#J" transform="matrix(1,0,0,1,739.253429560296,688.071114464493) translate(22.671666666666667 14.222222222222223)"/><use xlink:href="#K" transform="matrix(1,0,0,1,739.253429560296,688.071114464493) translate(0.005000000000002558 35.55555555555556)"/></g><path d="M1451.67 943.4h-2v-10.17h2zm0-20.32h-2v-20.32h2zm0-30.48h-2v-20.3h2zm0-30.47h-2v-20.3h2zm0-30.47h-2v-20.3h2zm0-30.47h-2v-20.32h2zm0-30.48h-2v-20.3h2zm0-30.47h-2v-20.3h2zm0-30.47h-2v-20.3h2zm0-30.47h-2V659h2zm0-30.46h-2v-20.3h2zm0-30.47h-2v-20.3h2zm0-30.47h-2v-20.3h2zm0-30.47h-2v-20.3h2zm0-30.47h-2v-20.3h2zm0-30.47h-2v-20.32h2zm0-30.48h-2v-20.3h2zm0-30.47h-2v-20.3h2zm0-30.47h-2v-20.3h2zm0-30.47h-2v-20.3h2zm-5.06-46.55l.92.22.87.37.8.5.7.6.62.72.5.8.36.87.22.92.07.9v10.2h-2V334l-.06-.66-.13-.6-.24-.6-.33-.53-.4-.47-.48-.4-.54-.34-.58-.24-.6-.14-.67-.06h-9.83v-2h9.9zM1159.55 330h-9.87v-2h9.87zm29.6 0h-19.73v-2h19.74zm29.6 0H1199v-2h19.74zm29.6 0h-19.73v-2h19.74zm29.6 0h-19.74v-2h19.74zm29.6 0h-19.74v-2h19.74zm29.6 0h-19.74v-2h19.74zm29.6 0H1347v-2h19.73zm29.6 0h-19.74v-2h19.73zm29.6 0h-19.74v-2h19.73z" stroke="#1071e5" stroke-width=".05" fill="#1071e5"/><path d="M1149.7 329.98h-1.03v-2h1.03z" fill="#1071e5"/><path d="M1149.72 330h-1.07v-2.04h1.07zm-1.02-2v1.96h.97V328zM1450.67 941.28l9.32-15.76 1.7 1.02-11.03 18.67-11.05-18.66 1.73-1.02z" stroke="#1071e5" stroke-width=".05" fill="#1071e5"/><path d="M1180.5 383.78l-3.5-3.8m-3.5-3.8l-7-7.62m-3.5-3.8l-7-7.6m-3.5-3.8l-3.5-3.82" stroke="#3a414a" fill="none"/><path d="M1180.83 384.88l-.7-.77.7-.65zM1149.4 349.2l-.73.67v-1.44z" stroke="#3a414a" stroke-width=".05" fill="#3a414a"/><defs><path d="M24-231v-30h32v30H24zM24 0v-190h32V0H24" id="L"/><path d="M135-143c-3-34-86-38-87 0 15 53 115 12 119 90S17 21 10-45l28-5c4 36 97 45 98 0-10-56-113-15-118-90-4-57 82-63 122-42 12 7 21 19 24 35" id="M"/><g id="a"><use transform="matrix(0.05,0,0,0.05,0,0)" xlink:href="#L"/><use transform="matrix(0.05,0,0,0.05,3.95,0)" xlink:href="#M"/></g><path d="M117-194c89-4 53 116 60 194h-32v-121c0-31-8-49-39-48C34-167 62-67 57 0H25l-1-190h30c1 10-1 24 2 32 11-22 29-35 61-36" id="N"/><path d="M141-36C126-15 110 5 73 4 37 3 15-17 15-53c-1-64 63-63 125-63 3-35-9-54-41-54-24 1-41 7-42 31l-33-3c5-37 33-52 76-52 45 0 72 20 72 64v82c-1 20 7 32 28 27v20c-31 9-61-2-59-35zM48-53c0 20 12 33 32 33 41-3 63-29 60-74-43 2-92-5-92 41" id="O"/><path d="M210-169c-67 3-38 105-44 169h-31v-121c0-29-5-50-35-48C34-165 62-65 56 0H25l-1-190h30c1 10-1 24 2 32 10-44 99-50 107 0 11-21 27-35 58-36 85-2 47 119 55 194h-31v-121c0-29-5-49-35-48" id="P"/><path d="M100-194c63 0 86 42 84 106H49c0 40 14 67 53 68 26 1 43-12 49-29l28 8c-11 28-37 45-77 45C44 4 14-33 15-96c1-61 26-98 85-98zm52 81c6-60-76-77-97-28-3 7-6 17-6 28h103" id="Q"/><g id="b"><use transform="matrix(0.05,0,0,0.05,0,0)" xlink:href="#N"/><use transform="matrix(0.05,0,0,0.05,10,0)" xlink:href="#O"/><use transform="matrix(0.05,0,0,0.05,20,0)" xlink:href="#P"/><use transform="matrix(0.05,0,0,0.05,34.95,0)" xlink:href="#Q"/></g><path d="M101-234c-31-9-42 10-38 44h38v23H63V0H32v-167H5v-23h27c-7-52 17-82 69-68v24" id="R"/><path d="M100-194c62-1 85 37 85 99 1 63-27 99-86 99S16-35 15-95c0-66 28-99 85-99zM99-20c44 1 53-31 53-75 0-43-8-75-51-75s-53 32-53 75 10 74 51 75" id="S"/><path d="M114-163C36-179 61-72 57 0H25l-1-190h30c1 12-1 29 2 39 6-27 23-49 58-41v29" id="T"/><g id="c"><use transform="matrix(0.05,0,0,0.05,0,0)" xlink:href="#R"/><use transform="matrix(0.05,0,0,0.05,5,0)" xlink:href="#S"/><use transform="matrix(0.05,0,0,0.05,15,0)" xlink:href="#T"/></g><path fill="#1071e5" d="M233-177c-1 41-23 64-60 70L243 0h-38l-65-103H63V0H30v-248c88 3 205-21 203 71zM63-129c60-2 137 13 137-47 0-61-80-42-137-45v92" id="U"/><path fill="#1071e5" d="M100-194c62-1 85 37 85 99 1 63-27 99-86 99S16-35 15-95c0-66 28-99 85-99zM99-20c44 1 53-31 53-75 0-43-8-75-51-75s-53 32-53 75 10 74 51 75" id="V"/><path fill="#1071e5" d="M141-36C126-15 110 5 73 4 37 3 15-17 15-53c-1-64 63-63 125-63 3-35-9-54-41-54-24 1-41 7-42 31l-33-3c5-37 33-52 76-52 45 0 72 20 72 64v82c-1 20 7 32 28 27v20c-31 9-61-2-59-35zM48-53c0 20 12 33 32 33 41-3 63-29 60-74-43 2-92-5-92 41" id="W"/><path fill="#1071e5" d="M85-194c31 0 48 13 60 33l-1-100h32l1 261h-30c-2-10 0-23-3-31C134-8 116 4 85 4 32 4 16-35 15-94c0-66 23-100 70-100zm9 24c-40 0-46 34-46 75 0 40 6 74 45 74 42 0 51-32 51-76 0-42-9-74-50-73" id="X"/><g id="d"><use transform="matrix(0.05,0,0,0.05,0,0)" xlink:href="#U"/><use transform="matrix(0.05,0,0,0.05,12.950000000000001,0)" xlink:href="#V"/><use transform="matrix(0.05,0,0,0.05,22.950000000000003,0)" xlink:href="#W"/><use transform="matrix(0.05,0,0,0.05,32.95,0)" xlink:href="#X"/></g><path fill="#1071e5" d="M190 0L58-211 59 0H30v-248h39L202-35l-2-213h31V0h-41" id="Y"/><path fill="#1071e5" d="M210-169c-67 3-38 105-44 169h-31v-121c0-29-5-50-35-48C34-165 62-65 56 0H25l-1-190h30c1 10-1 24 2 32 10-44 99-50 107 0 11-21 27-35 58-36 85-2 47 119 55 194h-31v-121c0-29-5-49-35-48" id="Z"/><path fill="#1071e5" d="M100-194c63 0 86 42 84 106H49c0 40 14 67 53 68 26 1 43-12 49-29l28 8c-11 28-37 45-77 45C44 4 14-33 15-96c1-61 26-98 85-98zm52 81c6-60-76-77-97-28-3 7-6 17-6 28h103" id="aa"/><g id="e"><use transform="matrix(0.05,0,0,0.05,0,0)" xlink:href="#Y"/><use transform="matrix(0.05,0,0,0.05,12.950000000000001,0)" xlink:href="#W"/><use transform="matrix(0.05,0,0,0.05,22.950000000000003,0)" xlink:href="#Z"/><use transform="matrix(0.05,0,0,0.05,37.900000000000006,0)" xlink:href="#aa"/></g><path fill="#1071e5" d="M195 0l-74-108L45 0H8l94-129-87-119h37l69 98 67-98h37l-84 118L233 0h-38" id="ab"/><use transform="matrix(0.05,0,0,0.05,0,0)" xlink:href="#ab" id="f"/><path fill="#1071e5" d="M140-251c81 0 123 46 123 126C263-46 219 4 140 4 59 4 17-45 17-125s42-126 123-126zm0 227c63 0 89-41 89-101s-29-99-89-99c-61 0-89 39-89 99S79-25 140-24" id="ac"/><path fill="#1071e5" d="M115-194c53 0 69 39 70 98 0 66-23 100-70 100C84 3 66-7 56-30L54 0H23l1-261h32v101c10-23 28-34 59-34zm-8 174c40 0 45-34 45-75 0-40-5-75-45-74-42 0-51 32-51 76 0 43 10 73 51 73" id="ad"/><path fill="#1071e5" d="M24-231v-30h32v30H24zM-9 49c24 4 33-6 33-30v-209h32V24c2 40-23 58-65 49V49" id="ae"/><path fill="#1071e5" d="M96-169c-40 0-48 33-48 73s9 75 48 75c24 0 41-14 43-38l32 2c-6 37-31 61-74 61-59 0-76-41-82-99-10-93 101-131 147-64 4 7 5 14 7 22l-32 3c-4-21-16-35-41-35" id="af"/><path fill="#1071e5" d="M59-47c-2 24 18 29 38 22v24C64 9 27 4 27-40v-127H5v-23h24l9-43h21v43h35v23H59v120" id="ag"/><g id="g"><use transform="matrix(0.05,0,0,0.05,0,0)" xlink:href="#ac"/><use transform="matrix(0.05,0,0,0.05,14,0)" xlink:href="#ad"/><use transform="matrix(0.05,0,0,0.05,24,0)" xlink:href="#ae"/><use transform="matrix(0.05,0,0,0.05,27.950000000000003,0)" xlink:href="#aa"/><use transform="matrix(0.05,0,0,0.05,37.95,0)" xlink:href="#af"/><use transform="matrix(0.05,0,0,0.05,46.95,0)" xlink:href="#ag"/></g><path fill="#1071e5" d="M137-103V0h-34v-103L8-248h37l75 118 75-118h37" id="ah"/><use transform="matrix(0.05,0,0,0.05,0,0)" xlink:href="#ah" id="h"/><path d="M106-169C34-169 62-67 57 0H25v-261h32l-1 103c12-21 28-36 61-36 89 0 53 116 60 194h-32v-121c2-32-8-49-39-48" id="ai"/><g id="i"><use transform="matrix(0.05,0,0,0.05,0,0)" xlink:href="#ai"/><use transform="matrix(0.05,0,0,0.05,10,0)" xlink:href="#O"/><use transform="matrix(0.05,0,0,0.05,20,0)" xlink:href="#M"/></g><path d="M115-194c55 1 70 41 70 98S169 2 115 4C84 4 66-9 55-30l1 105H24l-1-265h31l2 30c10-21 28-34 59-34zm-8 174c40 0 45-34 45-75s-6-73-45-74c-42 0-51 32-51 76 0 43 10 73 51 73" id="aj"/><path d="M59-47c-2 24 18 29 38 22v24C64 9 27 4 27-40v-127H5v-23h24l9-43h21v43h35v23H59v120" id="ak"/><g id="j"><use transform="matrix(0.05,0,0,0.05,0,0)" xlink:href="#aj"/><use transform="matrix(0.05,0,0,0.05,10,0)" xlink:href="#O"/><use transform="matrix(0.05,0,0,0.05,20,0)" xlink:href="#T"/><use transform="matrix(0.05,0,0,0.05,25.950000000000003,0)" xlink:href="#ak"/></g><path d="M143 4C61 4 22-44 18-125c-5-107 100-154 193-111 17 8 29 25 37 43l-32 9c-13-25-37-40-76-40-61 0-88 39-88 99 0 61 29 100 91 101 35 0 62-11 79-27v-45h-74v-28h105v86C228-13 192 4 143 4" id="al"/><path d="M179-190L93 31C79 59 56 82 12 73V49c39 6 53-20 64-50L1-190h34L92-34l54-156h33" id="am"/><g id="k"><use transform="matrix(0.05,0,0,0.05,0,0)" xlink:href="#al"/><use transform="matrix(0.05,0,0,0.05,14,0)" xlink:href="#Q"/><use transform="matrix(0.05,0,0,0.05,24,0)" xlink:href="#S"/><use transform="matrix(0.05,0,0,0.05,34,0)" xlink:href="#P"/><use transform="matrix(0.05,0,0,0.05,48.95,0)" xlink:href="#Q"/><use transform="matrix(0.05,0,0,0.05,58.95,0)" xlink:href="#ak"/><use transform="matrix(0.05,0,0,0.05,63.95,0)" xlink:href="#T"/><use transform="matrix(0.05,0,0,0.05,69.9,0)" xlink:href="#am"/></g><path fill="#1071e5" d="M109-170H84l-4-78h32zm-65 0H19l-4-78h33" id="an"/><path fill="#1071e5" d="M84 4C-5 8 30-112 23-190h32v120c0 31 7 50 39 49 72-2 45-101 50-169h31l1 190h-30c-1-10 1-25-2-33-11 22-28 36-60 37" id="ao"/><path fill="#1071e5" d="M117-194c89-4 53 116 60 194h-32v-121c0-31-8-49-39-48C34-167 62-67 57 0H25l-1-190h30c1 10-1 24 2 32 11-22 29-35 61-36" id="ap"/><path fill="#1071e5" d="M106-169C34-169 62-67 57 0H25v-261h32l-1 103c12-21 28-36 61-36 89 0 53 116 60 194h-32v-121c2-32-8-49-39-48" id="aq"/><g id="l"><use transform="matrix(0.05,0,0,0.05,0,0)" xlink:href="#an"/><use transform="matrix(0.05,0,0,0.05,6.3500000000000005,0)" xlink:href="#ah"/><use transform="matrix(0.05,0,0,0.05,17.35,0)" xlink:href="#ao"/><use transform="matrix(0.05,0,0,0.05,27.35,0)" xlink:href="#ap"/><use transform="matrix(0.05,0,0,0.05,37.35,0)" xlink:href="#X"/><use transform="matrix(0.05,0,0,0.05,47.35,0)" xlink:href="#W"/><use transform="matrix(0.05,0,0,0.05,57.35,0)" xlink:href="#aq"/></g><path fill="#1071e5" d="M185-189c-5-48-123-54-124 2 14 75 158 14 163 119 3 78-121 87-175 55-17-10-28-26-33-46l33-7c5 56 141 63 141-1 0-78-155-14-162-118-5-82 145-84 179-34 5 7 8 16 11 25" id="ar"/><path fill="#1071e5" d="M114-163C36-179 61-72 57 0H25l-1-190h30c1 12-1 29 2 39 6-27 23-49 58-41v29" id="as"/><g id="m"><use transform="matrix(0.05,0,0,0.05,0,0)" xlink:href="#ar"/><use transform="matrix(0.05,0,0,0.05,12,0)" xlink:href="#ag"/><use transform="matrix(0.05,0,0,0.05,17,0)" xlink:href="#as"/><use transform="matrix(0.05,0,0,0.05,22.95,0)" xlink:href="#aa"/><use transform="matrix(0.05,0,0,0.05,32.95,0)" xlink:href="#aa"/><use transform="matrix(0.05,0,0,0.05,42.95,0)" xlink:href="#ag"/></g><g id="n"><use transform="matrix(0.05,0,0,0.05,0,0)" xlink:href="#ar"/><use transform="matrix(0.05,0,0,0.05,12,0)" xlink:href="#V"/><use transform="matrix(0.05,0,0,0.05,22,0)" xlink:href="#ao"/><use transform="matrix(0.05,0,0,0.05,32,0)" xlink:href="#ag"/><use transform="matrix(0.05,0,0,0.05,37,0)" xlink:href="#aq"/><use transform="matrix(0.05,0,0,0.05,47,0)" xlink:href="#an"/></g><path fill="#1071e5" d="M135-143c-3-34-86-38-87 0 15 53 115 12 119 90S17 21 10-45l28-5c4 36 97 45 98 0-10-56-113-15-118-90-4-57 82-63 122-42 12 7 21 19 24 35" id="at"/><g id="o"><use transform="matrix(0.04938271604938272,0,0,0.04938271604938272,0,0)" xlink:href="#aq"/><use transform="matrix(0.04938271604938272,0,0,0.04938271604938272,9.876543209876544,0)" xlink:href="#W"/><use transform="matrix(0.04938271604938272,0,0,0.04938271604938272,19.75308641975309,0)" xlink:href="#at"/></g><path fill="#1071e5" d="M115-194c55 1 70 41 70 98S169 2 115 4C84 4 66-9 55-30l1 105H24l-1-265h31l2 30c10-21 28-34 59-34zm-8 174c40 0 45-34 45-75s-6-73-45-74c-42 0-51 32-51 76 0 43 10 73 51 73" id="au"/><g id="p"><use transform="matrix(0.04938271604938272,0,0,0.04938271604938272,0,0)" xlink:href="#af"/><use transform="matrix(0.04938271604938272,0,0,0.04938271604938272,8.88888888888889,0)" xlink:href="#V"/><use transform="matrix(0.04938271604938272,0,0,0.04938271604938272,18.765432098765434,0)" xlink:href="#Z"/><use transform="matrix(0.04938271604938272,0,0,0.04938271604938272,33.53086419753087,0)" xlink:href="#au"/><use transform="matrix(0.04938271604938272,0,0,0.04938271604938272,43.40740740740741,0)" xlink:href="#V"/><use transform="matrix(0.04938271604938272,0,0,0.04938271604938272,53.283950617283956,0)" xlink:href="#ao"/><use transform="matrix(0.04938271604938272,0,0,0.04938271604938272,63.1604938271605,0)" xlink:href="#ap"/><use transform="matrix(0.04938271604938272,0,0,0.04938271604938272,73.03703703703704,0)" xlink:href="#X"/><use transform="matrix(0.04938271604938272,0,0,0.04938271604938272,82.91358024691358,0)" xlink:href="#aa"/><use transform="matrix(0.04938271604938272,0,0,0.04938271604938272,92.79012345679013,0)" xlink:href="#X"/></g><g id="q"><use transform="matrix(0.04938271604938272,0,0,0.04938271604938272,0,0)" xlink:href="#ap"/><use transform="matrix(0.04938271604938272,0,0,0.04938271604938272,9.876543209876544,0)" xlink:href="#W"/><use transform="matrix(0.04938271604938272,0,0,0.04938271604938272,19.75308641975309,0)" xlink:href="#Z"/><use transform="matrix(0.04938271604938272,0,0,0.04938271604938272,34.51851851851852,0)" xlink:href="#aa"/></g><path fill="#1071e5" d="M197 0v-115H63V0H30v-248h33v105h134v-105h34V0h-34" id="av"/><use transform="matrix(0.05,0,0,0.05,0,0)" xlink:href="#av" id="r"/><path fill="#1071e5" d="M33 0v-248h34V0H33" id="aw"/><use transform="matrix(0.05,0,0,0.05,0,0)" xlink:href="#aw" id="s"/><path fill="#1071e5" d="M153-248C145-148 188 4 80 4 36 3 13-21 6-62l32-5c4 25 16 42 43 43 27 0 39-20 39-49v-147H72v-28h81" id="ax"/><use transform="matrix(0.05,0,0,0.05,0,0)" xlink:href="#ax" id="t"/><path fill="#1071e5" d="M143 4C61 4 22-44 18-125c-5-107 100-154 193-111 17 8 29 25 37 43l-32 9c-13-25-37-40-76-40-61 0-88 39-88 99 0 61 29 100 91 101 35 0 62-11 79-27v-45h-74v-28h105v86C228-13 192 4 143 4" id="ay"/><g id="u"><use transform="matrix(0.05,0,0,0.05,0,0)" xlink:href="#ay"/><use transform="matrix(0.05,0,0,0.05,14,0)" xlink:href="#aa"/><use transform="matrix(0.05,0,0,0.05,24,0)" xlink:href="#V"/><use transform="matrix(0.05,0,0,0.05,34,0)" xlink:href="#Z"/></g><path fill="#1071e5" d="M27 0v-27h64v-190l-56 39v-29l58-41h29v221h61V0H27" id="az"/><use transform="matrix(0.05,0,0,0.05,0,0)" xlink:href="#az" id="v"/><path fill="#1071e5" d="M101-251c82-7 93 87 43 132L82-64C71-53 59-42 53-27h129V0H18c2-99 128-94 128-182 0-28-16-43-45-43s-46 15-49 41l-32-3c6-41 34-60 81-64" id="aA"/><use transform="matrix(0.05,0,0,0.05,0,0)" xlink:href="#aA" id="w"/><path fill="#1071e5" d="M126-127c33 6 58 20 58 59 0 88-139 92-164 29-3-8-5-16-6-25l32-3c6 27 21 44 54 44 32 0 52-15 52-46 0-38-36-46-79-43v-28c39 1 72-4 72-42 0-27-17-43-46-43-28 0-47 15-49 41l-32-3c6-42 35-63 81-64 48-1 79 21 79 65 0 36-21 52-52 59" id="aB"/><use transform="matrix(0.05,0,0,0.05,0,0)" xlink:href="#aB" id="x"/><path fill="#3a414a" d="M127-220V0H93v-220H8v-28h204v28h-85" id="aC"/><path fill="#3a414a" d="M106-169C34-169 62-67 57 0H25v-261h32l-1 103c12-21 28-36 61-36 89 0 53 116 60 194h-32v-121c2-32-8-49-39-48" id="aD"/><path fill="#3a414a" d="M24-231v-30h32v30H24zM24 0v-190h32V0H24" id="aE"/><path fill="#3a414a" d="M135-143c-3-34-86-38-87 0 15 53 115 12 119 90S17 21 10-45l28-5c4 36 97 45 98 0-10-56-113-15-118-90-4-57 82-63 122-42 12 7 21 19 24 35" id="aF"/><g id="y"><use transform="matrix(0.06172839506172839,0,0,0.06172839506172839,0,0)" xlink:href="#aC"/><use transform="matrix(0.06172839506172839,0,0,0.06172839506172839,13.518518518518517,0)" xlink:href="#aD"/><use transform="matrix(0.06172839506172839,0,0,0.06172839506172839,25.864197530864196,0)" xlink:href="#aE"/><use transform="matrix(0.06172839506172839,0,0,0.06172839506172839,30.74074074074074,0)" xlink:href="#aF"/></g><path fill="#3a414a" d="M143 4C61 4 22-44 18-125c-5-107 100-154 193-111 17 8 29 25 37 43l-32 9c-13-25-37-40-76-40-61 0-88 39-88 99 0 61 29 100 91 101 35 0 62-11 79-27v-45h-74v-28h105v86C228-13 192 4 143 4" id="aG"/><path fill="#3a414a" d="M100-194c63 0 86 42 84 106H49c0 40 14 67 53 68 26 1 43-12 49-29l28 8c-11 28-37 45-77 45C44 4 14-33 15-96c1-61 26-98 85-98zm52 81c6-60-76-77-97-28-3 7-6 17-6 28h103" id="aH"/><path fill="#3a414a" d="M100-194c62-1 85 37 85 99 1 63-27 99-86 99S16-35 15-95c0-66 28-99 85-99zM99-20c44 1 53-31 53-75 0-43-8-75-51-75s-53 32-53 75 10 74 51 75" id="aI"/><path fill="#3a414a" d="M210-169c-67 3-38 105-44 169h-31v-121c0-29-5-50-35-48C34-165 62-65 56 0H25l-1-190h30c1 10-1 24 2 32 10-44 99-50 107 0 11-21 27-35 58-36 85-2 47 119 55 194h-31v-121c0-29-5-49-35-48" id="aJ"/><path fill="#3a414a" d="M59-47c-2 24 18 29 38 22v24C64 9 27 4 27-40v-127H5v-23h24l9-43h21v43h35v23H59v120" id="aK"/><path fill="#3a414a" d="M114-163C36-179 61-72 57 0H25l-1-190h30c1 12-1 29 2 39 6-27 23-49 58-41v29" id="aL"/><path fill="#3a414a" d="M179-190L93 31C79 59 56 82 12 73V49c39 6 53-20 64-50L1-190h34L92-34l54-156h33" id="aM"/><g id="z"><use transform="matrix(0.06172839506172839,0,0,0.06172839506172839,0,0)" xlink:href="#aG"/><use transform="matrix(0.06172839506172839,0,0,0.06172839506172839,17.28395061728395,0)" xlink:href="#aH"/><use transform="matrix(0.06172839506172839,0,0,0.06172839506172839,29.629629629629626,0)" xlink:href="#aI"/><use transform="matrix(0.06172839506172839,0,0,0.06172839506172839,41.9753086419753,0)" xlink:href="#aJ"/><use transform="matrix(0.06172839506172839,0,0,0.06172839506172839,60.43209876543209,0)" xlink:href="#aH"/><use transform="matrix(0.06172839506172839,0,0,0.06172839506172839,72.77777777777777,0)" xlink:href="#aK"/><use transform="matrix(0.06172839506172839,0,0,0.06172839506172839,78.9506172839506,0)" xlink:href="#aL"/><use transform="matrix(0.06172839506172839,0,0,0.06172839506172839,86.29629629629629,0)" xlink:href="#aM"/></g><g id="A"><use transform="matrix(0.06172839506172839,0,0,0.06172839506172839,0,0)" xlink:href="#aE"/><use transform="matrix(0.06172839506172839,0,0,0.06172839506172839,4.876543209876543,0)" xlink:href="#aF"/></g><g id="B"><use transform="matrix(0.06172839506172839,0,0,0.06172839506172839,0,0)" xlink:href="#aK"/><use transform="matrix(0.06172839506172839,0,0,0.06172839506172839,6.172839506172839,0)" xlink:href="#aD"/><use transform="matrix(0.06172839506172839,0,0,0.06172839506172839,18.51851851851852,0)" xlink:href="#aH"/></g><path fill="#3a414a" d="M84 4C-5 8 30-112 23-190h32v120c0 31 7 50 39 49 72-2 45-101 50-169h31l1 190h-30c-1-10 1-25-2-33-11 22-28 36-60 37" id="aN"/><path fill="#3a414a" d="M117-194c89-4 53 116 60 194h-32v-121c0-31-8-49-39-48C34-167 62-67 57 0H25l-1-190h30c1 10-1 24 2 32 11-22 29-35 61-36" id="aO"/><g id="C"><use transform="matrix(0.06172839506172839,0,0,0.06172839506172839,0,0)" xlink:href="#aN"/><use transform="matrix(0.06172839506172839,0,0,0.06172839506172839,12.345679012345679,0)" xlink:href="#aO"/><use transform="matrix(0.06172839506172839,0,0,0.06172839506172839,24.691358024691358,0)" xlink:href="#aE"/><use transform="matrix(0.06172839506172839,0,0,0.06172839506172839,29.5679012345679,0)" xlink:href="#aI"/><use transform="matrix(0.06172839506172839,0,0,0.06172839506172839,41.913580246913575,0)" xlink:href="#aO"/></g><path fill="#3a414a" d="M101-234c-31-9-42 10-38 44h38v23H63V0H32v-167H5v-23h27c-7-52 17-82 69-68v24" id="aP"/><g id="D"><use transform="matrix(0.06172839506172839,0,0,0.06172839506172839,0,0)" xlink:href="#aI"/><use transform="matrix(0.06172839506172839,0,0,0.06172839506172839,12.345679012345679,0)" xlink:href="#aP"/></g><g id="E"><use transform="matrix(0.06172839506172839,0,0,0.06172839506172839,0,0)" xlink:href="#aG"/><use transform="matrix(0.06172839506172839,0,0,0.06172839506172839,17.28395061728395,0)" xlink:href="#aH"/><use transform="matrix(0.06172839506172839,0,0,0.06172839506172839,29.629629629629626,0)" xlink:href="#aI"/><use transform="matrix(0.06172839506172839,0,0,0.06172839506172839,41.9753086419753,0)" xlink:href="#aJ"/><use transform="matrix(0.06172839506172839,0,0,0.06172839506172839,60.43209876543209,0)" xlink:href="#aF"/></g><path fill="#3a414a" d="M27 0v-27h64v-190l-56 39v-29l58-41h29v221h61V0H27" id="aQ"/><path fill="#3a414a" d="M68-38c1 34 0 65-14 84H32c9-13 17-26 17-46H33v-38h35" id="aR"/><g id="F"><use transform="matrix(0.06172839506172839,0,0,0.06172839506172839,0,0)" xlink:href="#aQ"/><use transform="matrix(0.06172839506172839,0,0,0.06172839506172839,12.345679012345679,0)" xlink:href="#aR"/></g><path fill="#3a414a" d="M101-251c82-7 93 87 43 132L82-64C71-53 59-42 53-27h129V0H18c2-99 128-94 128-182 0-28-16-43-45-43s-46 15-49 41l-32-3c6-41 34-60 81-64" id="aS"/><use transform="matrix(0.06172839506172839,0,0,0.06172839506172839,0,0)" xlink:href="#aS" id="G"/><path fill="#3a414a" d="M234-2c-28 10-62 0-77-18C117 19 8 12 13-65c3-43 29-61 60-76-25-40-17-114 47-108 35 3 59 15 59 50 0 44-40 53-71 69 14 26 32 50 51 72 14-21 24-43 30-72l26 8c-9 33-21 57-38 82 13 13 33 22 57 15v23zM97-151c25-10 52-18 56-48-1-18-13-29-33-29-42 0-39 50-23 77zM42-66c-3 51 71 58 98 28-20-24-41-51-56-80-23 10-40 24-42 52" id="aT"/><use transform="matrix(0.06172839506172839,0,0,0.06172839506172839,0,0)" xlink:href="#aT" id="H"/><path fill="#3a414a" d="M126-127c33 6 58 20 58 59 0 88-139 92-164 29-3-8-5-16-6-25l32-3c6 27 21 44 54 44 32 0 52-15 52-46 0-38-36-46-79-43v-28c39 1 72-4 72-42 0-27-17-43-46-43-28 0-47 15-49 41l-32-3c6-42 35-63 81-64 48-1 79 21 79 65 0 36-21 52-52 59" id="aU"/><use transform="matrix(0.06172839506172839,0,0,0.06172839506172839,0,0)" xlink:href="#aU" id="I"/><g id="J"><use transform="matrix(0.04938271604938272,0,0,0.04938271604938272,0,0)" xlink:href="#ai"/><use transform="matrix(0.04938271604938272,0,0,0.04938271604938272,9.876543209876544,0)" xlink:href="#O"/><use transform="matrix(0.04938271604938272,0,0,0.04938271604938272,19.75308641975309,0)" xlink:href="#M"/></g><path d="M177-190C167-65 218 103 67 71c-23-6-38-20-44-43l32-5c15 47 100 32 89-28v-30C133-14 115 1 83 1 29 1 15-40 15-95c0-56 16-97 71-98 29-1 48 16 59 35 1-10 0-23 2-32h30zM94-22c36 0 50-32 50-73 0-42-14-75-50-75-39 0-46 34-46 75s6 73 46 73" id="aV"/><g id="K"><use transform="matrix(0.04938271604938272,0,0,0.04938271604938272,0,0)" xlink:href="#aV"/><use transform="matrix(0.04938271604938272,0,0,0.04938271604938272,9.876543209876544,0)" xlink:href="#Q"/><use transform="matrix(0.04938271604938272,0,0,0.04938271604938272,19.75308641975309,0)" xlink:href="#S"/><use transform="matrix(0.04938271604938272,0,0,0.04938271604938272,29.629629629629633,0)" xlink:href="#P"/><use transform="matrix(0.04938271604938272,0,0,0.04938271604938272,44.39506172839506,0)" xlink:href="#Q"/><use transform="matrix(0.04938271604938272,0,0,0.04938271604938272,54.27160493827161,0)" xlink:href="#ak"/><use transform="matrix(0.04938271604938272,0,0,0.04938271604938272,59.20987654320988,0)" xlink:href="#T"/><use transform="matrix(0.04938271604938272,0,0,0.04938271604938272,65.08641975308642,0)" xlink:href="#am"/></g></defs></g></svg>