<svg xmlns="http://www.w3.org/2000/svg" xmlns:xlink="http://www.w3.org/1999/xlink" xmlns:lucid="lucid" width="1505.81" height="1303.59"><g transform="translate(308.57978957255364 -20.428156841564117)" lucid:page-tab-id="EKjYHxht.uqs"><path d="M-500 0h2000v1500H-500z" fill="#fff"/><path d="M-288.58 114.1a6 6 0 0 1 6-6h152.44a6 6 0 0 1 6 6v97.86a6 6 0 0 1-6 6h-152.44a6 6 0 0 1-6-6z" stroke="#5e5e5e" stroke-width="3" fill="#fff"/><use xlink:href="#a" transform="matrix(1,0,0,1,-283.57978957255364,113.09976278220205) translate(18.333333333333336 55.27777777777778)"/><use xlink:href="#b" transform="matrix(1,0,0,1,-283.57978957255364,113.09976278220205) translate(77.53086419753086 55.27777777777778)"/><path d="M45.06 114.1a6 6 0 0 1 6-6H203.5a6 6 0 0 1 6 6v97.86a6 6 0 0 1-6 6H51.07a6 6 0 0 1-6-6z" stroke="#5e5e5e" stroke-width="3" fill="#fff"/><use xlink:href="#c" transform="matrix(1,0,0,1,50.06457174641781,113.09976278220205) translate(34.35185185185185 39.65277777777778)"/><use xlink:href="#d" transform="matrix(1,0,0,1,50.06457174641781,113.09976278220205) translate(48.48765432098766 66.31944444444446)"/><path d="M-87.86 164.03h-33.78v-2h33.78zm129.6 0H8.8v-2h32.95z" stroke="#5e5e5e" stroke-width=".05" fill="#5e5e5e"/><path d="M-121.6 164.03h-1.04v-2h1.03z" fill="#5e5e5e"/><path d="M-121.58 164.05h-1.08V162h1.08zm-1.03-2V164h.96v-1.95zM43.56 163.03L24.9 174.07l-1.02-1.72 15.76-9.32-15.76-9.32 1-1.7z" stroke="#5e5e5e" stroke-width=".05" fill="#5e5e5e"/><use xlink:href="#e" transform="matrix(1,0,0,1,-87.85637456738903,141.69425580913122) translate(0.005000000000002558 14.222222222222223)"/><use xlink:href="#f" transform="matrix(1,0,0,1,-87.85637456738903,141.69425580913122) translate(33.58524691358026 14.222222222222223)"/><use xlink:href="#g" transform="matrix(1,0,0,1,-87.85637456738903,141.69425580913122) translate(26.59759259259259 35.55555555555556)"/><path d="M561.9 114.1a6 6 0 0 1 6-6h152.43a6 6 0 0 1 6 6v97.86a6 6 0 0 1-6 6H567.9a6 6 0 0 1-6-6z" stroke="#5e5e5e" stroke-width="3" fill="#dfe3e8"/><use xlink:href="#h" transform="matrix(1,0,0,1,566.8900087277459,113.09976278220205) translate(53.48765432098766 39.65277777777778)"/><use xlink:href="#i" transform="matrix(1,0,0,1,566.8900087277459,113.09976278220205) translate(7.870370370370381 66.31944444444446)"/><path d="M354.3 62.8l-17.33 3.02-21.3 4.64-23.37 6.12-25.83 7.93-28.78 10.2-31.43 12.6-.75-1.85 31.46-12.63 28.86-10.2 25.9-7.97 23.46-6.14 21.38-4.64 17.73-3.1zm93.44-7.03l6.37.4 5.16.53 4.7.7 4.55.86 4.68 1.1 5 1.4 5.63 1.83 6.65 2.47 8.36 3.52 11.53 5.43 18.4 9.67 36.64 21.28-1 1.73-36.6-21.25-18.33-9.63-11.44-5.4-8.3-3.5-6.55-2.44-5.54-1.8-4.92-1.38-4.6-1.08-4.46-.85-4.6-.68-5.07-.54-6.27-.4-26.3-.07v-2z" stroke="#5e5e5e" stroke-width=".05" fill="#5e5e5e"/><path d="M206.22 107.13l-.4-.17-1.14-.27-1.1-.1h-.9l2.87-1.16z" fill="#5e5e5e"/><path d="M206.27 107.17l-.45-.18-1.14-.3-1.1-.08h-1.04l3.02-1.2zm-3.47-.6h.77l1.12.1 1.14.27.34.14-.65-1.6zM566.44 106.75l-21.7.17v-2l18.3-.14-8.95-15.97 1.74-.97z" stroke="#5e5e5e" stroke-width=".05" fill="#5e5e5e"/><use xlink:href="#e" transform="matrix(1,0,0,1,354.31311203361014,47.200470718326045) translate(0.005000000000002558 14.222222222222223)"/><use xlink:href="#j" transform="matrix(1,0,0,1,354.31311203361014,47.200470718326045) translate(33.58524691358026 14.222222222222223)"/><path d="M372.48 289.04a6 6 0 0 1 6-6h152.44a6 6 0 0 1 6 6v97.86a6 6 0 0 1-6 6H378.48a6 6 0 0 1-6-6z" stroke="#1071e5" stroke-width="2" fill="#fff"/><use xlink:href="#k" transform="matrix(1,0,0,1,377.47729017308194,288.0414653115611) translate(30 55.27777777777778)"/><path d="M372.48 578.33a6 6 0 0 1 6-6h152.44a6 6 0 0 1 6 6v97.85a6 6 0 0 1-6 6H378.48a6 6 0 0 1-6-6z" stroke="#1071e5" stroke-width="2" fill="#fff"/><use xlink:href="#l" transform="matrix(1,0,0,1,377.47729017308194,577.3280174756105) translate(40.55555555555556 55.27777777777778)"/><path d="M424.95 486.45l-.7 1.88-90.9-33.3h5.8zM280.9 433.7h-5.83l-63.97-23.4.7-1.9z" stroke="#5e5e5e" stroke-width=".05" fill="#5e5e5e"/><path d="M211.82 408.42l-.7 1.88-.6-.23v-2.13z" fill="#5e5e5e"/><path d="M211.85 408.4l-.7 1.93-.67-.24v-2.2zm-1.32 1.66l.58.2.68-1.82-1.25-.46zM426.3 488L405 491.97l-.36-1.96 18-3.34-11.6-14.17 1.55-1.27z" stroke="#5e5e5e" stroke-width=".05" fill="#5e5e5e"/><use xlink:href="#e" transform="matrix(1,0,0,1,273.5819446570164,433.7088449828008) translate(0.005000000000002558 14.222222222222223)"/><use xlink:href="#j" transform="matrix(1,0,0,1,273.5819446570164,433.7088449828008) translate(33.58524691358026 14.222222222222223)"/><path d="M928.67 526a6 6 0 0 1 6-6h152.44a6 6 0 0 1 6 6v28a6 6 0 0 1-6 6H934.68a6 6 0 0 1-6-6z" stroke="#1071e5" stroke-width="3" fill="#fff"/><use xlink:href="#m" transform="matrix(1,0,0,1,933.6697249561853,525.0133122418863) translate(21.60493827160493 19.71527777777778)"/><path d="M427.8 755.55a6 6 0 0 1 6-6h41.8a6 6 0 0 1 6 6v36a6 6 0 0 1-6 6h-41.8a6 6 0 0 1-6-6z" stroke="#1071e5" stroke-width="3" fill-opacity="0"/><use xlink:href="#n" transform="matrix(1,0,0,1,432.8106235064151,754.5478308916128) translate(12.74074074074074 22.52777777777778)"/><use xlink:href="#o" transform="matrix(1,0,0,1,432.8106235064151,754.5478308916128) translate(25.086419753086417 22.52777777777778)"/><path d="M424.82 772.1l-.53 1.94-83.66-22.64v-2.07zm-151.24-40.93v2.08l-62.37-16.88.54-1.93z" stroke="#5e5e5e" stroke-width=".05" fill="#5e5e5e"/><path d="M211.76 714.44l-.52 1.93-.73-.2v-2.07z" fill="#5e5e5e"/><path d="M211.8 714.42l-.55 1.98-.77-.2v-2.13zm-1.27 1.74l.7.18.5-1.88-1.2-.32zM426.3 773.55l-20.9 5.78-.53-1.93 17.65-4.88-12.78-13.1 1.43-1.4z" stroke="#5e5e5e" stroke-width=".05" fill="#5e5e5e"/><use xlink:href="#e" transform="matrix(1,0,0,1,273.5819446570164,730.619857465101) translate(0.005000000000002558 14.222222222222223)"/><use xlink:href="#j" transform="matrix(1,0,0,1,273.5819446570164,730.619857465101) translate(33.58524691358026 14.222222222222223)"/><path d="M-288.58 499.96a6 6 0 0 1 6-6h152.44a6 6 0 0 1 6 6v97.86a6 6 0 0 1-6 6h-152.44a6 6 0 0 1-6-6z" stroke="#1071e5" stroke-width="2" fill="#fff"/><use xlink:href="#p" transform="matrix(1,0,0,1,-283.57978957255364,498.9643185349691) translate(14.660493827160487 55.27777777777778)"/><path d="M-206.36 491.96v-3.98m0-7.96v-7.96m0-7.96v-7.96m0-7.96v-7.97m0-7.95v-7.96m0-7.97v-7.96m0-7.96v-7.95m0-7.97v-7.96m0-7.96v-7.96m0-7.96v-7.96m0-7.97v-7.95m0-7.96v-7.97m0-7.96v-7.96m0-7.95V281m0-7.98v-7.96m0-7.96v-7.96m0-7.96v-7.96m0-7.97v-3.98" stroke="#1071e5" stroke-width="2" fill="none"/><path d="M-205.36 492.96h-2v-1.02h2z" stroke="#1071e5" stroke-width=".05" fill="#1071e5"/><path d="M-196.18 238.63l-10.18-17.2-10.18 17.2" stroke="#1071e5" stroke-width="2" fill="none"/><path d="M-121.73 549.02l-1.28-1.54 56.4-47.2h3.12zM43.3 410.94l-55.78 46.68h-3.1l57.6-48.2z" stroke="#5e5e5e" stroke-width=".05" fill="#5e5e5e"/><path d="M-121.7 549l-1.44 1.2v-2.6l.15-.13z" fill="#5e5e5e"/><path d="M-121.67 549l-1.5 1.25v-2.67l.18-.15zm-1.44-1.4v2.54l1.36-1.14-1.25-1.5zM36.83 429.46l-1.88-.67 6.1-17.27-18.07 2.96-.32-1.98 21.4-3.5z" stroke="#5e5e5e" stroke-width=".05" fill="#5e5e5e"/><use xlink:href="#e" transform="matrix(1,0,0,1,-87.85637456738904,457.6173793298307) translate(0.005000000000002558 14.222222222222223)"/><use xlink:href="#f" transform="matrix(1,0,0,1,-87.85637456738904,457.6173793298307) translate(33.58524691358026 14.222222222222223)"/><use xlink:href="#g" transform="matrix(1,0,0,1,-87.85637456738904,457.6173793298307) translate(26.59759259259259 35.55555555555556)"/><path d="M43.48 713.15l-1.4 1.42-61.58-61.22h2.84zM-59.57 610.68h-2.84l-60.73-60.37 1.4-1.4z" stroke="#5e5e5e" stroke-width=".05" fill="#5e5e5e"/><path d="M-121.7 548.9l-1.4 1.42-.04-2.84z" fill="#5e5e5e"/><path d="M-121.67 548.9l-1.47 1.5-.02-2.98zm-1.42 1.36l1.36-1.35-1.37-1.36zM44.06 715.14l-21.02-5.33.5-1.93 17.74 4.5-4.6-17.72 1.93-.5z" stroke="#5e5e5e" stroke-width=".05" fill="#5e5e5e"/><use xlink:href="#e" transform="matrix(1,0,0,1,-87.85637456738904,610.682922120429) translate(0.005000000000002558 14.222222222222223)"/><use xlink:href="#f" transform="matrix(1,0,0,1,-87.85637456738904,610.682922120429) translate(33.58524691358026 14.222222222222223)"/><use xlink:href="#g" transform="matrix(1,0,0,1,-87.85637456738904,610.682922120429) translate(26.59759259259259 35.55555555555556)"/><path d="M815.7 447.6l-13.9 4.4-.6-1.9 14.5-4.58zm110.04-34.75l-33.1 10.46v-2.1l32.5-10.26z" stroke="#5e5e5e" stroke-width=".05" fill="#5e5e5e"/><path d="M801.84 452l-1.28.4v-2.1l.67-.22z" fill="#5e5e5e"/><path d="M801.87 452l-1.34.43v-2.15l.72-.23zm-1.3-1.68v2.04l1.23-.38-.58-1.87zM927.17 411.35L912.7 427.5l-1.5-1.33 12.22-13.64-17.83-4.14.44-1.96z" stroke="#5e5e5e" stroke-width=".05" fill="#5e5e5e"/><use xlink:href="#q" transform="matrix(1,0,0,1,815.6946805268113,413.0777468203112) translate(24.153148148148155 14.222222222222223)"/><use xlink:href="#r" transform="matrix(1,0,0,1,815.6946805268113,413.0777468203112) translate(0.005000000000002558 35.55555555555556)"/><path d="M928.67 397.35a6 6 0 0 1 6-6h152.44a6 6 0 0 1 6 6v28a6 6 0 0 1-6 6H934.68a6 6 0 0 1-6-6z" stroke="#1071e5" stroke-width="3" fill="#fff"/><use xlink:href="#s" transform="matrix(1,0,0,1,933.6697249561848,396.3466455752197) translate(20.771604938271594 19.71527777777778)"/><path d="M928.67 761a6 6 0 0 1 6-6h152.44a6 6 0 0 1 6 6v28a6 6 0 0 1-6 6H934.68a6 6 0 0 1-6-6z" stroke="#1071e5" stroke-width="3" fill="#fff"/><use xlink:href="#m" transform="matrix(1,0,0,1,933.6697249561856,760.0133122418863) translate(21.60493827160493 19.71527777777778)"/><path d="M484.08 487.87l257.9-36.27" stroke="#5e5e5e" stroke-width="2" fill="none"/><path d="M484.24 488.86l-1.15.16V487l.86-.12z" stroke="#5e5e5e" stroke-width=".05" fill="#5e5e5e"/><path d="M726.2 464.1l15.63-12.48-18.46-7.68" stroke="#5e5e5e" stroke-width="2" fill="none"/><path d="M454.7 461.5v-3.74m0-7.5v-3.75l.07-.93.22-.9.35-.88.5-.8.6-.73.72-.6.8-.5.88-.36.9-.2.95-.1h4.03m8.07 0h8.06m8.06 0H497m8.05 0h8.07m8.06 0h8.07m8.06 0h8.07m8.07 0h8.06m8.07 0h8.06m8.07 0h8.06m8.06 0h8.07m8.05 0h8.07m8.06 0h4.03l.95-.06.92-.22.87-.36.8-.5.72-.6.6-.72.5-.8.36-.87.22-.92.07-.94v-4.1m0-8.2V414m0-8.2v-8.2m0-8.2v-8.2m0-8.2v-8.2m0-8.2v-8.2m0-8.2V332m0-8.2v-8.2m0-8.2v-8.2m0-8.2v-8.2m0-8.22v-8.2m0-8.2v-8.2m0-8.2v-8.2m0-8.2v-4.1" stroke="#1071e5" stroke-width="2" fill="none"/><path d="M455.7 462.5h-2v-1h2z" stroke="#1071e5" stroke-width=".05" fill="#1071e5"/><path d="M654.3 238.63l-10.2-17.2-10.17 17.2" stroke="#1071e5" stroke-width="2" fill="none"/><path d="M242.67 394.82h2.46l-33.3 14.7-.8-1.83 31.64-13.98zm127.55-55.2l-30.9 13.64v-1.1h-2.46l32.55-14.37z" stroke="#5e5e5e" stroke-width=".05" fill="#5e5e5e"/><path d="M211.85 409.5l-1.34.6v-2.18l.54-.24z" fill="#5e5e5e"/><path d="M211.88 409.52l-1.4.62v-2.24l.58-.25zm-1.35-1.6v2.14l1.3-.56-.8-1.8zM371.48 337.97l-12.63 17.64-1.62-1.16 10.65-14.88-18.18-2.17.24-2z" stroke="#5e5e5e" stroke-width=".05" fill="#5e5e5e"/><use xlink:href="#e" transform="matrix(1,0,0,1,242.67216530542876,352.1559527181267) translate(0.005000000000002558 14.222222222222223)"/><use xlink:href="#f" transform="matrix(1,0,0,1,242.67216530542876,352.1559527181267) translate(33.58524691358026 14.222222222222223)"/><use xlink:href="#t" transform="matrix(1,0,0,1,242.67216530542876,352.1559527181267) translate(7.338333333333331 35.55555555555556)"/><use xlink:href="#u" transform="matrix(1,0,0,1,242.67216530542876,352.1559527181267) translate(55.7333950617284 35.55555555555556)"/><path d="M45.06 360.08a6 6 0 0 1 6-6H203.5a6 6 0 0 1 6 6v97.86a6 6 0 0 1-6 6H51.07a6 6 0 0 1-6-6z" stroke="#1071e5" stroke-width="2" fill="#fff"/><use xlink:href="#v" transform="matrix(1,0,0,1,50.06457174641781,359.08145407083396) translate(39.2283950617284 55.27777777777778)"/><use xlink:href="#w" transform="matrix(1,0,0,1,50.06457174641781,359.08145407083396) translate(103.42592592592592 55.27777777777778)"/><path d="M45.06 666.2a6 6 0 0 1 6-6H203.5a6 6 0 0 1 6 6v97.87a6 6 0 0 1-6 6H51.07a6 6 0 0 1-6-6z" stroke="#1071e5" stroke-width="2" fill="#fff"/><use xlink:href="#v" transform="matrix(1,0,0,1,50.06457174641781,665.2125396520305) translate(39.2283950617284 55.27777777777778)"/><use xlink:href="#x" transform="matrix(1,0,0,1,50.06457174641781,665.2125396520305) translate(103.42592592592592 55.27777777777778)"/><path d="M211.86 711.27l-.92-1.77 36.8-19.12h4.34zm158.46-82.3l-36.08 18.75h-4.34l39.5-20.5z" stroke="#5e5e5e" stroke-width=".05" fill="#5e5e5e"/><path d="M211.88 711.26l-1.37.7v-2.24l.46-.23z" fill="#5e5e5e"/><path d="M211.9 711.27l-1.42.75v-2.3l.5-.27zm-1.37-1.53v2.2l1.32-.7-.9-1.72zM371.48 627.26L360 645.66l-1.7-1.06 9.7-15.53-18.3-1 .12-2z" stroke="#5e5e5e" stroke-width=".05" fill="#5e5e5e"/><use xlink:href="#e" transform="matrix(1,0,0,1,242.67216311183554,647.7182166259989) translate(0.005000000000002558 14.222222222222223)"/><use xlink:href="#f" transform="matrix(1,0,0,1,242.67216311183554,647.7182166259989) translate(33.58524691358026 14.222222222222223)"/><use xlink:href="#t" transform="matrix(1,0,0,1,242.67216311183554,647.7182166259989) translate(7.338333333333331 35.55555555555556)"/><use xlink:href="#u" transform="matrix(1,0,0,1,242.67216311183554,647.7182166259989) translate(55.7333950617284 35.55555555555556)"/><path d="M127.3 352.08v-4.1m0-8.16v-8.18m0-8.17v-8.18m0-8.18v-8.18m0-8.18v-8.17m0-8.2v-8.16m0-8.18v-8.17m0-8.2v-8.16m0-8.18v-4.1" stroke="#1071e5" stroke-width="2" fill="none"/><path d="M128.3 353.08h-2v-1.02h2z" stroke="#1071e5" stroke-width=".05" fill="#1071e5"/><path d="M137.47 238.63l-10.18-17.2-10.2 17.2" stroke="#1071e5" stroke-width="2" fill="none"/><path d="M372.48 114.1a6 6 0 0 1 6-6h152.44a6 6 0 0 1 6 6v97.86a6 6 0 0 1-6 6H378.48a6 6 0 0 1-6-6z" stroke="#5e5e5e" stroke-width="3" fill="#fff"/><use xlink:href="#c" transform="matrix(1,0,0,1,377.47729017308194,113.09976278220205) translate(34.35185185185185 39.65277777777778)"/><use xlink:href="#y" transform="matrix(1,0,0,1,377.47729017308194,113.09976278220205) translate(21.358024691358032 66.31944444444446)"/><use xlink:href="#z" transform="matrix(1,0,0,1,377.47729017308194,113.09976278220205) translate(85.55555555555554 66.31944444444446)"/><path d="M454.7 281.04v-3.73m0-7.47v-7.47m0-7.47v-7.48m0-7.47v-7.47m0-7.47v-3.73" stroke="#1071e5" stroke-width="2" fill="none"/><path d="M455.7 282.04h-2v-1.02h2z" stroke="#1071e5" stroke-width=".05" fill="#1071e5"/><path d="M464.88 238.63l-10.18-17.2-10.18 17.2" stroke="#1071e5" stroke-width="2" fill="none"/><path d="M232.35 164.03H212v-2h20.35zm136.8 0H329v-2h40.16z" stroke="#5e5e5e" stroke-width=".05" fill="#5e5e5e"/><path d="M212.03 164.03H211v-2h1.03z" fill="#5e5e5e"/><path d="M212.06 164.05h-1.08V162h1.08zm-1.03-2V164h.98v-1.95zM370.98 163.03l-18.67 11.04-1-1.72 15.75-9.32-15.76-9.32 1-1.7z" stroke="#5e5e5e" stroke-width=".05" fill="#5e5e5e"/><use xlink:href="#e" transform="matrix(1,0,0,1,232.34864372824254,141.69425580913122) translate(0.005000000000002558 14.222222222222223)"/><use xlink:href="#f" transform="matrix(1,0,0,1,232.34864372824254,141.69425580913122) translate(33.58524691358026 14.222222222222223)"/><use xlink:href="#t" transform="matrix(1,0,0,1,232.34864372824254,141.69425580913122) translate(7.338333333333331 35.55555555555556)"/><use xlink:href="#u" transform="matrix(1,0,0,1,232.34864372824254,141.69425580913122) translate(55.7333950617284 35.55555555555556)"/><path d="M427.8 470a6 6 0 0 1 6-6h41.8a6 6 0 0 1 6 6v36a6 6 0 0 1-6 6h-41.8a6 6 0 0 1-6-6z" stroke="#1071e5" stroke-width="3" fill-opacity="0"/><use xlink:href="#n" transform="matrix(1,0,0,1,432.81062350641514,469.01331224188624) translate(12.74074074074074 22.52777777777778)"/><use xlink:href="#o" transform="matrix(1,0,0,1,432.81062350641514,469.01331224188624) translate(25.086419753086417 22.52777777777778)"/><path d="M745.28 433.35a6 6 0 0 1 6-6h41.78a6 6 0 0 1 6 6v36a6 6 0 0 1-6 6h-41.78a6 6 0 0 1-6-6z" stroke="#1071e5" stroke-width="3" fill-opacity="0"/><use xlink:href="#n" transform="matrix(1,0,0,1,750.2798668419655,432.3466455752197) translate(12.74074074074074 22.52777777777778)"/><use xlink:href="#o" transform="matrix(1,0,0,1,750.2798668419655,432.3466455752197) translate(25.086419753086417 22.52777777777778)"/><path d="M484.07 488.2L742 535.67" stroke="#5e5e5e" stroke-width="2" fill="none"/><path d="M484.28 487.22l-.36 1.96-.83-.15V487z" stroke="#5e5e5e" stroke-width=".05" fill="#5e5e5e"/><path d="M723.07 542.55l18.78-6.9-15.1-13.12" stroke="#5e5e5e" stroke-width="2" fill="none"/><path d="M745.28 518a6 6 0 0 1 6-6h41.78a6 6 0 0 1 6 6v36a6 6 0 0 1-6 6h-41.78a6 6 0 0 1-6-6z" stroke="#1071e5" stroke-width="3" fill-opacity="0"/><use xlink:href="#n" transform="matrix(1,0,0,1,750.2798668419657,517.0133122418863) translate(12.74074074074074 22.52777777777778)"/><use xlink:href="#o" transform="matrix(1,0,0,1,750.2798668419657,517.0133122418863) translate(25.086419753086417 22.52777777777778)"/><path d="M832.26 541.02h-30.7v-2h30.7zm93.1 0h-29.9v-2h29.9z" stroke="#5e5e5e" stroke-width=".05" fill="#5e5e5e"/><path d="M801.58 541.02h-1.02v-2h1.02z" fill="#5e5e5e"/><path d="M801.6 541.04h-1.07V539h1.08zm-1.02-2V541h.98v-1.96zM927.17 540l-18.67 11.06-1.02-1.73 15.76-9.32-15.76-9.3 1.02-1.73z" stroke="#5e5e5e" stroke-width=".05" fill="#5e5e5e"/><use xlink:href="#e" transform="matrix(1,0,0,1,832.2587521885067,529.3486192529161) translate(0.004999999999999005 14.222222222222223)"/><use xlink:href="#A" transform="matrix(1,0,0,1,832.2587521885067,529.3486192529161) translate(33.58524691358025 14.222222222222223)"/><path d="M484.1 773.55L741.95 775" stroke="#5e5e5e" stroke-width="2" fill="none"/><path d="M484.12 772.55v2h-1.03v-2z" stroke="#5e5e5e" stroke-width=".05" fill="#5e5e5e"/><path d="M724.54 785.1l17.28-10.1-17.16-10.27" stroke="#5e5e5e" stroke-width="2" fill="none"/><path d="M745.28 757a6 6 0 0 1 6-6h41.78a6 6 0 0 1 6 6v36a6 6 0 0 1-6 6h-41.78a6 6 0 0 1-6-6z" stroke="#1071e5" stroke-width="3" fill-opacity="0"/><use xlink:href="#n" transform="matrix(1,0,0,1,750.2798668419655,756.0133122418863) translate(12.74074074074074 22.52777777777778)"/><use xlink:href="#o" transform="matrix(1,0,0,1,750.2798668419655,756.0133122418863) translate(25.086419753086417 22.52777777777778)"/><path d="M818.8 776h-17.24v-2h17.24zm106.55 0h-29.6v-2h29.6z" stroke="#5e5e5e" stroke-width=".05" fill="#5e5e5e"/><path d="M801.58 776h-1.02v-2h1.02z" fill="#5e5e5e"/><path d="M801.6 776.04h-1.07V774h1.08zm-1.02-2V776h.98v-1.96zM927.17 775l-18.67 11.05-1.02-1.72 15.76-9.32-15.76-9.3 1.02-1.73z" stroke="#5e5e5e" stroke-width=".05" fill="#5e5e5e"/><use xlink:href="#q" transform="matrix(1,0,0,1,818.7997310724577,753.6799789085529) translate(24.153148148148155 14.222222222222223)"/><use xlink:href="#r" transform="matrix(1,0,0,1,818.7997310724577,753.6799789085529) translate(0.005000000000002558 35.55555555555556)"/><path d="M745.28 114.1a6 6 0 0 1 6-6h152.44a6 6 0 0 1 6 6v97.86a6 6 0 0 1-6 6H751.28a6 6 0 0 1-6-6z" stroke="#5e5e5e" stroke-width="3" fill="#dfe3e8"/><use xlink:href="#h" transform="matrix(1,0,0,1,750.2798668419655,113.09976278220205) translate(53.48765432098766 39.65277777777778)"/><use xlink:href="#B" transform="matrix(1,0,0,1,750.2798668419655,113.09976278220205) translate(44.16666666666667 66.31944444444446)"/><path d="M774.44 421.22l-1.05 3.92-1.94-.52 1.05-3.92zm4.2-15.66l-2.1 7.83-1.93-.53 2.1-7.83zm4.2-15.67l-2.1 7.82-1.93-.52 2.1-7.83zm4.2-15.68l-2.1 7.84-1.93-.52 2.1-7.84zm4.2-15.66l-2.1 7.83-1.93-.53 2.1-7.83zm4.2-15.67l-2.1 7.82-1.93-.52 2.1-7.83zm4.2-15.68l-2.1 7.83-1.93-.5 2.1-7.85zm4.2-15.67l-2.1 7.84-1.93-.53 2.1-7.83zm4.2-15.66l-2.1 7.82-1.93-.52 2.1-7.83zm4.2-15.68l-2.1 7.83-1.93-.5 2.1-7.85zm4.2-15.67l-2.1 7.84-1.93-.53 2.12-7.83zm4.2-15.66l-2.1 7.82-1.92-.52 2.1-7.83zm4.2-15.68l-2.1 7.83-1.92-.5 2.1-7.85zm3.16-11.75l-1.05 3.92-1.94-.53 1.07-3.92z" stroke="#1071e5" stroke-width=".05" fill="#1071e5"/><path d="M773.4 425.1l-.2.75h-2.07l.34-1.25z" fill="#1071e5"/><path d="M773.43 425.1l-.2.77h-2.13l.35-1.3zm-2.26.72h2l.2-.7-1.88-.5zM833.33 240.35l-1.92.54-4.9-17.65-13.1 12.8-1.4-1.42 15.5-15.17z" stroke="#1071e5" stroke-width=".05" fill="#1071e5"/><path d="M928.67 114.1a6 6 0 0 1 6-6h152.44a6 6 0 0 1 6 6v97.86a6 6 0 0 1-6 6H934.68a6 6 0 0 1-6-6z" stroke="#5e5e5e" stroke-width="3" fill="#fff"/><use xlink:href="#C" transform="matrix(1,0,0,1,933.6697249561853,113.09976278220205) translate(57.12962962962963 39.65277777777778)"/><use xlink:href="#D" transform="matrix(1,0,0,1,933.6697249561853,113.09976278220205) translate(54.074074074074076 66.31944444444446)"/><path d="M1010.9 388.85v-4.2m0-8.43v-8.42m0-8.42v-8.42m0-8.42v-8.42m0-8.42v-8.42m0-8.42V300.48m0-8.34v-8.33m0-8.33v-8.34m0-8.34v-8.34m0-8.34v-8.34m0-8.34v-4.16" stroke="#1071e5" stroke-width="2" fill="none"/><path d="M1011.9 389.85h-2v-1.03h2z" stroke="#1071e5" stroke-width=".05" fill="#1071e5"/><path d="M1021.07 238.64l-10.18-17.22-10.2 17.22" stroke="#1071e5" stroke-width="2" fill="none"/><path d="M-288.58 46.43a6 6 0 0 1 6-6h29.5a6 6 0 0 1 6 6V89a6 6 0 0 1-6 6h-29.5a6 6 0 0 1-6-6z" stroke="#000" stroke-opacity="0" fill="#fff" fill-opacity="0"/><use xlink:href="#E" transform="matrix(1,0,0,1,-283.57978957255364,45.42815684156412) translate(4.333333333333334 26.21527777777778)"/><path d="M-288.58 748.96a6 6 0 0 1 6-6h29.5a6 6 0 0 1 6 6v42.6a6 6 0 0 1-6 6h-29.5a6 6 0 0 1-6-6z" stroke="#000" stroke-opacity="0" fill="#fff" fill-opacity="0"/><use xlink:href="#F" transform="matrix(1,0,0,1,-283.57978957255364,747.9615593668638) translate(4.333333333333334 26.21527777777778)"/><path d="M-288.58 887.18a6 6 0 0 1 6-6h152.44a6 6 0 0 1 6 6v97.85a6 6 0 0 1-6 6h-152.44a6 6 0 0 1-6-6z" stroke="#5e5e5e" stroke-width="3" fill="#fff"/><use xlink:href="#a" transform="matrix(1,0,0,1,-283.57978957255295,886.178779042717) translate(18.333333333333336 55.27777777777778)"/><use xlink:href="#b" transform="matrix(1,0,0,1,-283.57978957255295,886.178779042717) translate(77.53086419753086 55.27777777777778)"/><path d="M116.15 887.18a6 6 0 0 1 6-6H274.6a6 6 0 0 1 6 6v97.85a6 6 0 0 1-6 6H122.14a6 6 0 0 1-6-6z" stroke="#5e5e5e" stroke-width="3" fill="#fff"/><use xlink:href="#G" transform="matrix(1,0,0,1,121.1487510851619,886.178779042717) translate(23.240740740740733 39.65277777777778)"/><use xlink:href="#b" transform="matrix(1,0,0,1,121.1487510851619,886.178779042717) translate(47.9320987654321 66.31944444444446)"/><path d="M-288.58 1155.44a6 6 0 0 1 6-6h152.44a6 6 0 0 1 6 6v97.86a6 6 0 0 1-6 6h-152.44a6 6 0 0 1-6-6z" stroke="#1071e5" stroke-width="2" fill="#fff"/><use xlink:href="#H" transform="matrix(1,0,0,1,-283.57978957255364,1154.4422940610448) translate(19.012345679012334 55.27777777777778)"/><path d="M-206.36 1147.44v-3.85m0-7.7v-7.7m0-7.7v-7.7m0-7.68v-7.7m0-7.7v-7.7m0-7.68v-7.67m0-7.6v-7.63m0-7.6v-7.62m0-7.62v-7.6m0-7.6v-7.63m0-7.6v-3.82" stroke="#1071e5" stroke-width="2" fill="none"/><path d="M-205.36 1148.44h-2v-1.02h2z" stroke="#1071e5" stroke-width=".05" fill="#1071e5"/><path d="M-196.18 1011.7l-10.18-17.2-10.18 17.22" stroke="#1071e5" stroke-width="2" fill="none"/><path d="M116.15 1155.44a6 6 0 0 1 6-6H274.6a6 6 0 0 1 6 6v97.86a6 6 0 0 1-6 6H122.14a6 6 0 0 1-6-6z" stroke="#1071e5" stroke-width="2" fill="#fff"/><use xlink:href="#I" transform="matrix(1,0,0,1,121.14875108516117,1154.4422940610448) translate(7.191358024691354 39.65277777777778)"/><use xlink:href="#J" transform="matrix(1,0,0,1,121.14875108516117,1154.4422940610448) translate(68.27160493827161 66.31944444444446)"/><path d="M-36.07 937.1h-85.57v-2h85.57zm148.9 0H28.08v-2h84.75z" stroke="#5e5e5e" stroke-width=".05" fill="#5e5e5e"/><path d="M-121.6 937.1h-1.04v-2h1.03z" fill="#5e5e5e"/><path d="M-121.58 937.13h-1.08v-2.05h1.08zm-1.03-2v1.95h.96v-1.95zM114.65 936.1l-18.67 11.05-1.02-1.72 15.76-9.32-15.76-9.3 1.02-1.73z" stroke="#5e5e5e" stroke-width=".05" fill="#5e5e5e"/><use xlink:href="#e" transform="matrix(1,0,0,1,-36.06737131776973,925.4399387363128) translate(0.005000000000002558 14.222222222222223)"/><use xlink:href="#K" transform="matrix(1,0,0,1,-36.06737131776973,925.4399387363128) translate(33.58524691358026 14.222222222222223)"/><path d="M-36.07 1205.37h-86.07v-2h86.07zm149.4 0H28.08v-2h85.25z" stroke="#5e5e5e" stroke-width=".05" fill="#5e5e5e"/><path d="M-122.1 1205.37h-1.04v-2h1.03z" fill="#5e5e5e"/><path d="M-122.08 1205.4h-1.08v-2.06h1.08zm-1.03-2v1.94h.96v-1.94zM115.15 1204.37l-18.67 11.04-1.02-1.7 15.76-9.33-15.76-9.32 1.02-1.72z" stroke="#5e5e5e" stroke-width=".05" fill="#5e5e5e"/><use xlink:href="#e" transform="matrix(1,0,0,1,-36.06737131777045,1193.7034537546406) translate(0.005000000000002558 14.222222222222223)"/><use xlink:href="#K" transform="matrix(1,0,0,1,-36.06737131777045,1193.7034537546406) translate(33.58524691358026 14.222222222222223)"/><path d="M764.23 1089.53a6 6 0 0 1 6-6h152.44a6 6 0 0 1 6 6v97.86a6 6 0 0 1-6 5.98H770.23a6 6 0 0 1-6-6z" stroke="#1071e5" stroke-width="2" fill="#fff"/><use xlink:href="#l" transform="matrix(1,0,0,1,769.2252805117412,1088.52890242873) translate(40.55555555555556 55.27777777777778)"/><path d="M308.88 1205.37h-26.3v-2h26.3zm122.1 0h-25.46v-2H431z" stroke="#5e5e5e" stroke-width=".05" fill="#5e5e5e"/><path d="M282.62 1205.37h-1.03v-2h1.02z" fill="#5e5e5e"/><path d="M282.64 1205.4h-1.07v-2.06h1.07zm-1.02-2v1.94h.97v-1.94zM432.8 1204.37l-18.67 11.04-1-1.7 15.75-9.33-15.76-9.32 1-1.72z" stroke="#5e5e5e" stroke-width=".05" fill="#5e5e5e"/><use xlink:href="#e" transform="matrix(1,0,0,1,308.8782598619799,1183.036787087974) translate(0.005000000000002558 14.222222222222223)"/><use xlink:href="#f" transform="matrix(1,0,0,1,308.8782598619799,1183.036787087974) translate(33.58524691358026 14.222222222222223)"/><use xlink:href="#g" transform="matrix(1,0,0,1,308.8782598619799,1183.036787087974) translate(26.59759259259259 35.55555555555556)"/><path d="M433.8 1155.44a6 6 0 0 1 6-6h152.45a6 6 0 0 1 6 6v97.86a6 6 0 0 1-6 6H439.8a6 6 0 0 1-6-6z" stroke="#1071e5" stroke-width="2" fill="#fff"/><use xlink:href="#v" transform="matrix(1,0,0,1,438.8052999474409,1154.4422940610448) translate(38.64197530864198 55.27777777777778)"/><use xlink:href="#L" transform="matrix(1,0,0,1,438.8052999474409,1154.4422940610448) translate(102.83950617283949 55.27777777777778)"/><path d="M622.43 1196.13l-21.88 8.8-.75-1.86 22.63-9.1zm139.48-56.07l-42.83 17.22v-2.15l42.1-16.92z" stroke="#5e5e5e" stroke-width=".05" fill="#5e5e5e"/><path d="M600.57 1204.9l-1.32.55v-2.16l.58-.24z" fill="#5e5e5e"/><path d="M600.6 1204.93l-1.38.55v-2.2l.62-.25zm-1.33-1.62v2.1l1.27-.5-.73-1.8zM763.23 1138.46l-13.2 17.2-1.6-1.2 11.15-14.54-18.1-2.77.3-1.98z" stroke="#5e5e5e" stroke-width=".05" fill="#5e5e5e"/><use xlink:href="#e" transform="matrix(1,0,0,1,622.4275938296003,1154.2963334802891) translate(0.005000000000002558 14.222222222222223)"/><use xlink:href="#f" transform="matrix(1,0,0,1,622.4275938296003,1154.2963334802891) translate(33.58524691358026 14.222222222222223)"/><use xlink:href="#t" transform="matrix(1,0,0,1,622.4275938296003,1154.2963334802891) translate(7.338333333333331 35.55555555555556)"/><use xlink:href="#u" transform="matrix(1,0,0,1,622.4275938296003,1154.2963334802891) translate(55.7333950617284 35.55555555555556)"/><path d="M433.8 887.18a6 6 0 0 1 6-6h152.45a6 6 0 0 1 6 6v97.85a6 6 0 0 1-6 6H439.8a6 6 0 0 1-6-6z" stroke="#5e5e5e" stroke-width="3" fill="#fff"/><g><use xlink:href="#c" transform="matrix(1,0,0,1,438.80529994744137,886.178779042717) translate(34.35185185185185 39.65277777777778)"/><use xlink:href="#d" transform="matrix(1,0,0,1,438.80529994744137,886.178779042717) translate(48.48765432098766 66.31944444444446)"/></g><path d="M198.37 1147.44v-3.85m0-7.7v-7.7m0-7.7v-7.7m0-7.68v-7.7m0-7.7v-7.7m0-7.68v-7.67m0-7.6v-7.63m0-7.6v-7.62m0-7.62v-7.6m0-7.6v-7.63m0-7.6v-3.82" stroke="#1071e5" stroke-width="2" fill="none"/><path d="M199.37 1148.44h-2v-1.02h2z" stroke="#1071e5" stroke-width=".05" fill="#1071e5"/><path d="M208.55 1011.7l-10.18-17.2-10.18 17.22M516.03 1147.44v-3.85m0-7.7v-7.7m0-7.7v-7.7m0-7.68v-7.7m0-7.7v-7.7m0-7.68v-7.67m0-7.6v-7.63m0-7.6v-7.62m0-7.62v-7.6m0-7.6v-7.63m0-7.6v-3.82" stroke="#1071e5" stroke-width="2" fill="none"/><path d="M517.03 1148.44h-2v-1.02h2z" stroke="#1071e5" stroke-width=".05" fill="#1071e5"/><path d="M526.2 1011.7l-10.17-17.2-10.18 17.22" stroke="#1071e5" stroke-width="2" fill="none"/><path d="M308.88 937.1h-25.8v-2h25.8zm121.6 0h-24.96v-2h24.97z" stroke="#5e5e5e" stroke-width=".05" fill="#5e5e5e"/><path d="M283.12 937.1h-1.03v-2h1.02z" fill="#5e5e5e"/><path d="M283.14 937.13h-1.07v-2.05h1.07zm-1.02-2v1.95h.97v-1.95zM432.3 936.1l-18.67 11.05-1-1.72 15.75-9.32-15.76-9.3 1-1.73z" stroke="#5e5e5e" stroke-width=".05" fill="#5e5e5e"/><g><use xlink:href="#e" transform="matrix(1,0,0,1,308.8782598619805,914.7732720696462) translate(0.005000000000002558 14.222222222222223)"/><use xlink:href="#f" transform="matrix(1,0,0,1,308.8782598619805,914.7732720696462) translate(33.58524691358026 14.222222222222223)"/><use xlink:href="#g" transform="matrix(1,0,0,1,308.8782598619805,914.7732720696462) translate(26.59759259259259 35.55555555555556)"/></g><path d="M764.23 887.18a6 6 0 0 1 6-6h152.44a6 6 0 0 1 6 6v97.85a6 6 0 0 1-6 6H770.23a6 6 0 0 1-6-6z" stroke="#5e5e5e" stroke-width="3" fill="#fff"/><g><use xlink:href="#c" transform="matrix(1,0,0,1,769.2252805117412,886.178779042717) translate(34.35185185185185 39.65277777777778)"/><use xlink:href="#y" transform="matrix(1,0,0,1,769.2252805117412,886.178779042717) translate(21.358024691358032 66.31944444444446)"/><use xlink:href="#z" transform="matrix(1,0,0,1,769.2252805117412,886.178779042717) translate(85.55555555555554 66.31944444444446)"/></g><path d="M846.45 1081.53v-3.67m0-7.33v-7.33m0-7.34v-7.33m0-7.33v-7.27m0-7.2v-7.2m0-7.2v-7.18m0-7.2v-3.6" stroke="#1071e5" stroke-width="2" fill="none"/><path d="M847.45 1082.53h-2v-1.03h2z" stroke="#1071e5" stroke-width=".05" fill="#1071e5"/><path d="M856.63 1011.7l-10.18-17.2-10.18 17.22" stroke="#1071e5" stroke-width="2" fill="none"/><path d="M622.68 937.1h-21.93v-2h21.93zm138.23 0h-41.57v-2h41.58z" stroke="#5e5e5e" stroke-width=".05" fill="#5e5e5e"/><path d="M600.77 937.1h-1.02v-2h1.02z" fill="#5e5e5e"/><path d="M600.8 937.13h-1.07v-2.05h1.07zm-1.02-2v1.95h.97v-1.95zM762.73 936.1l-18.68 11.05-1-1.72 15.75-9.32-15.76-9.3 1-1.73z" stroke="#5e5e5e" stroke-width=".05" fill="#5e5e5e"/><g><use xlink:href="#e" transform="matrix(1,0,0,1,622.683459419525,914.7732720696462) translate(0.005000000000002558 14.222222222222223)"/><use xlink:href="#f" transform="matrix(1,0,0,1,622.683459419525,914.7732720696462) translate(33.58524691358026 14.222222222222223)"/><use xlink:href="#t" transform="matrix(1,0,0,1,622.683459419525,914.7732720696462) translate(7.338333333333331 35.55555555555556)"/><use xlink:href="#u" transform="matrix(1,0,0,1,622.683459419525,914.7732720696462) translate(55.7333950617284 35.55555555555556)"/></g><path d="M710.45 1262.02a6 6 0 0 1 6-6h41.77a6 6 0 0 1 6 6v36a6 6 0 0 1-6 6h-41.77a6 6 0 0 1-6-6z" stroke="#1071e5" stroke-width="3" fill-opacity="0"/><g><use xlink:href="#n" transform="matrix(1,0,0,1,715.4475027339633,1261.018695937184) translate(12.74074074074074 22.52777777777778)"/><use xlink:href="#o" transform="matrix(1,0,0,1,715.4475027339633,1261.018695937184) translate(25.086419753086417 22.52777777777778)"/></g><path d="M708.02 1278.16l-1.14 1.65-44.82-30.9h3.53zm-73.37-50.6h-3.52l-31.63-21.8 1.14-1.64z" stroke="#5e5e5e" stroke-width=".05" fill="#5e5e5e"/><path d="M600.66 1204.13l-1.13 1.65-.28-.2v-2.42z" fill="#5e5e5e"/><path d="M600.7 1204.12l-1.17 1.7-.3-.22v-2.5zm-1.43 1.45l.25.17 1.1-1.6-1.35-.94zM708.95 1280.02l-21.64-1.5.15-2 18.26 1.27-7.67-16.63 1.82-.84z" stroke="#5e5e5e" stroke-width=".05" fill="#5e5e5e"/><g><use xlink:href="#e" transform="matrix(1,0,0,1,614.825182287659,1227.5676117186588) translate(0.005000000000002558 14.222222222222223)"/><use xlink:href="#j" transform="matrix(1,0,0,1,614.825182287659,1227.5676117186588) translate(33.58524691358026 14.222222222222223)"/></g><path d="M1012.78 1270.02a6 6 0 0 1 6-6h152.45a6 6 0 0 1 6 6v28a6 6 0 0 1-6 6h-152.45a6 6 0 0 1-6-6z" stroke="#1071e5" stroke-width="3" fill="#fff"/><g><use xlink:href="#m" transform="matrix(1,0,0,1,1017.7844175649607,1269.018695937184) translate(21.60493827160493 19.71527777777778)"/></g><path d="M766.73 1280.02h49.5" stroke="#5e5e5e" stroke-width="2" fill="none"/><path d="M766.75 1281.02h-1.02v-2h1.02z" stroke="#5e5e5e" stroke-width=".05" fill="#5e5e5e"/><path d="M798.88 1290.2l17.2-10.18-17.2-10.18" stroke="#5e5e5e" stroke-width="2" fill="none"/><path d="M819.56 1262.02a6 6 0 0 1 6-6h41.78a6 6 0 0 1 6 6v36a6 6 0 0 1-6 6h-41.78a6 6 0 0 1-6-6z" stroke="#1071e5" stroke-width="3" fill-opacity="0"/><g><use xlink:href="#n" transform="matrix(1,0,0,1,824.5586138450744,1261.018695937184) translate(12.74074074074074 22.52777777777778)"/><use xlink:href="#o" transform="matrix(1,0,0,1,824.5586138450744,1261.018695937184) translate(25.086419753086417 22.52777777777778)"/></g><path d="M897.48 1285.02h-21.64v-2h21.64zm112 0H974.4v-2h35.05z" stroke="#5e5e5e" stroke-width=".05" fill="#5e5e5e"/><path d="M875.86 1285.02h-1.02v-2h1.02z" fill="#5e5e5e"/><path d="M875.9 1285.05h-1.1V1283h1.1zm-1.04-2v1.95h.98v-1.95zM1011.28 1284.02l-18.66 11.04-1.02-1.72 15.76-9.32-15.76-9.32 1-1.72z" stroke="#5e5e5e" stroke-width=".05" fill="#5e5e5e"/><g><use xlink:href="#q" transform="matrix(1,0,0,1,897.4841344972817,1262.6875418864936) translate(24.153148148148155 14.222222222222223)"/><use xlink:href="#r" transform="matrix(1,0,0,1,897.4841344972817,1262.6875418864936) translate(0.005000000000002558 35.55555555555556)"/></g><defs><path fill="#333" d="M233-177c-1 41-23 64-60 70L243 0h-38l-65-103H63V0H30v-248c88 3 205-21 203 71zM63-129c60-2 137 13 137-47 0-61-80-42-137-45v92" id="M"/><path fill="#333" d="M100-194c62-1 85 37 85 99 1 63-27 99-86 99S16-35 15-95c0-66 28-99 85-99zM99-20c44 1 53-31 53-75 0-43-8-75-51-75s-53 32-53 75 10 74 51 75" id="N"/><path fill="#333" d="M141-36C126-15 110 5 73 4 37 3 15-17 15-53c-1-64 63-63 125-63 3-35-9-54-41-54-24 1-41 7-42 31l-33-3c5-37 33-52 76-52 45 0 72 20 72 64v82c-1 20 7 32 28 27v20c-31 9-61-2-59-35zM48-53c0 20 12 33 32 33 41-3 63-29 60-74-43 2-92-5-92 41" id="O"/><path fill="#333" d="M85-194c31 0 48 13 60 33l-1-100h32l1 261h-30c-2-10 0-23-3-31C134-8 116 4 85 4 32 4 16-35 15-94c0-66 23-100 70-100zm9 24c-40 0-46 34-46 75 0 40 6 74 45 74 42 0 51-32 51-76 0-42-9-74-50-73" id="P"/><g id="a"><use transform="matrix(0.06172839506172839,0,0,0.06172839506172839,0,0)" xlink:href="#M"/><use transform="matrix(0.06172839506172839,0,0,0.06172839506172839,15.987654320987653,0)" xlink:href="#N"/><use transform="matrix(0.06172839506172839,0,0,0.06172839506172839,28.333333333333332,0)" xlink:href="#O"/><use transform="matrix(0.06172839506172839,0,0,0.06172839506172839,40.67901234567901,0)" xlink:href="#P"/></g><path fill="#333" d="M190 0L58-211 59 0H30v-248h39L202-35l-2-213h31V0h-41" id="Q"/><path fill="#333" d="M210-169c-67 3-38 105-44 169h-31v-121c0-29-5-50-35-48C34-165 62-65 56 0H25l-1-190h30c1 10-1 24 2 32 10-44 99-50 107 0 11-21 27-35 58-36 85-2 47 119 55 194h-31v-121c0-29-5-49-35-48" id="R"/><path fill="#333" d="M100-194c63 0 86 42 84 106H49c0 40 14 67 53 68 26 1 43-12 49-29l28 8c-11 28-37 45-77 45C44 4 14-33 15-96c1-61 26-98 85-98zm52 81c6-60-76-77-97-28-3 7-6 17-6 28h103" id="S"/><g id="b"><use transform="matrix(0.06172839506172839,0,0,0.06172839506172839,0,0)" xlink:href="#Q"/><use transform="matrix(0.06172839506172839,0,0,0.06172839506172839,15.987654320987653,0)" xlink:href="#O"/><use transform="matrix(0.06172839506172839,0,0,0.06172839506172839,28.333333333333332,0)" xlink:href="#R"/><use transform="matrix(0.06172839506172839,0,0,0.06172839506172839,46.79012345679012,0)" xlink:href="#S"/></g><path fill="#333" d="M30 0v-248h33v221h125V0H30" id="T"/><path fill="#333" d="M24-231v-30h32v30H24zM24 0v-190h32V0H24" id="U"/><path fill="#333" d="M101-234c-31-9-42 10-38 44h38v23H63V0H32v-167H5v-23h27c-7-52 17-82 69-68v24" id="V"/><path fill="#333" d="M96-169c-40 0-48 33-48 73s9 75 48 75c24 0 41-14 43-38l32 2c-6 37-31 61-74 61-59 0-76-41-82-99-10-93 101-131 147-64 4 7 5 14 7 22l-32 3c-4-21-16-35-41-35" id="W"/><path fill="#333" d="M179-190L93 31C79 59 56 82 12 73V49c39 6 53-20 64-50L1-190h34L92-34l54-156h33" id="X"/><path fill="#333" d="M24 0v-261h32V0H24" id="Y"/><g id="c"><use transform="matrix(0.06172839506172839,0,0,0.06172839506172839,0,0)" xlink:href="#T"/><use transform="matrix(0.06172839506172839,0,0,0.06172839506172839,12.345679012345679,0)" xlink:href="#U"/><use transform="matrix(0.06172839506172839,0,0,0.06172839506172839,17.22222222222222,0)" xlink:href="#V"/><use transform="matrix(0.06172839506172839,0,0,0.06172839506172839,23.39506172839506,0)" xlink:href="#S"/><use transform="matrix(0.06172839506172839,0,0,0.06172839506172839,35.74074074074074,0)" xlink:href="#W"/><use transform="matrix(0.06172839506172839,0,0,0.06172839506172839,46.85185185185185,0)" xlink:href="#X"/><use transform="matrix(0.06172839506172839,0,0,0.06172839506172839,57.96296296296296,0)" xlink:href="#W"/><use transform="matrix(0.06172839506172839,0,0,0.06172839506172839,69.07407407407408,0)" xlink:href="#Y"/><use transform="matrix(0.06172839506172839,0,0,0.06172839506172839,73.95061728395062,0)" xlink:href="#S"/></g><path fill="#333" d="M185-189c-5-48-123-54-124 2 14 75 158 14 163 119 3 78-121 87-175 55-17-10-28-26-33-46l33-7c5 56 141 63 141-1 0-78-155-14-162-118-5-82 145-84 179-34 5 7 8 16 11 25" id="Z"/><path fill="#333" d="M59-47c-2 24 18 29 38 22v24C64 9 27 4 27-40v-127H5v-23h24l9-43h21v43h35v23H59v120" id="aa"/><path fill="#333" d="M177-190C167-65 218 103 67 71c-23-6-38-20-44-43l32-5c15 47 100 32 89-28v-30C133-14 115 1 83 1 29 1 15-40 15-95c0-56 16-97 71-98 29-1 48 16 59 35 1-10 0-23 2-32h30zM94-22c36 0 50-32 50-73 0-42-14-75-50-75-39 0-46 34-46 75s6 73 46 73" id="ab"/><g id="d"><use transform="matrix(0.06172839506172839,0,0,0.06172839506172839,0,0)" xlink:href="#Z"/><use transform="matrix(0.06172839506172839,0,0,0.06172839506172839,14.814814814814813,0)" xlink:href="#aa"/><use transform="matrix(0.06172839506172839,0,0,0.06172839506172839,20.98765432098765,0)" xlink:href="#O"/><use transform="matrix(0.06172839506172839,0,0,0.06172839506172839,33.33333333333333,0)" xlink:href="#ab"/><use transform="matrix(0.06172839506172839,0,0,0.06172839506172839,45.679012345679006,0)" xlink:href="#S"/></g><path fill="#333" d="M106-169C34-169 62-67 57 0H25v-261h32l-1 103c12-21 28-36 61-36 89 0 53 116 60 194h-32v-121c2-32-8-49-39-48" id="ac"/><path fill="#333" d="M135-143c-3-34-86-38-87 0 15 53 115 12 119 90S17 21 10-45l28-5c4 36 97 45 98 0-10-56-113-15-118-90-4-57 82-63 122-42 12 7 21 19 24 35" id="ad"/><g id="e"><use transform="matrix(0.04938271604938272,0,0,0.04938271604938272,0,0)" xlink:href="#ac"/><use transform="matrix(0.04938271604938272,0,0,0.04938271604938272,9.876543209876544,0)" xlink:href="#O"/><use transform="matrix(0.04938271604938272,0,0,0.04938271604938272,19.75308641975309,0)" xlink:href="#ad"/></g><g id="f"><use transform="matrix(0.04938271604938272,0,0,0.04938271604938272,0,0)" xlink:href="#Y"/><use transform="matrix(0.04938271604938272,0,0,0.04938271604938272,3.901234567901235,0)" xlink:href="#U"/><use transform="matrix(0.04938271604938272,0,0,0.04938271604938272,7.80246913580247,0)" xlink:href="#V"/><use transform="matrix(0.04938271604938272,0,0,0.04938271604938272,12.740740740740742,0)" xlink:href="#S"/><use transform="matrix(0.04938271604938272,0,0,0.04938271604938272,22.617283950617285,0)" xlink:href="#W"/><use transform="matrix(0.04938271604938272,0,0,0.04938271604938272,31.506172839506174,0)" xlink:href="#X"/><use transform="matrix(0.04938271604938272,0,0,0.04938271604938272,40.39506172839506,0)" xlink:href="#W"/><use transform="matrix(0.04938271604938272,0,0,0.04938271604938272,49.28395061728395,0)" xlink:href="#Y"/><use transform="matrix(0.04938271604938272,0,0,0.04938271604938272,53.185185185185176,0)" xlink:href="#S"/></g><g id="g"><use transform="matrix(0.04938271604938272,0,0,0.04938271604938272,0,0)" xlink:href="#ad"/><use transform="matrix(0.04938271604938272,0,0,0.04938271604938272,8.88888888888889,0)" xlink:href="#aa"/><use transform="matrix(0.04938271604938272,0,0,0.04938271604938272,13.827160493827162,0)" xlink:href="#O"/><use transform="matrix(0.04938271604938272,0,0,0.04938271604938272,23.703703703703706,0)" xlink:href="#ab"/><use transform="matrix(0.04938271604938272,0,0,0.04938271604938272,33.580246913580254,0)" xlink:href="#S"/></g><path fill="#333" d="M33-154v-36h34v36H33zM33 0v-36h34V0H33" id="ae"/><g id="h"><use transform="matrix(0.06172839506172839,0,0,0.06172839506172839,0,0)" xlink:href="#aa"/><use transform="matrix(0.06172839506172839,0,0,0.06172839506172839,6.172839506172839,0)" xlink:href="#U"/><use transform="matrix(0.06172839506172839,0,0,0.06172839506172839,11.049382716049383,0)" xlink:href="#R"/><use transform="matrix(0.06172839506172839,0,0,0.06172839506172839,29.50617283950617,0)" xlink:href="#S"/><use transform="matrix(0.06172839506172839,0,0,0.06172839506172839,41.85185185185185,0)" xlink:href="#ae"/></g><path fill="#333" d="M30-248c87 1 191-15 191 75 0 78-77 80-158 76V0H30v-248zm33 125c57 0 124 11 124-50 0-59-68-47-124-48v98" id="af"/><path fill="#333" d="M114-163C36-179 61-72 57 0H25l-1-190h30c1 12-1 29 2 39 6-27 23-49 58-41v29" id="ag"/><path fill="#333" d="M115-194c55 1 70 41 70 98S169 2 115 4C84 4 66-9 55-30l1 105H24l-1-265h31l2 30c10-21 28-34 59-34zm-8 174c40 0 45-34 45-75s-6-73-45-74c-42 0-51 32-51 76 0 43 10 73 51 73" id="ah"/><path fill="#333" d="M33 0v-248h34V0H33" id="ai"/><path fill="#333" d="M117-194c89-4 53 116 60 194h-32v-121c0-31-8-49-39-48C34-167 62-67 57 0H25l-1-190h30c1 10-1 24 2 32 11-22 29-35 61-36" id="aj"/><path fill="#333" d="M108 0H70L1-190h34L89-25l56-165h34" id="ak"/><g id="i"><use transform="matrix(0.06172839506172839,0,0,0.06172839506172839,0,0)" xlink:href="#af"/><use transform="matrix(0.06172839506172839,0,0,0.06172839506172839,14.814814814814813,0)" xlink:href="#ag"/><use transform="matrix(0.06172839506172839,0,0,0.06172839506172839,22.160493827160494,0)" xlink:href="#N"/><use transform="matrix(0.06172839506172839,0,0,0.06172839506172839,34.50617283950617,0)" xlink:href="#ah"/><use transform="matrix(0.06172839506172839,0,0,0.06172839506172839,46.85185185185185,0)" xlink:href="#S"/><use transform="matrix(0.06172839506172839,0,0,0.06172839506172839,59.197530864197525,0)" xlink:href="#ag"/><use transform="matrix(0.06172839506172839,0,0,0.06172839506172839,66.5432098765432,0)" xlink:href="#ai"/><use transform="matrix(0.06172839506172839,0,0,0.06172839506172839,72.71604938271604,0)" xlink:href="#aj"/><use transform="matrix(0.06172839506172839,0,0,0.06172839506172839,85.06172839506172,0)" xlink:href="#aa"/><use transform="matrix(0.06172839506172839,0,0,0.06172839506172839,91.23456790123456,0)" xlink:href="#S"/><use transform="matrix(0.06172839506172839,0,0,0.06172839506172839,103.58024691358024,0)" xlink:href="#ag"/><use transform="matrix(0.06172839506172839,0,0,0.06172839506172839,110.92592592592592,0)" xlink:href="#ak"/><use transform="matrix(0.06172839506172839,0,0,0.06172839506172839,122.03703703703704,0)" xlink:href="#O"/><use transform="matrix(0.06172839506172839,0,0,0.06172839506172839,134.3827160493827,0)" xlink:href="#Y"/></g><g id="j"><use transform="matrix(0.04938271604938272,0,0,0.04938271604938272,0,0)" xlink:href="#aa"/><use transform="matrix(0.04938271604938272,0,0,0.04938271604938272,4.938271604938272,0)" xlink:href="#U"/><use transform="matrix(0.04938271604938272,0,0,0.04938271604938272,8.839506172839506,0)" xlink:href="#R"/><use transform="matrix(0.04938271604938272,0,0,0.04938271604938272,23.60493827160494,0)" xlink:href="#S"/></g><path fill="#1071e5" d="M30-248c87 1 191-15 191 75 0 78-77 80-158 76V0H30v-248zm33 125c57 0 124 11 124-50 0-59-68-47-124-48v98" id="al"/><path fill="#1071e5" d="M114-163C36-179 61-72 57 0H25l-1-190h30c1 12-1 29 2 39 6-27 23-49 58-41v29" id="am"/><path fill="#1071e5" d="M100-194c62-1 85 37 85 99 1 63-27 99-86 99S16-35 15-95c0-66 28-99 85-99zM99-20c44 1 53-31 53-75 0-43-8-75-51-75s-53 32-53 75 10 74 51 75" id="an"/><path fill="#1071e5" d="M115-194c55 1 70 41 70 98S169 2 115 4C84 4 66-9 55-30l1 105H24l-1-265h31l2 30c10-21 28-34 59-34zm-8 174c40 0 45-34 45-75s-6-73-45-74c-42 0-51 32-51 76 0 43 10 73 51 73" id="ao"/><path fill="#1071e5" d="M135-143c-3-34-86-38-87 0 15 53 115 12 119 90S17 21 10-45l28-5c4 36 97 45 98 0-10-56-113-15-118-90-4-57 82-63 122-42 12 7 21 19 24 35" id="ap"/><path fill="#1071e5" d="M100-194c63 0 86 42 84 106H49c0 40 14 67 53 68 26 1 43-12 49-29l28 8c-11 28-37 45-77 45C44 4 14-33 15-96c1-61 26-98 85-98zm52 81c6-60-76-77-97-28-3 7-6 17-6 28h103" id="aq"/><path fill="#1071e5" d="M85-194c31 0 48 13 60 33l-1-100h32l1 261h-30c-2-10 0-23-3-31C134-8 116 4 85 4 32 4 16-35 15-94c0-66 23-100 70-100zm9 24c-40 0-46 34-46 75 0 40 6 74 45 74 42 0 51-32 51-76 0-42-9-74-50-73" id="ar"/><g id="k"><use transform="matrix(0.06172839506172839,0,0,0.06172839506172839,0,0)" xlink:href="#al"/><use transform="matrix(0.06172839506172839,0,0,0.06172839506172839,14.814814814814813,0)" xlink:href="#am"/><use transform="matrix(0.06172839506172839,0,0,0.06172839506172839,22.160493827160494,0)" xlink:href="#an"/><use transform="matrix(0.06172839506172839,0,0,0.06172839506172839,34.50617283950617,0)" xlink:href="#ao"/><use transform="matrix(0.06172839506172839,0,0,0.06172839506172839,46.85185185185185,0)" xlink:href="#an"/><use transform="matrix(0.06172839506172839,0,0,0.06172839506172839,59.197530864197525,0)" xlink:href="#ap"/><use transform="matrix(0.06172839506172839,0,0,0.06172839506172839,70.30864197530863,0)" xlink:href="#aq"/><use transform="matrix(0.06172839506172839,0,0,0.06172839506172839,82.65432098765432,0)" xlink:href="#ar"/></g><path fill="#1071e5" d="M212-179c-10-28-35-45-73-45-59 0-87 40-87 99 0 60 29 101 89 101 43 0 62-24 78-52l27 14C228-24 195 4 139 4 59 4 22-46 18-125c-6-104 99-153 187-111 19 9 31 26 39 46" id="as"/><path fill="#1071e5" d="M84 4C-5 8 30-112 23-190h32v120c0 31 7 50 39 49 72-2 45-101 50-169h31l1 190h-30c-1-10 1-25-2-33-11 22-28 36-60 37" id="at"/><path fill="#1071e5" d="M117-194c89-4 53 116 60 194h-32v-121c0-31-8-49-39-48C34-167 62-67 57 0H25l-1-190h30c1 10-1 24 2 32 11-22 29-35 61-36" id="au"/><path fill="#1071e5" d="M59-47c-2 24 18 29 38 22v24C64 9 27 4 27-40v-127H5v-23h24l9-43h21v43h35v23H59v120" id="av"/><g id="l"><use transform="matrix(0.06172839506172839,0,0,0.06172839506172839,0,0)" xlink:href="#as"/><use transform="matrix(0.06172839506172839,0,0,0.06172839506172839,15.987654320987653,0)" xlink:href="#at"/><use transform="matrix(0.06172839506172839,0,0,0.06172839506172839,28.333333333333332,0)" xlink:href="#am"/><use transform="matrix(0.06172839506172839,0,0,0.06172839506172839,35.67901234567901,0)" xlink:href="#am"/><use transform="matrix(0.06172839506172839,0,0,0.06172839506172839,43.02469135802469,0)" xlink:href="#aq"/><use transform="matrix(0.06172839506172839,0,0,0.06172839506172839,55.37037037037037,0)" xlink:href="#au"/><use transform="matrix(0.06172839506172839,0,0,0.06172839506172839,67.71604938271605,0)" xlink:href="#av"/></g><path fill="#1071e5" d="M27 0v-27h64v-190l-56 39v-29l58-41h29v221h61V0H27" id="aw"/><path fill="#1071e5" d="M99-251c64 0 84 50 84 122C183-37 130 33 47-8c-14-7-20-23-25-40l30-5c6 39 69 39 84 7 9-19 16-44 16-74-10 22-31 35-62 35-49 0-73-33-73-83 0-54 28-83 82-83zm-1 141c31-1 51-18 51-49 0-36-14-67-51-67-34 0-49 23-49 58 0 34 15 58 49 58" id="ax"/><path fill="#1071e5" d="M134-131c28 9 52 24 51 62-1 50-34 73-85 73S17-19 16-69c0-36 21-54 49-61-75-25-45-126 34-121 46 3 78 18 79 63 0 33-17 51-44 57zm-34-11c31 1 46-15 46-44 0-28-17-43-47-42-29 0-46 13-45 42 1 28 16 44 46 44zm1 122c35 0 51-18 51-52 0-30-18-46-53-46-33 0-51 17-51 47 0 34 19 51 53 51" id="ay"/><path fill="#1071e5" d="M101-251c82-7 93 87 43 132L82-64C71-53 59-42 53-27h129V0H18c2-99 128-94 128-182 0-28-16-43-45-43s-46 15-49 41l-32-3c6-41 34-60 81-64" id="az"/><path fill="#1071e5" d="M16-82v-28h88v28H16" id="aA"/><path fill="#1071e5" d="M101-251c68 0 85 55 85 127S166 4 100 4C33 4 14-52 14-124c0-73 17-127 87-127zm-1 229c47 0 54-49 54-102s-4-102-53-102c-51 0-55 48-55 102 0 53 5 102 54 102" id="aB"/><path fill="#1071e5" d="M54-142c48-35 137-8 131 61C196 18 31 33 14-55l32-4c7 23 22 37 52 37 35-1 51-22 54-58 4-55-73-65-99-34H22l8-134h141v27H59" id="aC"/><g id="m"><use transform="matrix(0.06172839506172839,0,0,0.06172839506172839,0,0)" xlink:href="#aw"/><use transform="matrix(0.06172839506172839,0,0,0.06172839506172839,12.345679012345679,0)" xlink:href="#ax"/><use transform="matrix(0.06172839506172839,0,0,0.06172839506172839,24.691358024691358,0)" xlink:href="#ay"/><use transform="matrix(0.06172839506172839,0,0,0.06172839506172839,37.03703703703704,0)" xlink:href="#az"/><use transform="matrix(0.06172839506172839,0,0,0.06172839506172839,49.382716049382715,0)" xlink:href="#aA"/><use transform="matrix(0.06172839506172839,0,0,0.06172839506172839,56.72839506172839,0)" xlink:href="#aB"/><use transform="matrix(0.06172839506172839,0,0,0.06172839506172839,69.07407407407408,0)" xlink:href="#aC"/><use transform="matrix(0.06172839506172839,0,0,0.06172839506172839,81.41975308641976,0)" xlink:href="#aA"/><use transform="matrix(0.06172839506172839,0,0,0.06172839506172839,88.76543209876544,0)" xlink:href="#aw"/><use transform="matrix(0.06172839506172839,0,0,0.06172839506172839,99.44444444444446,0)" xlink:href="#aw"/></g><path fill="#1071e5" d="M26 75v-336h71v23H56V52h41v23H26" id="aD"/><use transform="matrix(0.06172839506172839,0,0,0.06172839506172839,0,0)" xlink:href="#aD" id="n"/><path fill="#1071e5" d="M3 75V52h41v-290H3v-23h71V75H3" id="aE"/><use transform="matrix(0.06172839506172839,0,0,0.06172839506172839,0,0)" xlink:href="#aE" id="o"/><path fill="#1071e5" d="M141-36C126-15 110 5 73 4 37 3 15-17 15-53c-1-64 63-63 125-63 3-35-9-54-41-54-24 1-41 7-42 31l-33-3c5-37 33-52 76-52 45 0 72 20 72 64v82c-1 20 7 32 28 27v20c-31 9-61-2-59-35zM48-53c0 20 12 33 32 33 41-3 63-29 60-74-43 2-92-5-92 41" id="aF"/><path fill="#1071e5" d="M210-169c-67 3-38 105-44 169h-31v-121c0-29-5-50-35-48C34-165 62-65 56 0H25l-1-190h30c1 10-1 24 2 32 10-44 99-50 107 0 11-21 27-35 58-36 85-2 47 119 55 194h-31v-121c0-29-5-49-35-48" id="aG"/><path fill="#1071e5" d="M141 0L90-78 38 0H4l68-98-65-92h35l48 74 47-74h35l-64 92 68 98h-35" id="aH"/><g id="p"><use transform="matrix(0.06172839506172839,0,0,0.06172839506172839,0,0)" xlink:href="#am"/><use transform="matrix(0.06172839506172839,0,0,0.06172839506172839,7.345679012345679,0)" xlink:href="#an"/><use transform="matrix(0.06172839506172839,0,0,0.06172839506172839,19.691358024691358,0)" xlink:href="#aF"/><use transform="matrix(0.06172839506172839,0,0,0.06172839506172839,32.03703703703704,0)" xlink:href="#ar"/><use transform="matrix(0.06172839506172839,0,0,0.06172839506172839,44.382716049382715,0)" xlink:href="#aA"/><use transform="matrix(0.06172839506172839,0,0,0.06172839506172839,51.72839506172839,0)" xlink:href="#au"/><use transform="matrix(0.06172839506172839,0,0,0.06172839506172839,64.07407407407408,0)" xlink:href="#aF"/><use transform="matrix(0.06172839506172839,0,0,0.06172839506172839,76.41975308641976,0)" xlink:href="#aG"/><use transform="matrix(0.06172839506172839,0,0,0.06172839506172839,94.87654320987654,0)" xlink:href="#aq"/><use transform="matrix(0.06172839506172839,0,0,0.06172839506172839,107.22222222222223,0)" xlink:href="#aA"/><use transform="matrix(0.06172839506172839,0,0,0.06172839506172839,114.56790123456791,0)" xlink:href="#aH"/></g><g id="q"><use transform="matrix(0.04938271604938272,0,0,0.04938271604938272,0,0)" xlink:href="#ac"/><use transform="matrix(0.04938271604938272,0,0,0.04938271604938272,9.876543209876544,0)" xlink:href="#O"/><use transform="matrix(0.04938271604938272,0,0,0.04938271604938272,19.75308641975309,0)" xlink:href="#ad"/></g><path fill="#333" d="M115-194c53 0 69 39 70 98 0 66-23 100-70 100C84 3 66-7 56-30L54 0H23l1-261h32v101c10-23 28-34 59-34zm-8 174c40 0 45-34 45-75 0-40-5-75-45-74-42 0-51 32-51 76 0 43 10 73 51 73" id="aI"/><g id="r"><use transform="matrix(0.04938271604938272,0,0,0.04938271604938272,0,0)" xlink:href="#aI"/><use transform="matrix(0.04938271604938272,0,0,0.04938271604938272,9.876543209876544,0)" xlink:href="#S"/><use transform="matrix(0.04938271604938272,0,0,0.04938271604938272,19.75308641975309,0)" xlink:href="#ab"/><use transform="matrix(0.04938271604938272,0,0,0.04938271604938272,29.629629629629633,0)" xlink:href="#U"/><use transform="matrix(0.04938271604938272,0,0,0.04938271604938272,33.53086419753087,0)" xlink:href="#aj"/><use transform="matrix(0.04938271604938272,0,0,0.04938271604938272,43.40740740740741,0)" xlink:href="#aj"/><use transform="matrix(0.04938271604938272,0,0,0.04938271604938272,53.283950617283956,0)" xlink:href="#U"/><use transform="matrix(0.04938271604938272,0,0,0.04938271604938272,57.18518518518519,0)" xlink:href="#aj"/><use transform="matrix(0.04938271604938272,0,0,0.04938271604938272,67.06172839506173,0)" xlink:href="#ab"/></g><g id="s"><use transform="matrix(0.06172839506172839,0,0,0.06172839506172839,0,0)" xlink:href="#aw"/><use transform="matrix(0.06172839506172839,0,0,0.06172839506172839,12.345679012345679,0)" xlink:href="#ax"/><use transform="matrix(0.06172839506172839,0,0,0.06172839506172839,24.691358024691358,0)" xlink:href="#ay"/><use transform="matrix(0.06172839506172839,0,0,0.06172839506172839,37.03703703703704,0)" xlink:href="#az"/><use transform="matrix(0.06172839506172839,0,0,0.06172839506172839,49.382716049382715,0)" xlink:href="#aA"/><use transform="matrix(0.06172839506172839,0,0,0.06172839506172839,56.72839506172839,0)" xlink:href="#aB"/><use transform="matrix(0.06172839506172839,0,0,0.06172839506172839,69.07407407407408,0)" xlink:href="#az"/><use transform="matrix(0.06172839506172839,0,0,0.06172839506172839,81.41975308641976,0)" xlink:href="#aA"/><use transform="matrix(0.06172839506172839,0,0,0.06172839506172839,88.76543209876544,0)" xlink:href="#aw"/><use transform="matrix(0.06172839506172839,0,0,0.06172839506172839,101.11111111111113,0)" xlink:href="#aB"/></g><g id="t"><use transform="matrix(0.04938271604938272,0,0,0.04938271604938272,0,0)" xlink:href="#ad"/><use transform="matrix(0.04938271604938272,0,0,0.04938271604938272,8.88888888888889,0)" xlink:href="#aa"/><use transform="matrix(0.04938271604938272,0,0,0.04938271604938272,13.827160493827162,0)" xlink:href="#O"/><use transform="matrix(0.04938271604938272,0,0,0.04938271604938272,23.703703703703706,0)" xlink:href="#ab"/><use transform="matrix(0.04938271604938272,0,0,0.04938271604938272,33.580246913580254,0)" xlink:href="#S"/></g><g id="u"><use transform="matrix(0.04938271604938272,0,0,0.04938271604938272,0,0)" xlink:href="#aa"/><use transform="matrix(0.04938271604938272,0,0,0.04938271604938272,4.938271604938272,0)" xlink:href="#X"/><use transform="matrix(0.04938271604938272,0,0,0.04938271604938272,13.827160493827162,0)" xlink:href="#ah"/><use transform="matrix(0.04938271604938272,0,0,0.04938271604938272,23.703703703703706,0)" xlink:href="#S"/></g><path fill="#1071e5" d="M185-189c-5-48-123-54-124 2 14 75 158 14 163 119 3 78-121 87-175 55-17-10-28-26-33-46l33-7c5 56 141 63 141-1 0-78-155-14-162-118-5-82 145-84 179-34 5 7 8 16 11 25" id="aJ"/><path fill="#1071e5" d="M177-190C167-65 218 103 67 71c-23-6-38-20-44-43l32-5c15 47 100 32 89-28v-30C133-14 115 1 83 1 29 1 15-40 15-95c0-56 16-97 71-98 29-1 48 16 59 35 1-10 0-23 2-32h30zM94-22c36 0 50-32 50-73 0-42-14-75-50-75-39 0-46 34-46 75s6 73 46 73" id="aK"/><g id="v"><use transform="matrix(0.06172839506172839,0,0,0.06172839506172839,0,0)" xlink:href="#aJ"/><use transform="matrix(0.06172839506172839,0,0,0.06172839506172839,14.814814814814813,0)" xlink:href="#av"/><use transform="matrix(0.06172839506172839,0,0,0.06172839506172839,20.98765432098765,0)" xlink:href="#aF"/><use transform="matrix(0.06172839506172839,0,0,0.06172839506172839,33.33333333333333,0)" xlink:href="#aK"/><use transform="matrix(0.06172839506172839,0,0,0.06172839506172839,45.679012345679006,0)" xlink:href="#aq"/></g><use transform="matrix(0.06172839506172839,0,0,0.06172839506172839,0,0)" xlink:href="#aw" id="w"/><use transform="matrix(0.06172839506172839,0,0,0.06172839506172839,0,0)" xlink:href="#az" id="x"/><g id="y"><use transform="matrix(0.06172839506172839,0,0,0.06172839506172839,0,0)" xlink:href="#Z"/><use transform="matrix(0.06172839506172839,0,0,0.06172839506172839,14.814814814814813,0)" xlink:href="#aa"/><use transform="matrix(0.06172839506172839,0,0,0.06172839506172839,20.98765432098765,0)" xlink:href="#O"/><use transform="matrix(0.06172839506172839,0,0,0.06172839506172839,33.33333333333333,0)" xlink:href="#ab"/><use transform="matrix(0.06172839506172839,0,0,0.06172839506172839,45.679012345679006,0)" xlink:href="#S"/></g><path fill="#333" d="M127-220V0H93v-220H8v-28h204v28h-85" id="aL"/><g id="z"><use transform="matrix(0.06172839506172839,0,0,0.06172839506172839,0,0)" xlink:href="#aL"/><use transform="matrix(0.06172839506172839,0,0,0.06172839506172839,12.28395061728395,0)" xlink:href="#X"/><use transform="matrix(0.06172839506172839,0,0,0.06172839506172839,23.39506172839506,0)" xlink:href="#ah"/><use transform="matrix(0.06172839506172839,0,0,0.06172839506172839,35.74074074074074,0)" xlink:href="#S"/></g><g id="A"><use transform="matrix(0.04938271604938272,0,0,0.04938271604938272,0,0)" xlink:href="#S"/><use transform="matrix(0.04938271604938272,0,0,0.04938271604938272,9.876543209876544,0)" xlink:href="#aj"/><use transform="matrix(0.04938271604938272,0,0,0.04938271604938272,19.75308641975309,0)" xlink:href="#P"/></g><g id="B"><use transform="matrix(0.06172839506172839,0,0,0.06172839506172839,0,0)" xlink:href="#ai"/><use transform="matrix(0.06172839506172839,0,0,0.06172839506172839,6.172839506172839,0)" xlink:href="#aj"/><use transform="matrix(0.06172839506172839,0,0,0.06172839506172839,18.51851851851852,0)" xlink:href="#ad"/><use transform="matrix(0.06172839506172839,0,0,0.06172839506172839,29.62962962962963,0)" xlink:href="#aa"/><use transform="matrix(0.06172839506172839,0,0,0.06172839506172839,35.80246913580247,0)" xlink:href="#O"/><use transform="matrix(0.06172839506172839,0,0,0.06172839506172839,48.148148148148145,0)" xlink:href="#aj"/><use transform="matrix(0.06172839506172839,0,0,0.06172839506172839,60.49382716049382,0)" xlink:href="#aa"/></g><path fill="#333" d="M141 0L90-78 38 0H4l68-98-65-92h35l48 74 47-74h35l-64 92 68 98h-35" id="aM"/><g id="C"><use transform="matrix(0.06172839506172839,0,0,0.06172839506172839,0,0)" xlink:href="#aM"/><use transform="matrix(0.06172839506172839,0,0,0.06172839506172839,11.11111111111111,0)" xlink:href="#ad"/><use transform="matrix(0.06172839506172839,0,0,0.06172839506172839,22.22222222222222,0)" xlink:href="#P"/><use transform="matrix(0.06172839506172839,0,0,0.06172839506172839,34.5679012345679,0)" xlink:href="#ae"/></g><path fill="#333" d="M30-248c118-7 216 8 213 122C240-48 200 0 122 0H30v-248zM63-27c89 8 146-16 146-99s-60-101-146-95v194" id="aN"/><g id="D"><use transform="matrix(0.06172839506172839,0,0,0.06172839506172839,0,0)" xlink:href="#aN"/><use transform="matrix(0.06172839506172839,0,0,0.06172839506172839,15.987654320987653,0)" xlink:href="#O"/><use transform="matrix(0.06172839506172839,0,0,0.06172839506172839,28.333333333333332,0)" xlink:href="#aa"/><use transform="matrix(0.06172839506172839,0,0,0.06172839506172839,34.50617283950617,0)" xlink:href="#S"/></g><path fill="#3a414a" d="M199 0l-22-63H83L61 0H9l90-248h61L250 0h-51zm-33-102l-36-108c-10 38-24 72-36 108h72" id="aO"/><path fill="#3a414a" d="M102-93c0 74-22 123-52 168H0C30 29 54-18 53-93c0-74-22-123-53-168h50c30 45 52 94 52 168" id="aP"/><g id="E"><use transform="matrix(0.06172839506172839,0,0,0.06172839506172839,0,0)" xlink:href="#aO"/><use transform="matrix(0.06172839506172839,0,0,0.06172839506172839,15.987654320987653,0)" xlink:href="#aP"/></g><path fill="#3a414a" d="M182-130c37 4 62 22 62 59C244 23 116-4 24 0v-248c84 5 203-23 205 63 0 31-19 50-47 55zM76-148c40-3 101 13 101-30 0-44-60-28-101-31v61zm0 110c48-3 116 14 116-37 0-48-69-32-116-35v72" id="aQ"/><g id="F"><use transform="matrix(0.06172839506172839,0,0,0.06172839506172839,0,0)" xlink:href="#aQ"/><use transform="matrix(0.06172839506172839,0,0,0.06172839506172839,15.987654320987653,0)" xlink:href="#aP"/></g><path fill="#333" d="M212-179c-10-28-35-45-73-45-59 0-87 40-87 99 0 60 29 101 89 101 43 0 62-24 78-52l27 14C228-24 195 4 139 4 59 4 22-46 18-125c-6-104 99-153 187-111 19 9 31 26 39 46" id="aR"/><path fill="#333" d="M84 4C-5 8 30-112 23-190h32v120c0 31 7 50 39 49 72-2 45-101 50-169h31l1 190h-30c-1-10 1-25-2-33-11 22-28 36-60 37" id="aS"/><g id="G"><use transform="matrix(0.06172839506172839,0,0,0.06172839506172839,0,0)" xlink:href="#aR"/><use transform="matrix(0.06172839506172839,0,0,0.06172839506172839,15.987654320987653,0)" xlink:href="#N"/><use transform="matrix(0.06172839506172839,0,0,0.06172839506172839,28.333333333333332,0)" xlink:href="#R"/><use transform="matrix(0.06172839506172839,0,0,0.06172839506172839,46.79012345679012,0)" xlink:href="#ah"/><use transform="matrix(0.06172839506172839,0,0,0.06172839506172839,59.1358024691358,0)" xlink:href="#N"/><use transform="matrix(0.06172839506172839,0,0,0.06172839506172839,71.48148148148148,0)" xlink:href="#aS"/><use transform="matrix(0.06172839506172839,0,0,0.06172839506172839,83.82716049382717,0)" xlink:href="#aj"/><use transform="matrix(0.06172839506172839,0,0,0.06172839506172839,96.17283950617285,0)" xlink:href="#P"/></g><path fill="#1071e5" d="M24 0v-261h32V0H24" id="aT"/><path fill="#1071e5" d="M115-194c53 0 69 39 70 98 0 66-23 100-70 100C84 3 66-7 56-30L54 0H23l1-261h32v101c10-23 28-34 59-34zm-8 174c40 0 45-34 45-75 0-40-5-75-45-74-42 0-51 32-51 76 0 43 10 73 51 73" id="aU"/><g id="H"><use transform="matrix(0.06172839506172839,0,0,0.06172839506172839,0,0)" xlink:href="#am"/><use transform="matrix(0.06172839506172839,0,0,0.06172839506172839,7.345679012345679,0)" xlink:href="#an"/><use transform="matrix(0.06172839506172839,0,0,0.06172839506172839,19.691358024691358,0)" xlink:href="#aF"/><use transform="matrix(0.06172839506172839,0,0,0.06172839506172839,32.03703703703704,0)" xlink:href="#ar"/><use transform="matrix(0.06172839506172839,0,0,0.06172839506172839,44.382716049382715,0)" xlink:href="#aA"/><use transform="matrix(0.06172839506172839,0,0,0.06172839506172839,51.72839506172839,0)" xlink:href="#aT"/><use transform="matrix(0.06172839506172839,0,0,0.06172839506172839,56.60493827160494,0)" xlink:href="#aF"/><use transform="matrix(0.06172839506172839,0,0,0.06172839506172839,68.95061728395062,0)" xlink:href="#aU"/><use transform="matrix(0.06172839506172839,0,0,0.06172839506172839,81.2962962962963,0)" xlink:href="#aq"/><use transform="matrix(0.06172839506172839,0,0,0.06172839506172839,93.64197530864199,0)" xlink:href="#aT"/><use transform="matrix(0.06172839506172839,0,0,0.06172839506172839,98.51851851851853,0)" xlink:href="#aA"/><use transform="matrix(0.06172839506172839,0,0,0.06172839506172839,105.86419753086422,0)" xlink:href="#aH"/></g><path fill="#1071e5" d="M96-169c-40 0-48 33-48 73s9 75 48 75c24 0 41-14 43-38l32 2c-6 37-31 61-74 61-59 0-76-41-82-99-10-93 101-131 147-64 4 7 5 14 7 22l-32 3c-4-21-16-35-41-35" id="aV"/><g id="I"><use transform="matrix(0.06172839506172839,0,0,0.06172839506172839,0,0)" xlink:href="#aV"/><use transform="matrix(0.06172839506172839,0,0,0.06172839506172839,11.11111111111111,0)" xlink:href="#au"/><use transform="matrix(0.06172839506172839,0,0,0.06172839506172839,23.45679012345679,0)" xlink:href="#aA"/><use transform="matrix(0.06172839506172839,0,0,0.06172839506172839,30.80246913580247,0)" xlink:href="#aV"/><use transform="matrix(0.06172839506172839,0,0,0.06172839506172839,41.91358024691358,0)" xlink:href="#an"/><use transform="matrix(0.06172839506172839,0,0,0.06172839506172839,54.25925925925926,0)" xlink:href="#aG"/><use transform="matrix(0.06172839506172839,0,0,0.06172839506172839,72.71604938271605,0)" xlink:href="#ao"/><use transform="matrix(0.06172839506172839,0,0,0.06172839506172839,85.06172839506173,0)" xlink:href="#an"/><use transform="matrix(0.06172839506172839,0,0,0.06172839506172839,97.40740740740742,0)" xlink:href="#au"/><use transform="matrix(0.06172839506172839,0,0,0.06172839506172839,109.7530864197531,0)" xlink:href="#aq"/><use transform="matrix(0.06172839506172839,0,0,0.06172839506172839,122.09876543209879,0)" xlink:href="#au"/><use transform="matrix(0.06172839506172839,0,0,0.06172839506172839,134.44444444444446,0)" xlink:href="#av"/></g><path fill="#1071e5" d="M179-190L93 31C79 59 56 82 12 73V49c39 6 53-20 64-50L1-190h34L92-34l54-156h33" id="aW"/><g id="J"><use transform="matrix(0.06172839506172839,0,0,0.06172839506172839,0,0)" xlink:href="#aA"/><use transform="matrix(0.06172839506172839,0,0,0.06172839506172839,7.345679012345679,0)" xlink:href="#aW"/></g><g id="K"><use transform="matrix(0.04938271604938272,0,0,0.04938271604938272,0,0)" xlink:href="#ah"/><use transform="matrix(0.04938271604938272,0,0,0.04938271604938272,9.876543209876544,0)" xlink:href="#O"/><use transform="matrix(0.04938271604938272,0,0,0.04938271604938272,19.75308641975309,0)" xlink:href="#ag"/><use transform="matrix(0.04938271604938272,0,0,0.04938271604938272,25.629629629629633,0)" xlink:href="#aa"/></g><path fill="#1071e5" d="M209 0H11v-25l151-195H24v-28h176v25L50-27h159V0" id="aX"/><use transform="matrix(0.06172839506172839,0,0,0.06172839506172839,0,0)" xlink:href="#aX" id="L"/></defs></g></svg>