<svg xmlns="http://www.w3.org/2000/svg" xmlns:xlink="http://www.w3.org/1999/xlink" xmlns:lucid="lucid" width="585.14" height="967.13"><g transform="translate(-253.53523185683014 290.00050950316245)" lucid:page-tab-id="0_0"><path d="M0-500h1000v1500H0z" fill="#fff"/><path d="M273.54-264a6 6 0 0 1 6-6h533.13a6 6 0 0 1 6 6v915.13a6 6 0 0 1-6 6H279.54a6 6 0 0 1-6-6z" fill="#ffeca9"/><path d="M294.35-270h5.92m11.85 0h5.92m11.85 0h5.9m11.86 0h5.92m11.85 0h5.92m11.85 0h5.93m11.84 0h5.93m11.84 0h5.93m11.84 0h5.94m11.85 0h5.9m11.86 0h5.92m11.85 0h5.92m11.85 0h5.92m11.85 0h5.92m11.84 0h5.93m11.84 0h5.94m11.84 0h5.93m11.86 0h5.92m11.85 0h5.92m11.85 0h5.92m11.85 0h5.92m11.84 0h5.92m11.85 0h5.94m11.84 0H709m11.85 0h5.93m11.85 0h5.92m11.85 0h5.92m11.85 0h5.92m11.84 0h5.92m11.85 0h2.97l.94.07.93.22.87.35.8.5.7.6.63.72.5.8.35.88.22.9.07.95v3m0 11.95v5.98m0 11.97v5.98m0 11.96v5.98m0 11.96v5.98m0 11.97v5.98m0 11.97v5.98m0 11.96v6m0 11.96v5.98m0 11.96v5.98m0 11.96v6m0 11.95v5.97m0 11.96v5.98m0 11.98v5.98m0 11.96v5.98m0 11.96v5.98m0 11.97v6m0 11.95v5.98m0 11.96v5.98m0 11.96v5.98m0 11.96v5.98m0 11.97v5.98m0 11.97v5.98m0 11.96v6m0 11.96v5.98m0 11.96v5.98m0 11.96v6m0 11.95v5.97m0 11.96v5.98m0 11.97v6m0 11.95v5.98m0 11.96v5.98m0 11.96v6m0 11.95v5.98m0 11.96v5.97m0 11.97v5.98m0 11.96v5.98m0 11.96v5.98m0 11.97v5.98m0 11.96v6m0 11.95v6m0 11.95v5.98m0 11.96v5.98m0 11.97v5.97m0 11.96v5.98m0 11.97v5.98m0 11.97v5.98m0 11.96v5.98m0 11.96v6m0 11.95v5.98m0 11.96v5.97m0 11.97v3l-.07.92-.22.92-.36.87-.5.8-.6.72-.72.6-.8.5-.87.36-.92.22-.93.08h-2.96m-11.84 0h-5.92m-11.85 0h-5.93m-11.85 0h-5.92m-11.85 0h-5.92m-11.85 0h-5.93m-11.84 0h-5.92m-11.85 0h-5.92m-11.84 0h-5.92m-11.85 0h-5.93m-11.85 0H632m-11.85 0h-5.92m-11.85 0h-5.92m-11.85 0h-5.92m-11.84 0h-5.93m-11.83 0h-5.93m-11.85 0h-5.93m-11.85 0h-5.92m-11.85 0h-5.92m-11.85 0h-5.92m-11.85 0h-5.9m-11.86 0h-5.93m-11.83 0h-5.93m-11.84 0h-5.93m-11.85 0h-5.92m-11.85 0h-5.92m-11.85 0h-5.92m-11.85 0h-5.9m-11.86 0h-5.92m-11.85 0h-5.92m-11.85 0h-2.96l-.94-.08-.92-.22-.87-.36-.8-.5-.7-.6-.62-.72-.5-.8-.35-.87-.22-.92-.06-.93v-3m0-11.96v-5.98m0-11.97v-5.98m0-11.97v-5.98m0-11.96v-5.98m0-11.96v-5.98m0-11.97v-5.98m0-11.96v-5.97m0-11.96v-5.98m0-11.98v-5.98m0-11.96v-5.98m0-11.96v-6m0-11.95v-6m0-11.95v-5.98m0-11.97v-5.98m0-11.96v-5.98m0-11.96v-5.98m0-11.97v-5.98m0-11.97v-5.98m0-11.96v-6m0-11.96v-5.98m0-11.96v-5.98m0-11.96v-6m0-11.95v-5.97m0-11.96v-5.98m0-11.97v-6m0-11.95v-5.98m0-11.96v-5.98m0-11.97v-6m0-11.95v-5.98m0-11.96v-5.97m0-11.97v-5.98m0-11.96v-5.98m0-11.96v-6m0-11.95v-5.98m0-11.96v-6m0-11.96V2.16m0-11.96v-5.98m0-11.96v-5.98m0-11.97v-5.97m0-11.96v-5.98m0-11.97v-6m0-11.95v-5.98m0-11.96v-5.98m0-11.96v-6m0-11.95v-5.98m0-11.96v-5.97m0-11.97v-5.98m0-11.96v-5.98m0-11.96v-5.98m0-11.97v-5.98m0-11.96v-3l.07-.94.23-.92.36-.86.48-.8.6-.72.73-.62.8-.5.88-.35.92-.23.94-.07h2.96" stroke="#5e5e5e" stroke-width="3" fill="none"/><use xlink:href="#a" transform="matrix(1,0,0,1,278.53523185683014,-265.00050950316245) translate(229.820987654321 17.77777777777778)"/><path d="M625.47 27.55a5 5 0 0 1 5-5h150a5 5 0 0 1 5 5v110a5 5 0 0 1-5 5h-150a5 5 0 0 1-5-5z" stroke="#000" stroke-width="2" fill="#ced4db"/><use xlink:href="#b" transform="matrix(1,0,0,1,637.4650711858301,34.5502151583359) translate(24.049999999999997 41.4)"/><use xlink:href="#c" transform="matrix(1,0,0,1,637.4650711858301,34.5502151583359) translate(44.05 63)"/><path d="M625.47-216.5a5 5 0 0 1 5-5h150a5 5 0 0 1 5 5v110a5 5 0 0 1-5 5h-150a5 5 0 0 1-5-5z" stroke="#000" stroke-width="2" fill="#fff"/><use xlink:href="#d" transform="matrix(1,0,0,1,637.4650711858301,-209.51325071028214) translate(20.074999999999996 50.4)"/><use xlink:href="#c" transform="matrix(1,0,0,1,637.4650711858301,-209.51325071028214) translate(68.025 50.4)"/><path d="M705.47-99.5V3.04" stroke="#3a414a" stroke-width="2" fill="none"/><path d="M706.47-99.5h-2v-1h2z" stroke="#3a414a" stroke-width=".05" fill="#3a414a"/><path d="M705.47 18.3l-4.64-14.25h9.27z" stroke="#3a414a" stroke-width="2" fill="#fff"/><path d="M625.47 318.7a5 5 0 0 1 5-5h150a5 5 0 0 1 5 5v110a5 5 0 0 1-5 5h-150a5 5 0 0 1-5-5z" stroke="#000" stroke-width="2" fill="#ced4db"/><use xlink:href="#b" transform="matrix(1,0,0,1,637.4650711858301,325.68698320012345) translate(24.049999999999997 41.4)"/><use xlink:href="#c" transform="matrix(1,0,0,1,637.4650711858301,325.68698320012345) translate(44.05 63)"/><path d="M707.34 310.87h-2v-72.1h2zm-.88-93.42h-2v-72.9h2z" stroke="#3a414a" stroke-width=".05" fill="#3a414a"/><path d="M706.47 144.58h-2v-1.03h2z" fill="#3a414a"/><path d="M706.5 144.6h-2.06v-1.07h2.05zm-2-1.03v.98h1.94v-.98zM706.34 308.76l9.32-15.76 1.72 1.02-11.04 18.67L695.3 294l1.72-1.02z" stroke="#3a414a" stroke-width=".05" fill="#3a414a"/><use xlink:href="#e" transform="matrix(1,0,0,1,673.8296177877421,217.45193222014925) translate(0.005000000000002558 14.222222222222223)"/><use xlink:href="#f" transform="matrix(1,0,0,1,673.8296177877421,217.45193222014925) translate(33.58524691358026 14.222222222222223)"/><path d="M302.5 124.7a5 5 0 0 1 5-5h150a5 5 0 0 1 5 5v110a5 5 0 0 1-5 5h-150a5 5 0 0 1-5-5z" stroke="#000" stroke-width="2" fill="#fff"/><use xlink:href="#d" transform="matrix(1,0,0,1,314.4935953171977,131.69606335445883) translate(21.074999999999996 50.4)"/><use xlink:href="#g" transform="matrix(1,0,0,1,314.4935953171977,131.69606335445883) translate(69.025 50.4)"/><path d="M302.5 255.02a5 5 0 0 1 5-5h150a5 5 0 0 1 5 5v110a5 5 0 0 1-5 5h-150a5 5 0 0 1-5-5z" stroke="#000" stroke-width="2" fill="#fff"/><use xlink:href="#d" transform="matrix(1,0,0,1,314.4935953171977,262.0230912014965) translate(20.549999999999997 41.4)"/><use xlink:href="#h" transform="matrix(1,0,0,1,314.4935953171977,262.0230912014965) translate(68.5 41.4)"/><use xlink:href="#c" transform="matrix(1,0,0,1,314.4935953171977,262.0230912014965) translate(44.05 63)"/><path d="M302.5 385.35a5 5 0 0 1 5-5h150a5 5 0 0 1 5 5v110a5 5 0 0 1-5 5h-150a5 5 0 0 1-5-5z" stroke="#000" stroke-width="2" fill="#fff"/><use xlink:href="#d" transform="matrix(1,0,0,1,314.4935953171977,392.3501190485342) translate(24.549999999999997 50.4)"/><use xlink:href="#i" transform="matrix(1,0,0,1,314.4935953171977,392.3501190485342) translate(72.5 50.4)"/><path d="M302.5 515.68a5 5 0 0 1 5-5h150a5 5 0 0 1 5 5v110a5 5 0 0 1-5 5h-150a5 5 0 0 1-5-5z" stroke="#000" stroke-width="2" fill="#fff"/><use xlink:href="#d" transform="matrix(1,0,0,1,314.4935953171977,522.6771468955719) translate(21.724999999999994 50.4)"/><use xlink:href="#j" transform="matrix(1,0,0,1,314.4935953171977,522.6771468955719) translate(69.675 50.4)"/><path d="M624.6 375.1L465.43 569.9l-1.55-1.26 159.2-194.8z" stroke="#3a414a" stroke-width=".05" fill="#3a414a"/><path d="M468.74 549.53l-2.76 18.1 17.2-6.3.68 1.88-20.37 7.48 3.26-21.45z" stroke="#3a414a" stroke-width=".05" fill="#3a414a"/><path d="M624.47 375l-1.43-1.15 1.43-1.74z" fill="#3a414a"/><path d="M624.5 375.06l-1.5-1.2 1.5-1.82zm-1.42-1.2l1.36 1.1v-2.78z" stroke="#3a414a" stroke-width=".05" fill="#3a414a"/><path d="M465.56 440.58l-.77-1.85 129.7-53.7h5.22zm158.36-65.6l-13.76 5.7v-2.15l13-5.38z" stroke="#3a414a" stroke-width=".05" fill="#3a414a"/><path d="M478.12 424.2l-11 14.65 18.13 2.58-.28 1.98-21.48-3.05L476.5 423z" stroke="#3a414a" stroke-width=".05" fill="#3a414a"/><path d="M624.47 374.77l-.57.23-.76-1.84 1.33-.56z" fill="#3a414a"/><path d="M624.5 374.8l-.6.24-.8-1.9 1.4-.57zm-1.33-1.63l.74 1.8.54-.22v-2.1z" stroke="#3a414a" stroke-width=".05" fill="#3a414a"/><path d="M623.9 372.4l-.73 1.85-13-5.15v-2.15zm-89.64-35.47v2.15l-69.44-27.46.73-1.86z" stroke="#3a414a" stroke-width=".05" fill="#3a414a"/><path d="M485.23 308.6l-18.08 2.87 11.22 14.46-1.58 1.23-13.3-17.14 21.42-3.4z" stroke="#3a414a" stroke-width=".05" fill="#3a414a"/><path d="M624.47 372.6v2.16l-1.33-.52.74-1.86z" fill="#3a414a"/><path d="M624.5 372.6v2.2l-1.4-.55.76-1.9zm-1.32 1.63l1.26.5v-2.1l-.55-.22z" stroke="#3a414a" stroke-width=".05" fill="#3a414a"/><use xlink:href="#k" transform="matrix(1,0,0,1,534.2567643158867,321.0191660955056) translate(0.005000000000002558 14.222222222222223)"/><use xlink:href="#l" transform="matrix(1,0,0,1,534.2567643158867,321.0191660955056) translate(21.165493827160496 35.55555555555556)"/><use xlink:href="#m" transform="matrix(1,0,0,1,534.2567643158867,321.0191660955056) translate(7.387716049382718 56.88888888888889)"/><use xlink:href="#n" transform="matrix(1,0,0,1,534.2567643158867,321.0191660955056) translate(47.83216049382717 56.88888888888889)"/><path d="M624.6 372.28l-1.54 1.28-12.9-15.55v-3.12zm-42.54-51.26h-2.6l-115.58-139.3 1.54-1.26z" stroke="#3a414a" stroke-width=".05" fill="#3a414a"/><path d="M483.9 187l-.66 1.9-17.24-6.18 2.9 18.08-1.98.3-3.43-21.4z" stroke="#3a414a" stroke-width=".05" fill="#3a414a"/><path d="M624.47 375.25l-1.43-1.7 1.43-1.2z" fill="#3a414a"/><path d="M624.5 375.32l-1.5-1.8 1.5-1.22zm-1.42-1.78l1.36 1.64v-2.77z" stroke="#3a414a" stroke-width=".05" fill="#3a414a"/><g fill="none"><path d="M292.4 100.63a6 6 0 0 1-6-6V84.56a6 6 0 0 1 6-6h180.18a6 6 0 0 1 6 6v10.07a6 6 0 0 1-6 6z"/><path d="M478.58 100.63c0-5.52-4.47-10-10-10h-76.1c-5.5 0-10-4.47-10-10 0 5.53-4.46 10-10 10H296.4c-5.52 0-10 4.48-10 10" stroke="#979ea8"/></g><path d="M425.08-59.8l-5.35 8.06-5 8.28-4.7 8.5-4.3 8.7-3.98 8.94-3.62 9.13-3.25 9.34-2.87 9.53-2.5 9.72-2.1 9.92-1.7 10.13-1.32 10.32-.87 10.4-1-.1.9-10.4 1.3-10.37 1.72-10.17 2.12-9.96 2.5-9.77 2.9-9.57 3.25-9.37 3.62-9.17 4-8.97 4.34-8.76 4.7-8.53 5.02-8.32 5.38-8.08.6-.84h1.24zM623.98-161l-10.7.22-10.96.7-10.77 1.12-10.57 1.56-10.36 1.98-10.16 2.38-9.95 2.78-9.73 3.16-9.5 3.54-9.3 3.9-9.07 4.27-8.82 4.62-8.57 4.95-.98.63h-1.87l2.34-1.48 8.6-4.98 8.86-4.63 9.1-4.27 9.33-3.92 9.54-3.54 9.78-3.18 10-2.8 10.2-2.38 10.4-1.98 10.6-1.57 10.82-1.14 11-.68 10.7-.22z" stroke="#979ea8" stroke-width=".05" fill="#979ea8"/><path d="M624.47-161h-.5l-.03-1h.52z" fill="#979ea8"/><path d="M624.5-161l-.57.02-.02-1.05h.6zm-.54-.98l.02.95h.46v-.96z" stroke="#979ea8" stroke-width=".05" fill="#979ea8"/><path d="M387.63 61.76l-5.08 14.12-4.2-14.4z" fill="#979ea8"/><path d="M388.33 61.3l-5.84 16.2-4.8-16.55zm-5.73 12.96l4.33-12.02-7.9-.25z" stroke="#979ea8" stroke-width=".05" fill="#979ea8"/><g><use xlink:href="#o" transform="matrix(1,0,0,1,295.89591178470863,-125.1984296616444) translate(13.313641975308656 14.222222222222223)"/><use xlink:href="#p" transform="matrix(1,0,0,1,295.89591178470863,-125.1984296616444) translate(29.116111111111124 14.222222222222223)"/><use xlink:href="#q" transform="matrix(1,0,0,1,295.89591178470863,-125.1984296616444) translate(76.47413580246916 14.222222222222223)"/><use xlink:href="#r" transform="matrix(1,0,0,1,295.89591178470863,-125.1984296616444) translate(128.72104938271607 14.222222222222223)"/><use xlink:href="#s" transform="matrix(1,0,0,1,295.89591178470863,-125.1984296616444) translate(146.44944444444448 14.222222222222223)"/><use xlink:href="#t" transform="matrix(1,0,0,1,295.89591178470863,-125.1984296616444) translate(161.2642592592593 14.222222222222223)"/><use xlink:href="#u" transform="matrix(1,0,0,1,295.89591178470863,-125.1984296616444) translate(253.01734567901238 14.222222222222223)"/><use xlink:href="#v" transform="matrix(1,0,0,1,295.89591178470863,-125.1984296616444) translate(0.0049999999999954525 35.55555555555556)"/><use xlink:href="#w" transform="matrix(1,0,0,1,295.89591178470863,-125.1984296616444) translate(36.449444444444445 35.55555555555556)"/><use xlink:href="#x" transform="matrix(1,0,0,1,295.89591178470863,-125.1984296616444) translate(80.84450617283952 35.55555555555556)"/><use xlink:href="#y" transform="matrix(1,0,0,1,295.89591178470863,-125.1984296616444) translate(158.72104938271607 35.55555555555556)"/><use xlink:href="#z" transform="matrix(1,0,0,1,295.89591178470863,-125.1984296616444) translate(178.47413580246916 35.55555555555556)"/><use xlink:href="#A" transform="matrix(1,0,0,1,295.89591178470863,-125.1984296616444) translate(226.81981481481483 35.55555555555556)"/><use xlink:href="#B" transform="matrix(1,0,0,1,295.89591178470863,-125.1984296616444) translate(22.17783950617286 56.88888888888889)"/><use xlink:href="#C" transform="matrix(1,0,0,1,295.89591178470863,-125.1984296616444) translate(83.31364197530866 56.88888888888889)"/><use xlink:href="#D" transform="matrix(1,0,0,1,295.89591178470863,-125.1984296616444) translate(119.75808641975311 56.88888888888889)"/><use xlink:href="#E" transform="matrix(1,0,0,1,295.89591178470863,-125.1984296616444) translate(168.15314814814818 56.88888888888889)"/><use xlink:href="#F" transform="matrix(1,0,0,1,295.89591178470863,-125.1984296616444) translate(248.9926543209877 56.88888888888889)"/></g><defs><path fill="#333" d="M190 0L58-211 59 0H30v-248h39L202-35l-2-213h31V0h-41" id="G"/><path fill="#333" d="M141-36C126-15 110 5 73 4 37 3 15-17 15-53c-1-64 63-63 125-63 3-35-9-54-41-54-24 1-41 7-42 31l-33-3c5-37 33-52 76-52 45 0 72 20 72 64v82c-1 20 7 32 28 27v20c-31 9-61-2-59-35zM48-53c0 20 12 33 32 33 41-3 63-29 60-74-43 2-92-5-92 41" id="H"/><path fill="#333" d="M210-169c-67 3-38 105-44 169h-31v-121c0-29-5-50-35-48C34-165 62-65 56 0H25l-1-190h30c1 10-1 24 2 32 10-44 99-50 107 0 11-21 27-35 58-36 85-2 47 119 55 194h-31v-121c0-29-5-49-35-48" id="I"/><path fill="#333" d="M24-231v-30h32v30H24zM24 0v-190h32V0H24" id="J"/><path fill="#333" d="M117-194c89-4 53 116 60 194h-32v-121c0-31-8-49-39-48C34-167 62-67 57 0H25l-1-190h30c1 10-1 24 2 32 11-22 29-35 61-36" id="K"/><path fill="#333" d="M177-190C167-65 218 103 67 71c-23-6-38-20-44-43l32-5c15 47 100 32 89-28v-30C133-14 115 1 83 1 29 1 15-40 15-95c0-56 16-97 71-98 29-1 48 16 59 35 1-10 0-23 2-32h30zM94-22c36 0 50-32 50-73 0-42-14-75-50-75-39 0-46 34-46 75s6 73 46 73" id="L"/><g id="a"><use transform="matrix(0.06172839506172839,0,0,0.06172839506172839,0,0)" xlink:href="#G"/><use transform="matrix(0.06172839506172839,0,0,0.06172839506172839,15.987654320987653,0)" xlink:href="#H"/><use transform="matrix(0.06172839506172839,0,0,0.06172839506172839,28.333333333333332,0)" xlink:href="#I"/><use transform="matrix(0.06172839506172839,0,0,0.06172839506172839,46.79012345679012,0)" xlink:href="#J"/><use transform="matrix(0.06172839506172839,0,0,0.06172839506172839,51.666666666666664,0)" xlink:href="#K"/><use transform="matrix(0.06172839506172839,0,0,0.06172839506172839,64.01234567901234,0)" xlink:href="#L"/></g><path d="M212-179c-10-28-35-45-73-45-59 0-87 40-87 99 0 60 29 101 89 101 43 0 62-24 78-52l27 14C228-24 195 4 139 4 59 4 22-46 18-125c-6-104 99-153 187-111 19 9 31 26 39 46" id="M"/><path d="M100-194c62-1 85 37 85 99 1 63-27 99-86 99S16-35 15-95c0-66 28-99 85-99zM99-20c44 1 53-31 53-75 0-43-8-75-51-75s-53 32-53 75 10 74 51 75" id="N"/><path d="M210-169c-67 3-38 105-44 169h-31v-121c0-29-5-50-35-48C34-165 62-65 56 0H25l-1-190h30c1 10-1 24 2 32 10-44 99-50 107 0 11-21 27-35 58-36 85-2 47 119 55 194h-31v-121c0-29-5-49-35-48" id="O"/><path d="M115-194c55 1 70 41 70 98S169 2 115 4C84 4 66-9 55-30l1 105H24l-1-265h31l2 30c10-21 28-34 59-34zm-8 174c40 0 45-34 45-75s-6-73-45-74c-42 0-51 32-51 76 0 43 10 73 51 73" id="P"/><path d="M84 4C-5 8 30-112 23-190h32v120c0 31 7 50 39 49 72-2 45-101 50-169h31l1 190h-30c-1-10 1-25-2-33-11 22-28 36-60 37" id="Q"/><path d="M117-194c89-4 53 116 60 194h-32v-121c0-31-8-49-39-48C34-167 62-67 57 0H25l-1-190h30c1 10-1 24 2 32 11-22 29-35 61-36" id="R"/><path d="M85-194c31 0 48 13 60 33l-1-100h32l1 261h-30c-2-10 0-23-3-31C134-8 116 4 85 4 32 4 16-35 15-94c0-66 23-100 70-100zm9 24c-40 0-46 34-46 75 0 40 6 74 45 74 42 0 51-32 51-76 0-42-9-74-50-73" id="S"/><g id="b"><use transform="matrix(0.05,0,0,0.05,0,0)" xlink:href="#M"/><use transform="matrix(0.05,0,0,0.05,12.950000000000001,0)" xlink:href="#N"/><use transform="matrix(0.05,0,0,0.05,22.950000000000003,0)" xlink:href="#O"/><use transform="matrix(0.05,0,0,0.05,37.900000000000006,0)" xlink:href="#P"/><use transform="matrix(0.05,0,0,0.05,47.900000000000006,0)" xlink:href="#N"/><use transform="matrix(0.05,0,0,0.05,57.900000000000006,0)" xlink:href="#Q"/><use transform="matrix(0.05,0,0,0.05,67.9,0)" xlink:href="#R"/><use transform="matrix(0.05,0,0,0.05,77.9,0)" xlink:href="#S"/></g><path d="M190 0L58-211 59 0H30v-248h39L202-35l-2-213h31V0h-41" id="T"/><path d="M141-36C126-15 110 5 73 4 37 3 15-17 15-53c-1-64 63-63 125-63 3-35-9-54-41-54-24 1-41 7-42 31l-33-3c5-37 33-52 76-52 45 0 72 20 72 64v82c-1 20 7 32 28 27v20c-31 9-61-2-59-35zM48-53c0 20 12 33 32 33 41-3 63-29 60-74-43 2-92-5-92 41" id="U"/><path d="M100-194c63 0 86 42 84 106H49c0 40 14 67 53 68 26 1 43-12 49-29l28 8c-11 28-37 45-77 45C44 4 14-33 15-96c1-61 26-98 85-98zm52 81c6-60-76-77-97-28-3 7-6 17-6 28h103" id="V"/><g id="c"><use transform="matrix(0.05,0,0,0.05,0,0)" xlink:href="#T"/><use transform="matrix(0.05,0,0,0.05,12.950000000000001,0)" xlink:href="#U"/><use transform="matrix(0.05,0,0,0.05,22.950000000000003,0)" xlink:href="#O"/><use transform="matrix(0.05,0,0,0.05,37.900000000000006,0)" xlink:href="#V"/></g><path d="M233-177c-1 41-23 64-60 70L243 0h-38l-65-103H63V0H30v-248c88 3 205-21 203 71zM63-129c60-2 137 13 137-47 0-61-80-42-137-45v92" id="W"/><g id="d"><use transform="matrix(0.05,0,0,0.05,0,0)" xlink:href="#W"/><use transform="matrix(0.05,0,0,0.05,12.950000000000001,0)" xlink:href="#N"/><use transform="matrix(0.05,0,0,0.05,22.950000000000003,0)" xlink:href="#U"/><use transform="matrix(0.05,0,0,0.05,32.95,0)" xlink:href="#S"/></g><path fill="#333" d="M106-169C34-169 62-67 57 0H25v-261h32l-1 103c12-21 28-36 61-36 89 0 53 116 60 194h-32v-121c2-32-8-49-39-48" id="X"/><path fill="#333" d="M135-143c-3-34-86-38-87 0 15 53 115 12 119 90S17 21 10-45l28-5c4 36 97 45 98 0-10-56-113-15-118-90-4-57 82-63 122-42 12 7 21 19 24 35" id="Y"/><g id="e"><use transform="matrix(0.04938271604938272,0,0,0.04938271604938272,0,0)" xlink:href="#X"/><use transform="matrix(0.04938271604938272,0,0,0.04938271604938272,9.876543209876544,0)" xlink:href="#H"/><use transform="matrix(0.04938271604938272,0,0,0.04938271604938272,19.75308641975309,0)" xlink:href="#Y"/></g><path fill="#333" d="M115-194c55 1 70 41 70 98S169 2 115 4C84 4 66-9 55-30l1 105H24l-1-265h31l2 30c10-21 28-34 59-34zm-8 174c40 0 45-34 45-75s-6-73-45-74c-42 0-51 32-51 76 0 43 10 73 51 73" id="Z"/><path fill="#333" d="M114-163C36-179 61-72 57 0H25l-1-190h30c1 12-1 29 2 39 6-27 23-49 58-41v29" id="aa"/><path fill="#333" d="M59-47c-2 24 18 29 38 22v24C64 9 27 4 27-40v-127H5v-23h24l9-43h21v43h35v23H59v120" id="ab"/><g id="f"><use transform="matrix(0.04938271604938272,0,0,0.04938271604938272,0,0)" xlink:href="#Z"/><use transform="matrix(0.04938271604938272,0,0,0.04938271604938272,9.876543209876544,0)" xlink:href="#H"/><use transform="matrix(0.04938271604938272,0,0,0.04938271604938272,19.75308641975309,0)" xlink:href="#aa"/><use transform="matrix(0.04938271604938272,0,0,0.04938271604938272,25.629629629629633,0)" xlink:href="#ab"/></g><path d="M30-248c87 1 191-15 191 75 0 78-77 80-158 76V0H30v-248zm33 125c57 0 124 11 124-50 0-59-68-47-124-48v98" id="ac"/><path d="M114-163C36-179 61-72 57 0H25l-1-190h30c1 12-1 29 2 39 6-27 23-49 58-41v29" id="ad"/><path d="M101-234c-31-9-42 10-38 44h38v23H63V0H32v-167H5v-23h27c-7-52 17-82 69-68v24" id="ae"/><path d="M24-231v-30h32v30H24zM24 0v-190h32V0H24" id="af"/><path d="M141 0L90-78 38 0H4l68-98-65-92h35l48 74 47-74h35l-64 92 68 98h-35" id="ag"/><g id="g"><use transform="matrix(0.05,0,0,0.05,0,0)" xlink:href="#ac"/><use transform="matrix(0.05,0,0,0.05,12,0)" xlink:href="#ad"/><use transform="matrix(0.05,0,0,0.05,17.95,0)" xlink:href="#V"/><use transform="matrix(0.05,0,0,0.05,27.950000000000003,0)" xlink:href="#ae"/><use transform="matrix(0.05,0,0,0.05,32.95,0)" xlink:href="#af"/><use transform="matrix(0.05,0,0,0.05,36.900000000000006,0)" xlink:href="#ag"/></g><path d="M143 4C61 4 22-44 18-125c-5-107 100-154 193-111 17 8 29 25 37 43l-32 9c-13-25-37-40-76-40-61 0-88 39-88 99 0 61 29 100 91 101 35 0 62-11 79-27v-45h-74v-28h105v86C228-13 192 4 143 4" id="ah"/><path d="M108 0H70L1-190h34L89-25l56-165h34" id="ai"/><g id="h"><use transform="matrix(0.05,0,0,0.05,0,0)" xlink:href="#ah"/><use transform="matrix(0.05,0,0,0.05,14,0)" xlink:href="#af"/><use transform="matrix(0.05,0,0,0.05,17.95,0)" xlink:href="#ai"/><use transform="matrix(0.05,0,0,0.05,26.950000000000003,0)" xlink:href="#V"/><use transform="matrix(0.05,0,0,0.05,36.95,0)" xlink:href="#R"/></g><path d="M127-220V0H93v-220H8v-28h204v28h-85" id="aj"/><path d="M179-190L93 31C79 59 56 82 12 73V49c39 6 53-20 64-50L1-190h34L92-34l54-156h33" id="ak"/><g id="i"><use transform="matrix(0.05,0,0,0.05,0,0)" xlink:href="#aj"/><use transform="matrix(0.05,0,0,0.05,9.950000000000001,0)" xlink:href="#ak"/><use transform="matrix(0.05,0,0,0.05,18.950000000000003,0)" xlink:href="#P"/><use transform="matrix(0.05,0,0,0.05,28.950000000000003,0)" xlink:href="#V"/></g><path d="M185-189c-5-48-123-54-124 2 14 75 158 14 163 119 3 78-121 87-175 55-17-10-28-26-33-46l33-7c5 56 141 63 141-1 0-78-155-14-162-118-5-82 145-84 179-34 5 7 8 16 11 25" id="al"/><g id="j"><use transform="matrix(0.05,0,0,0.05,0,0)" xlink:href="#al"/><use transform="matrix(0.05,0,0,0.05,12,0)" xlink:href="#Q"/><use transform="matrix(0.05,0,0,0.05,22,0)" xlink:href="#ae"/><use transform="matrix(0.05,0,0,0.05,26.649999999999995,0)" xlink:href="#ae"/><use transform="matrix(0.05,0,0,0.05,31.649999999999995,0)" xlink:href="#af"/><use transform="matrix(0.05,0,0,0.05,35.6,0)" xlink:href="#ag"/></g><path fill="#333" d="M85-194c31 0 48 13 60 33l-1-100h32l1 261h-30c-2-10 0-23-3-31C134-8 116 4 85 4 32 4 16-35 15-94c0-66 23-100 70-100zm9 24c-40 0-46 34-46 75 0 40 6 74 45 74 42 0 51-32 51-76 0-42-9-74-50-73" id="am"/><path fill="#333" d="M100-194c62-1 85 37 85 99 1 63-27 99-86 99S16-35 15-95c0-66 28-99 85-99zM99-20c44 1 53-31 53-75 0-43-8-75-51-75s-53 32-53 75 10 74 51 75" id="an"/><path fill="#333" d="M24 0v-261h32V0H24" id="ao"/><g id="k"><use transform="matrix(0.04938271604938272,0,0,0.04938271604938272,0,0)" xlink:href="#H"/><use transform="matrix(0.04938271604938272,0,0,0.04938271604938272,9.876543209876544,0)" xlink:href="#am"/><use transform="matrix(0.04938271604938272,0,0,0.04938271604938272,19.75308641975309,0)" xlink:href="#am"/><use transform="matrix(0.04938271604938272,0,0,0.04938271604938272,29.629629629629633,0)" xlink:href="#J"/><use transform="matrix(0.04938271604938272,0,0,0.04938271604938272,33.53086419753087,0)" xlink:href="#ab"/><use transform="matrix(0.04938271604938272,0,0,0.04938271604938272,38.46913580246914,0)" xlink:href="#J"/><use transform="matrix(0.04938271604938272,0,0,0.04938271604938272,42.370370370370374,0)" xlink:href="#an"/><use transform="matrix(0.04938271604938272,0,0,0.04938271604938272,52.24691358024692,0)" xlink:href="#K"/><use transform="matrix(0.04938271604938272,0,0,0.04938271604938272,62.12345679012346,0)" xlink:href="#H"/><use transform="matrix(0.04938271604938272,0,0,0.04938271604938272,72,0)" xlink:href="#ao"/></g><path fill="#333" d="M179-190L93 31C79 59 56 82 12 73V49c39 6 53-20 64-50L1-190h34L92-34l54-156h33" id="ap"/><path fill="#333" d="M100-194c63 0 86 42 84 106H49c0 40 14 67 53 68 26 1 43-12 49-29l28 8c-11 28-37 45-77 45C44 4 14-33 15-96c1-61 26-98 85-98zm52 81c6-60-76-77-97-28-3 7-6 17-6 28h103" id="aq"/><g id="l"><use transform="matrix(0.04938271604938272,0,0,0.04938271604938272,0,0)" xlink:href="#ab"/><use transform="matrix(0.04938271604938272,0,0,0.04938271604938272,4.938271604938272,0)" xlink:href="#ap"/><use transform="matrix(0.04938271604938272,0,0,0.04938271604938272,13.827160493827162,0)" xlink:href="#Z"/><use transform="matrix(0.04938271604938272,0,0,0.04938271604938272,23.703703703703706,0)" xlink:href="#aq"/></g><path fill="#333" d="M17-49c1-102 45-165 103-212h30C92-210 49-145 49-46 49 4 63 43 85 75H54C30 43 18 2 17-49" id="ar"/><path fill="#333" d="M30-147c31-64 166-65 159 27C183-49 158 1 86 4 9 8 1-88 30-147zM88-20c53 0 68-48 68-100 0-31-11-51-44-50-52 1-68 46-68 97 0 32 13 53 44 53" id="as"/><path fill="#333" d="M67-158c22-48 132-52 116 29L158 0h-32l25-140c3-38-53-32-70-12C52-117 51-52 38 0H6l36-190h30" id="at"/><path fill="#333" d="M111-194c62-3 86 47 72 106H45c-7 38 6 69 45 68 27-1 43-14 53-32l24 11C152-15 129 4 87 4 38 3 12-23 12-71c0-70 32-119 99-123zm44 81c14-66-71-72-95-28-4 8-8 17-11 28h106" id="au"/><g id="m"><use transform="matrix(0.04938271604938272,0,0,0.04938271604938272,0,0)" xlink:href="#ar"/><use transform="matrix(0.04938271604938272,0,0,0.04938271604938272,5.8765432098765435,0)" xlink:href="#as"/><use transform="matrix(0.04938271604938272,0,0,0.04938271604938272,15.753086419753087,0)" xlink:href="#at"/><use transform="matrix(0.04938271604938272,0,0,0.04938271604938272,25.629629629629633,0)" xlink:href="#au"/></g><path fill="#333" d="M76-167L44 0H12l33-167H18l4-23h27c3-47 25-81 82-69l-4 24c-35-8-44 15-46 45h37l-5 23H76" id="av"/><path fill="#333" d="M98-137C97-35 54 29-4 75h-31C23 23 67-41 67-140c0-50-15-89-37-121h31c24 32 36 73 37 124" id="aw"/><g id="n"><use transform="matrix(0.04938271604938272,0,0,0.04938271604938272,0,0)" xlink:href="#as"/><use transform="matrix(0.04938271604938272,0,0,0.04938271604938272,9.876543209876544,0)" xlink:href="#av"/><use transform="matrix(0.04938271604938272,0,0,0.04938271604938272,14.814814814814817,0)" xlink:href="#aw"/></g><path fill="#979ea8" d="M205 0l-28-72H64L36 0H1l101-248h38L239 0h-34zm-38-99l-47-123c-12 45-31 82-46 123h93" id="ax"/><use transform="matrix(0.04938271604938272,0,0,0.04938271604938272,0,0)" xlink:href="#ax" id="o"/><path fill="#979ea8" d="M233-177c-1 41-23 64-60 70L243 0h-38l-65-103H63V0H30v-248c88 3 205-21 203 71zM63-129c60-2 137 13 137-47 0-61-80-42-137-45v92" id="ay"/><path fill="#979ea8" d="M100-194c62-1 85 37 85 99 1 63-27 99-86 99S16-35 15-95c0-66 28-99 85-99zM99-20c44 1 53-31 53-75 0-43-8-75-51-75s-53 32-53 75 10 74 51 75" id="az"/><path fill="#979ea8" d="M141-36C126-15 110 5 73 4 37 3 15-17 15-53c-1-64 63-63 125-63 3-35-9-54-41-54-24 1-41 7-42 31l-33-3c5-37 33-52 76-52 45 0 72 20 72 64v82c-1 20 7 32 28 27v20c-31 9-61-2-59-35zM48-53c0 20 12 33 32 33 41-3 63-29 60-74-43 2-92-5-92 41" id="aA"/><path fill="#979ea8" d="M85-194c31 0 48 13 60 33l-1-100h32l1 261h-30c-2-10 0-23-3-31C134-8 116 4 85 4 32 4 16-35 15-94c0-66 23-100 70-100zm9 24c-40 0-46 34-46 75 0 40 6 74 45 74 42 0 51-32 51-76 0-42-9-74-50-73" id="aB"/><g id="p"><use transform="matrix(0.04938271604938272,0,0,0.04938271604938272,0,0)" xlink:href="#ay"/><use transform="matrix(0.04938271604938272,0,0,0.04938271604938272,12.790123456790125,0)" xlink:href="#az"/><use transform="matrix(0.04938271604938272,0,0,0.04938271604938272,22.66666666666667,0)" xlink:href="#aA"/><use transform="matrix(0.04938271604938272,0,0,0.04938271604938272,32.543209876543216,0)" xlink:href="#aB"/></g><path fill="#979ea8" d="M190 0L58-211 59 0H30v-248h39L202-35l-2-213h31V0h-41" id="aC"/><path fill="#979ea8" d="M210-169c-67 3-38 105-44 169h-31v-121c0-29-5-50-35-48C34-165 62-65 56 0H25l-1-190h30c1 10-1 24 2 32 10-44 99-50 107 0 11-21 27-35 58-36 85-2 47 119 55 194h-31v-121c0-29-5-49-35-48" id="aD"/><path fill="#979ea8" d="M100-194c63 0 86 42 84 106H49c0 40 14 67 53 68 26 1 43-12 49-29l28 8c-11 28-37 45-77 45C44 4 14-33 15-96c1-61 26-98 85-98zm52 81c6-60-76-77-97-28-3 7-6 17-6 28h103" id="aE"/><g id="q"><use transform="matrix(0.04938271604938272,0,0,0.04938271604938272,0,0)" xlink:href="#aC"/><use transform="matrix(0.04938271604938272,0,0,0.04938271604938272,12.790123456790125,0)" xlink:href="#aA"/><use transform="matrix(0.04938271604938272,0,0,0.04938271604938272,22.66666666666667,0)" xlink:href="#aD"/><use transform="matrix(0.04938271604938272,0,0,0.04938271604938272,37.4320987654321,0)" xlink:href="#aE"/></g><path fill="#979ea8" d="M24-231v-30h32v30H24zM24 0v-190h32V0H24" id="aF"/><path fill="#979ea8" d="M135-143c-3-34-86-38-87 0 15 53 115 12 119 90S17 21 10-45l28-5c4 36 97 45 98 0-10-56-113-15-118-90-4-57 82-63 122-42 12 7 21 19 24 35" id="aG"/><g id="r"><use transform="matrix(0.04938271604938272,0,0,0.04938271604938272,0,0)" xlink:href="#aF"/><use transform="matrix(0.04938271604938272,0,0,0.04938271604938272,3.901234567901235,0)" xlink:href="#aG"/></g><use transform="matrix(0.04938271604938272,0,0,0.04938271604938272,0,0)" xlink:href="#aA" id="s"/><path fill="#979ea8" d="M212-179c-10-28-35-45-73-45-59 0-87 40-87 99 0 60 29 101 89 101 43 0 62-24 78-52l27 14C228-24 195 4 139 4 59 4 22-46 18-125c-6-104 99-153 187-111 19 9 31 26 39 46" id="aH"/><path fill="#979ea8" d="M115-194c55 1 70 41 70 98S169 2 115 4C84 4 66-9 55-30l1 105H24l-1-265h31l2 30c10-21 28-34 59-34zm-8 174c40 0 45-34 45-75s-6-73-45-74c-42 0-51 32-51 76 0 43 10 73 51 73" id="aI"/><path fill="#979ea8" d="M84 4C-5 8 30-112 23-190h32v120c0 31 7 50 39 49 72-2 45-101 50-169h31l1 190h-30c-1-10 1-25-2-33-11 22-28 36-60 37" id="aJ"/><path fill="#979ea8" d="M117-194c89-4 53 116 60 194h-32v-121c0-31-8-49-39-48C34-167 62-67 57 0H25l-1-190h30c1 10-1 24 2 32 11-22 29-35 61-36" id="aK"/><g id="t"><use transform="matrix(0.04938271604938272,0,0,0.04938271604938272,0,0)" xlink:href="#aH"/><use transform="matrix(0.04938271604938272,0,0,0.04938271604938272,12.790123456790125,0)" xlink:href="#az"/><use transform="matrix(0.04938271604938272,0,0,0.04938271604938272,22.66666666666667,0)" xlink:href="#aD"/><use transform="matrix(0.04938271604938272,0,0,0.04938271604938272,37.4320987654321,0)" xlink:href="#aI"/><use transform="matrix(0.04938271604938272,0,0,0.04938271604938272,47.308641975308646,0)" xlink:href="#az"/><use transform="matrix(0.04938271604938272,0,0,0.04938271604938272,57.18518518518519,0)" xlink:href="#aJ"/><use transform="matrix(0.04938271604938272,0,0,0.04938271604938272,67.06172839506173,0)" xlink:href="#aK"/><use transform="matrix(0.04938271604938272,0,0,0.04938271604938272,76.93827160493828,0)" xlink:href="#aB"/></g><g id="u"><use transform="matrix(0.04938271604938272,0,0,0.04938271604938272,0,0)" xlink:href="#aC"/><use transform="matrix(0.04938271604938272,0,0,0.04938271604938272,12.790123456790125,0)" xlink:href="#aA"/><use transform="matrix(0.04938271604938272,0,0,0.04938271604938272,22.66666666666667,0)" xlink:href="#aD"/><use transform="matrix(0.04938271604938272,0,0,0.04938271604938272,37.4320987654321,0)" xlink:href="#aE"/></g><path fill="#979ea8" d="M206 0h-36l-40-164L89 0H53L-1-190h32L70-26l43-164h34l41 164 42-164h31" id="aL"/><path fill="#979ea8" d="M59-47c-2 24 18 29 38 22v24C64 9 27 4 27-40v-127H5v-23h24l9-43h21v43h35v23H59v120" id="aM"/><path fill="#979ea8" d="M106-169C34-169 62-67 57 0H25v-261h32l-1 103c12-21 28-36 61-36 89 0 53 116 60 194h-32v-121c2-32-8-49-39-48" id="aN"/><g id="v"><use transform="matrix(0.04938271604938272,0,0,0.04938271604938272,0,0)" xlink:href="#aL"/><use transform="matrix(0.04938271604938272,0,0,0.04938271604938272,12.790123456790125,0)" xlink:href="#aF"/><use transform="matrix(0.04938271604938272,0,0,0.04938271604938272,16.69135802469136,0)" xlink:href="#aM"/><use transform="matrix(0.04938271604938272,0,0,0.04938271604938272,21.629629629629633,0)" xlink:href="#aN"/></g><path fill="#979ea8" d="M114-163C36-179 61-72 57 0H25l-1-190h30c1 12-1 29 2 39 6-27 23-49 58-41v29" id="aO"/><g id="w"><use transform="matrix(0.04938271604938272,0,0,0.04938271604938272,0,0)" xlink:href="#aI"/><use transform="matrix(0.04938271604938272,0,0,0.04938271604938272,9.876543209876544,0)" xlink:href="#aA"/><use transform="matrix(0.04938271604938272,0,0,0.04938271604938272,19.75308641975309,0)" xlink:href="#aO"/><use transform="matrix(0.04938271604938272,0,0,0.04938271604938272,25.629629629629633,0)" xlink:href="#aM"/><use transform="matrix(0.04938271604938272,0,0,0.04938271604938272,30.567901234567906,0)" xlink:href="#aG"/></g><path fill="#979ea8" d="M96-169c-40 0-48 33-48 73s9 75 48 75c24 0 41-14 43-38l32 2c-6 37-31 61-74 61-59 0-76-41-82-99-10-93 101-131 147-64 4 7 5 14 7 22l-32 3c-4-21-16-35-41-35" id="aP"/><g id="x"><use transform="matrix(0.04938271604938272,0,0,0.04938271604938272,0,0)" xlink:href="#aO"/><use transform="matrix(0.04938271604938272,0,0,0.04938271604938272,5.8765432098765435,0)" xlink:href="#aE"/><use transform="matrix(0.04938271604938272,0,0,0.04938271604938272,15.753086419753087,0)" xlink:href="#aG"/><use transform="matrix(0.04938271604938272,0,0,0.04938271604938272,24.641975308641978,0)" xlink:href="#aM"/><use transform="matrix(0.04938271604938272,0,0,0.04938271604938272,29.58024691358025,0)" xlink:href="#aO"/><use transform="matrix(0.04938271604938272,0,0,0.04938271604938272,35.45679012345679,0)" xlink:href="#aF"/><use transform="matrix(0.04938271604938272,0,0,0.04938271604938272,39.358024691358025,0)" xlink:href="#aP"/><use transform="matrix(0.04938271604938272,0,0,0.04938271604938272,48.24691358024691,0)" xlink:href="#aM"/><use transform="matrix(0.04938271604938272,0,0,0.04938271604938272,53.185185185185176,0)" xlink:href="#aE"/><use transform="matrix(0.04938271604938272,0,0,0.04938271604938272,63.06172839506172,0)" xlink:href="#aB"/></g><g id="y"><use transform="matrix(0.04938271604938272,0,0,0.04938271604938272,0,0)" xlink:href="#aM"/><use transform="matrix(0.04938271604938272,0,0,0.04938271604938272,4.938271604938272,0)" xlink:href="#az"/></g><path fill="#979ea8" d="M115-194c53 0 69 39 70 98 0 66-23 100-70 100C84 3 66-7 56-30L54 0H23l1-261h32v101c10-23 28-34 59-34zm-8 174c40 0 45-34 45-75 0-40-5-75-45-74-42 0-51 32-51 76 0 43 10 73 51 73" id="aQ"/><path fill="#979ea8" d="M177-190C167-65 218 103 67 71c-23-6-38-20-44-43l32-5c15 47 100 32 89-28v-30C133-14 115 1 83 1 29 1 15-40 15-95c0-56 16-97 71-98 29-1 48 16 59 35 1-10 0-23 2-32h30zM94-22c36 0 50-32 50-73 0-42-14-75-50-75-39 0-46 34-46 75s6 73 46 73" id="aR"/><g id="z"><use transform="matrix(0.04938271604938272,0,0,0.04938271604938272,0,0)" xlink:href="#aQ"/><use transform="matrix(0.04938271604938272,0,0,0.04938271604938272,9.876543209876544,0)" xlink:href="#aE"/><use transform="matrix(0.04938271604938272,0,0,0.04938271604938272,19.75308641975309,0)" xlink:href="#aF"/><use transform="matrix(0.04938271604938272,0,0,0.04938271604938272,23.654320987654323,0)" xlink:href="#aK"/><use transform="matrix(0.04938271604938272,0,0,0.04938271604938272,33.53086419753087,0)" xlink:href="#aR"/></g><g id="A"><use transform="matrix(0.04938271604938272,0,0,0.04938271604938272,0,0)" xlink:href="#aH"/><use transform="matrix(0.04938271604938272,0,0,0.04938271604938272,12.790123456790125,0)" xlink:href="#az"/><use transform="matrix(0.04938271604938272,0,0,0.04938271604938272,22.66666666666667,0)" xlink:href="#aD"/><use transform="matrix(0.04938271604938272,0,0,0.04938271604938272,37.4320987654321,0)" xlink:href="#aI"/><use transform="matrix(0.04938271604938272,0,0,0.04938271604938272,47.308641975308646,0)" xlink:href="#az"/><use transform="matrix(0.04938271604938272,0,0,0.04938271604938272,57.18518518518519,0)" xlink:href="#aJ"/><use transform="matrix(0.04938271604938272,0,0,0.04938271604938272,67.06172839506173,0)" xlink:href="#aK"/><use transform="matrix(0.04938271604938272,0,0,0.04938271604938272,76.93827160493828,0)" xlink:href="#aB"/></g><g id="B"><use transform="matrix(0.04938271604938272,0,0,0.04938271604938272,0,0)" xlink:href="#aC"/><use transform="matrix(0.04938271604938272,0,0,0.04938271604938272,12.790123456790125,0)" xlink:href="#aA"/><use transform="matrix(0.04938271604938272,0,0,0.04938271604938272,22.66666666666667,0)" xlink:href="#aD"/><use transform="matrix(0.04938271604938272,0,0,0.04938271604938272,37.4320987654321,0)" xlink:href="#aE"/><use transform="matrix(0.04938271604938272,0,0,0.04938271604938272,47.308641975308646,0)" xlink:href="#aG"/></g><g id="C"><use transform="matrix(0.04938271604938272,0,0,0.04938271604938272,0,0)" xlink:href="#aL"/><use transform="matrix(0.04938271604938272,0,0,0.04938271604938272,12.790123456790125,0)" xlink:href="#aF"/><use transform="matrix(0.04938271604938272,0,0,0.04938271604938272,16.69135802469136,0)" xlink:href="#aM"/><use transform="matrix(0.04938271604938272,0,0,0.04938271604938272,21.629629629629633,0)" xlink:href="#aN"/></g><g id="D"><use transform="matrix(0.04938271604938272,0,0,0.04938271604938272,0,0)" xlink:href="#aM"/><use transform="matrix(0.04938271604938272,0,0,0.04938271604938272,4.938271604938272,0)" xlink:href="#aN"/><use transform="matrix(0.04938271604938272,0,0,0.04938271604938272,14.814814814814817,0)" xlink:href="#aE"/><use transform="matrix(0.04938271604938272,0,0,0.04938271604938272,24.69135802469136,0)" xlink:href="#aG"/><use transform="matrix(0.04938271604938272,0,0,0.04938271604938272,33.580246913580254,0)" xlink:href="#aE"/></g><path fill="#979ea8" d="M24 0v-261h32V0H24" id="aS"/><g id="E"><use transform="matrix(0.04938271604938272,0,0,0.04938271604938272,0,0)" xlink:href="#aA"/><use transform="matrix(0.04938271604938272,0,0,0.04938271604938272,9.876543209876544,0)" xlink:href="#aB"/><use transform="matrix(0.04938271604938272,0,0,0.04938271604938272,19.75308641975309,0)" xlink:href="#aB"/><use transform="matrix(0.04938271604938272,0,0,0.04938271604938272,29.629629629629633,0)" xlink:href="#aF"/><use transform="matrix(0.04938271604938272,0,0,0.04938271604938272,33.53086419753087,0)" xlink:href="#aM"/><use transform="matrix(0.04938271604938272,0,0,0.04938271604938272,38.46913580246914,0)" xlink:href="#aF"/><use transform="matrix(0.04938271604938272,0,0,0.04938271604938272,42.370370370370374,0)" xlink:href="#az"/><use transform="matrix(0.04938271604938272,0,0,0.04938271604938272,52.24691358024692,0)" xlink:href="#aK"/><use transform="matrix(0.04938271604938272,0,0,0.04938271604938272,62.12345679012346,0)" xlink:href="#aA"/><use transform="matrix(0.04938271604938272,0,0,0.04938271604938272,72,0)" xlink:href="#aS"/></g><path fill="#979ea8" d="M179-190L93 31C79 59 56 82 12 73V49c39 6 53-20 64-50L1-190h34L92-34l54-156h33" id="aT"/><g id="F"><use transform="matrix(0.04938271604938272,0,0,0.04938271604938272,0,0)" xlink:href="#aM"/><use transform="matrix(0.04938271604938272,0,0,0.04938271604938272,4.938271604938272,0)" xlink:href="#aT"/><use transform="matrix(0.04938271604938272,0,0,0.04938271604938272,13.827160493827162,0)" xlink:href="#aI"/><use transform="matrix(0.04938271604938272,0,0,0.04938271604938272,23.703703703703706,0)" xlink:href="#aE"/><use transform="matrix(0.04938271604938272,0,0,0.04938271604938272,33.580246913580254,0)" xlink:href="#aG"/></g></defs></g></svg>