<svg xmlns="http://www.w3.org/2000/svg" xmlns:xlink="http://www.w3.org/1999/xlink" xmlns:lucid="lucid" width="1074.3" height="630.03"><g transform="translate(-160.85116557076583 -19.301600399024466)" lucid:page-tab-id="1rG4lRqhq-aq"><path d="M0 0h1500v1000H0z" fill="#fff"/><path d="M653.58 296.3h-19.3v-2h19.3zm107.32 0h-18.48v-2h18.48z" stroke="#000" stroke-width=".05"/><path d="M634.3 296.3h-1.02v-2h1.03z"/><path d="M634.33 296.33h-1.07v-2.05h1.07zm-1.02-2v1.95h.98v-1.95zM762.72 295.3l-18.67 11.04-1.02-1.72 15.76-9.32-15.77-9.32 1.02-1.72z" stroke="#000" stroke-width=".05"/><use xlink:href="#a" transform="matrix(1,0,0,1,653.575,273.7016003990243) translate(0.005000000000002558 14.4)"/><use xlink:href="#b" transform="matrix(1,0,0,1,653.575,273.7016003990243) translate(17.955000000000002 14.4)"/><use xlink:href="#c" transform="matrix(1,0,0,1,653.575,273.7016003990243) translate(67.905 14.4)"/><use xlink:href="#d" transform="matrix(1,0,0,1,653.575,273.7016003990243) translate(25.930000000000007 36)"/><path d="M472.28 240.3a5 5 0 0 1 5-5h150a5 5 0 0 1 5 5v110a5 5 0 0 1-5 5h-150a5 5 0 0 1-5-5z" stroke="#000" stroke-width="2" fill="#fff"/><use xlink:href="#e" transform="matrix(1,0,0,1,484.28372185692194,247.30160039902432) translate(20.074999999999996 50.4)"/><use xlink:href="#f" transform="matrix(1,0,0,1,484.28372185692194,247.30160039902432) translate(68.025 50.4)"/><path d="M763.72 240.3a5 5 0 0 1 5-5h150a5 5 0 0 1 5 5v110a5 5 0 0 1-5 5h-150a5 5 0 0 1-5-5z" stroke="#000" stroke-width="2" fill="#fff"/><use xlink:href="#e" transform="matrix(1,0,0,1,775.7162781430781,247.30160039902432) translate(18.049999999999997 50.4)"/><use xlink:href="#g" transform="matrix(1,0,0,1,775.7162781430781,247.30160039902432) translate(66 50.4)"/><path d="M720.88 507.56l-1.55-1.27 36.73-44.76h2.6zM843.86 357.7l-14.3 17.44h-2.6l15.35-18.7z" stroke="#000" stroke-width=".05"/><path d="M843.84 357.73l-1.55-1.27.12-.16h2.6z"/><path d="M843.84 357.76l-1.58-1.3.15-.18h2.66zm-1.4-1.43l-.1.13 1.5 1.23 1.12-1.37zM724.24 487.2l-2.8 18.1 17.2-6.27.7 1.88-20.4 7.43 3.32-21.43z" stroke="#000" stroke-width=".05"/><use xlink:href="#h" transform="matrix(1,0,0,1,754.3814167261839,375.13709207830254) translate(0.005000000000002558 14.4)"/><use xlink:href="#i" transform="matrix(1,0,0,1,754.3814167261839,375.13709207830254) translate(8.930000000000007 36)"/><use xlink:href="#j" transform="matrix(1,0,0,1,754.3814167261839,375.13709207830254) translate(47.93000000000001 36)"/><use xlink:href="#k" transform="matrix(1,0,0,1,754.3814167261839,375.13709207830254) translate(38.43000000000001 57.6)"/><use xlink:href="#l" transform="matrix(1,0,0,1,754.3814167261839,375.13709207830254) translate(13.455000000000005 79.20000000000002)"/><path d="M601.98 391.26l.05.67.15.6.24.6.33.52.4.48.48.4.54.33.58.24.6.15.67.05h42.84v2h-42.92l-.9-.07-.9-.22-.88-.35-.8-.5-.72-.6-.6-.72-.5-.8-.37-.87-.22-.92-.07-.9v-33.22h2zm75.3-68.2l.9.23.88.35.8.5.72.6.6.72.5.8.36.88.22.9.07.9v56.55h-2v-56.46l-.05-.67-.14-.6-.25-.58-.33-.55-.4-.48-.5-.4-.52-.33-.58-.24-.6-.15-.68-.05h-42.02v-2h42.1z" stroke="#000" stroke-width=".05"/><path d="M634.3 325h-1.02v-2h1.03z"/><path d="M634.33 325.02h-1.07v-2.04h1.07zm-1.02-2v1.96h.98v-1.96zM612.02 374.97L610.3 376l-9.32-15.77-9.32 15.76-1.72-1.03 11.04-18.67z" stroke="#000" stroke-width=".05"/><use xlink:href="#m" transform="matrix(1,0,0,1,648.8583333333335,385.50151793338165) translate(0.005000000000002558 14.4)"/><use xlink:href="#n" transform="matrix(1,0,0,1,648.8583333333335,385.50151793338165) translate(34.005 14.4)"/><path d="M638.95 514.33a5 5 0 0 1 5-5h150a5 5 0 0 1 5 5v110a5 5 0 0 1-5 5h-150a5 5 0 0 1-5-5z" stroke="#000" stroke-width="2" fill="#ced4db"/><use xlink:href="#o" transform="matrix(1,0,0,1,650.9503885235883,521.3333333333334) translate(34.525 50.4)"/><path d="M718.28 506.37l-1.35 1.48-59.12-53.93h2.98zm-104.86-95.65h-2.97l-58.1-53 1.35-1.48z" stroke="#000" stroke-width=".05"/><path d="M552.37 357.73l-1.57-1.43h2.87z"/><path d="M552.37 357.77l-1.63-1.5h3zm-1.5-1.44l1.5 1.37 1.25-1.37zM718.95 508.33l-21.23-4.42.4-1.95 17.93 3.74-5.36-17.52 1.9-.6z" stroke="#000" stroke-width=".05"/><use xlink:href="#h" transform="matrix(1,0,0,1,597.1920551902551,410.7174668661788) translate(0.005000000000002558 14.4)"/><use xlink:href="#i" transform="matrix(1,0,0,1,597.1920551902551,410.7174668661788) translate(8.930000000000007 36)"/><use xlink:href="#p" transform="matrix(1,0,0,1,597.1920551902551,410.7174668661788) translate(47.93000000000001 36)"/><path d="M376 514.33a5 5 0 0 1 5-5h150a5 5 0 0 1 5 5v110a5 5 0 0 1-5 5H381a5 5 0 0 1-5-5z" stroke="#000" stroke-width="2" fill="#ced4db"/><use xlink:href="#q" transform="matrix(1,0,0,1,388.00000000000006,521.3333333333334) translate(29.549999999999997 50.4)"/><path d="M457.82 507.33l-1.7-1.07 40-63.14h2.37zm94.77-149.65l-40.44 63.84h-2.36l41.1-64.9z" stroke="#000" stroke-width=".05"/><path d="M552.58 357.7l-1.7-1.07.22-.33h2.37z"/><path d="M552.6 357.74l-1.74-1.1.23-.36h2.4zm-1.5-1.4l-.18.3 1.65 1.03.85-1.34zM458.66 486.7l-.56 18.3 16.3-8.3.92 1.77-19.32 9.86.66-21.68z" stroke="#000" stroke-width=".05"/><use xlink:href="#r" transform="matrix(1,0,0,1,470.166860928461,421.51746686617884) translate(0.005000000000002558 14.4)"/><use xlink:href="#p" transform="matrix(1,0,0,1,470.166860928461,421.51746686617884) translate(47.955000000000005 14.4)"/><path d="M180.85 240.3a5 5 0 0 1 5-5h150a5 5 0 0 1 5 5v110a5 5 0 0 1-5 5h-150a5 5 0 0 1-5-5z" stroke="#000" stroke-width="2" fill="#ced4db"/><use xlink:href="#s" transform="matrix(1,0,0,1,192.85116557076583,247.30160039902432) translate(7.049999999999997 50.4)"/><use xlink:href="#t" transform="matrix(1,0,0,1,192.85116557076583,247.30160039902432) translate(81.95 50.4)"/><path d="M374.64 296.3h-30.97v-2h30.97zm95.64 0h-31.8v-2h31.8z" stroke="#000" stroke-width=".05"/><path d="M471.28 296.3h-1.02v-2h1.02z"/><path d="M471.3 296.33h-1.07v-2.05h1.08zm-1.02-2v1.95h.98v-1.95zM361.54 285.98l-15.76 9.32 15.76 9.32-1.02 1.72-18.67-11.04 18.67-11.04z" stroke="#000" stroke-width=".05"/><use xlink:href="#u" transform="matrix(1,0,0,1,374.6424437138439,262.90160039902435) translate(17.43 14.4)"/><use xlink:href="#v" transform="matrix(1,0,0,1,374.6424437138439,262.90160039902435) translate(0.004999999999999005 36)"/><use xlink:href="#w" transform="matrix(1,0,0,1,374.6424437138439,262.90160039902435) translate(9.93 57.6)"/><path d="M945.58 299h-19.86v-2h19.86zm106.75 0h-32.77v-2h32.77z" stroke="#3a414a" stroke-width=".05" fill="#3a414a"/><path d="M925.74 299h-1.02v-2h1.02z" fill="#3a414a"/><path d="M925.77 299.02h-1.08v-2.04h1.07zm-1.03-2v1.96h.98v-1.96zM1054.15 298l-18.67 11.04-1.02-1.72 15.76-9.32-15.76-9.32 1.02-1.72z" stroke="#3a414a" stroke-width=".05" fill="#3a414a"/><use xlink:href="#x" transform="matrix(1,0,0,1,945.580549000315,276.66666911975915) translate(22.671666666666667 14.222222222222223)"/><use xlink:href="#y" transform="matrix(1,0,0,1,945.580549000315,276.66666911975915) translate(0.005000000000002558 35.55555555555556)"/><path d="M901.88 391.26l.05.67.15.6.24.6.33.52.4.48.48.4.54.33.57.24.6.15.68.05h40.94v2h-41.02l-.9-.07-.92-.22-.87-.35-.8-.5-.72-.6-.6-.72-.5-.8-.36-.87-.22-.92-.07-.9v-33.22h2zm73.4-59.72l.9.2.88.38.8.5.72.6.6.72.5.8.36.87.22.93.07.9v48.07h-2v-48l-.05-.66-.14-.6-.25-.6-.33-.52-.4-.48-.5-.4-.52-.34-.58-.24-.6-.14-.68-.06H925.7v-2h48.65z" stroke="#000" stroke-width=".05"/><path d="M925.74 333.46h-1.02v-2h1.02z"/><path d="M925.77 333.5h-1.08v-2.06h1.07zm-1.03-2v1.94h.98v-1.95zM911.92 374.97L910.2 376l-9.32-15.77-9.32 15.76-1.72-1.03 11.04-18.67z" stroke="#000" stroke-width=".05"/><use xlink:href="#m" transform="matrix(1,0,0,1,946.8583333333335,385.5015122901998) translate(0.005000000000002558 14.4)"/><use xlink:href="#n" transform="matrix(1,0,0,1,946.8583333333335,385.5015122901998) translate(34.005 14.4)"/><path d="M1055.15 240.3a5 5 0 0 1 5-5h150a5 5 0 0 1 5 5v110a5 5 0 0 1-5 5h-150a5 5 0 0 1-5-5z" stroke="#000" stroke-width="2" fill="#ced4db"/><g><use xlink:href="#z" transform="matrix(1,0,0,1,1067.1488344292343,247.30160039902432) translate(28.549999999999997 50.4)"/></g><path d="M472.28 44.3a5 5 0 0 1 5-5h150a5 5 0 0 1 5 5v110a5 5 0 0 1-5 5h-150a5 5 0 0 1-5-5z" stroke="#000" stroke-width="2" fill="#ced4db"/><g><use xlink:href="#A" transform="matrix(1,0,0,1,484.28372185692194,51.301600399024466) translate(24.049999999999997 41.4)"/><use xlink:href="#B" transform="matrix(1,0,0,1,484.28372185692194,51.301600399024466) translate(44.05 63)"/></g><path d="M552.28 233.3v-54.5" stroke="#3a414a" stroke-width="2" fill="none"/><path d="M553.28 234.3h-2v-1.02h2z" stroke="#3a414a" stroke-width=".05" fill="#3a414a"/><path d="M552.28 163.54l4.64 14.26h-9.27z" stroke="#3a414a" stroke-width="2" fill="#fff"/><path d="M763.72 44.3a5 5 0 0 1 5-5h150a5 5 0 0 1 5 5v110a5 5 0 0 1-5 5h-150a5 5 0 0 1-5-5z" stroke="#000" stroke-width="2" fill="#ced4db"/><g><use xlink:href="#C" transform="matrix(1,0,0,1,775.7162781430782,51.30160039902448) translate(37.05 50.4)"/></g><path d="M843.72 233.3v-54.5" stroke="#3a414a" stroke-width="2" fill="none"/><path d="M844.72 234.3h-2v-1.02h2z" stroke="#3a414a" stroke-width=".05" fill="#3a414a"/><path d="M843.72 163.54l4.63 14.26h-9.27z" stroke="#3a414a" stroke-width="2" fill="#fff"/><path d="M374.64 296.3h-30.97v-2h30.97zm179.62-107.7l2.9 2.13.85 2.57h229.04l.9.07.9.22.88.35.8.5.73.6.6.72.5.8.36.88.23.9.07.9v34.05h-2v-33.96l-.05-.66-.15-.6-.24-.6-.33-.53-.4-.47-.48-.4-.53-.34-.6-.24-.6-.15-.66-.05h-230.4l-1.1-3.33-2-1.46-1.1-.17-2.4.8-1.47 2-.37 2.17H410.38l-.66.05-.6.15-.58.24-.54.33-.47.4-.4.48-.33.54-.24.57-.14.6-.07.67v63.56h-2v-63.64l.07-.9.22-.9.37-.88.48-.8.6-.72.73-.62.8-.5.88-.35.9-.23.9-.07h136.15l.16-.98 2.1-2.9 3.5-1.14z" stroke="#000" stroke-width=".05"/><path d="M793 234.3h-2v-1.02h2z"/><path d="M793.02 234.33H791v-1.08H793zm-2-1.03v.98H793v-.98zM361.54 285.98l-15.76 9.32 15.76 9.32-1.02 1.72-18.67-11.04 18.67-11.04z" stroke="#000" stroke-width=".05"/><defs><path d="M24-231v-30h32v30H24zM24 0v-190h32V0H24" id="D"/><path d="M135-143c-3-34-86-38-87 0 15 53 115 12 119 90S17 21 10-45l28-5c4 36 97 45 98 0-10-56-113-15-118-90-4-57 82-63 122-42 12 7 21 19 24 35" id="E"/><g id="a"><use transform="matrix(0.05,0,0,0.05,0,0)" xlink:href="#D"/><use transform="matrix(0.05,0,0,0.05,3.95,0)" xlink:href="#E"/></g><path d="M117-194c89-4 53 116 60 194h-32v-121c0-31-8-49-39-48C34-167 62-67 57 0H25l-1-190h30c1 10-1 24 2 32 11-22 29-35 61-36" id="F"/><path d="M141-36C126-15 110 5 73 4 37 3 15-17 15-53c-1-64 63-63 125-63 3-35-9-54-41-54-24 1-41 7-42 31l-33-3c5-37 33-52 76-52 45 0 72 20 72 64v82c-1 20 7 32 28 27v20c-31 9-61-2-59-35zM48-53c0 20 12 33 32 33 41-3 63-29 60-74-43 2-92-5-92 41" id="G"/><path d="M210-169c-67 3-38 105-44 169h-31v-121c0-29-5-50-35-48C34-165 62-65 56 0H25l-1-190h30c1 10-1 24 2 32 10-44 99-50 107 0 11-21 27-35 58-36 85-2 47 119 55 194h-31v-121c0-29-5-49-35-48" id="H"/><path d="M100-194c63 0 86 42 84 106H49c0 40 14 67 53 68 26 1 43-12 49-29l28 8c-11 28-37 45-77 45C44 4 14-33 15-96c1-61 26-98 85-98zm52 81c6-60-76-77-97-28-3 7-6 17-6 28h103" id="I"/><g id="b"><use transform="matrix(0.05,0,0,0.05,0,0)" xlink:href="#F"/><use transform="matrix(0.05,0,0,0.05,10,0)" xlink:href="#G"/><use transform="matrix(0.05,0,0,0.05,20,0)" xlink:href="#H"/><use transform="matrix(0.05,0,0,0.05,34.95,0)" xlink:href="#I"/></g><path d="M101-234c-31-9-42 10-38 44h38v23H63V0H32v-167H5v-23h27c-7-52 17-82 69-68v24" id="J"/><path d="M100-194c62-1 85 37 85 99 1 63-27 99-86 99S16-35 15-95c0-66 28-99 85-99zM99-20c44 1 53-31 53-75 0-43-8-75-51-75s-53 32-53 75 10 74 51 75" id="K"/><path d="M114-163C36-179 61-72 57 0H25l-1-190h30c1 12-1 29 2 39 6-27 23-49 58-41v29" id="L"/><g id="c"><use transform="matrix(0.05,0,0,0.05,0,0)" xlink:href="#J"/><use transform="matrix(0.05,0,0,0.05,5,0)" xlink:href="#K"/><use transform="matrix(0.05,0,0,0.05,15,0)" xlink:href="#L"/></g><path d="M26 75v-336h71v23H56V52h41v23H26" id="M"/><path d="M27 0v-27h64v-190l-56 39v-29l58-41h29v221h61V0H27" id="N"/><path d="M33 0v-38h34V0H33" id="O"/><path d="M80-196l47-18 7 23-49 13 32 44-20 13-27-46-27 45-21-12 33-44-49-13 8-23 47 19-2-53h23" id="P"/><path d="M3 75V52h41v-290H3v-23h71V75H3" id="Q"/><g id="d"><use transform="matrix(0.05,0,0,0.05,0,0)" xlink:href="#M"/><use transform="matrix(0.05,0,0,0.05,5,0)" xlink:href="#N"/><use transform="matrix(0.05,0,0,0.05,15,0)" xlink:href="#O"/><use transform="matrix(0.05,0,0,0.05,20,0)" xlink:href="#O"/><use transform="matrix(0.05,0,0,0.05,25,0)" xlink:href="#P"/><use transform="matrix(0.05,0,0,0.05,32,0)" xlink:href="#Q"/></g><path d="M233-177c-1 41-23 64-60 70L243 0h-38l-65-103H63V0H30v-248c88 3 205-21 203 71zM63-129c60-2 137 13 137-47 0-61-80-42-137-45v92" id="R"/><path d="M85-194c31 0 48 13 60 33l-1-100h32l1 261h-30c-2-10 0-23-3-31C134-8 116 4 85 4 32 4 16-35 15-94c0-66 23-100 70-100zm9 24c-40 0-46 34-46 75 0 40 6 74 45 74 42 0 51-32 51-76 0-42-9-74-50-73" id="S"/><g id="e"><use transform="matrix(0.05,0,0,0.05,0,0)" xlink:href="#R"/><use transform="matrix(0.05,0,0,0.05,12.950000000000001,0)" xlink:href="#K"/><use transform="matrix(0.05,0,0,0.05,22.950000000000003,0)" xlink:href="#G"/><use transform="matrix(0.05,0,0,0.05,32.95,0)" xlink:href="#S"/></g><path d="M190 0L58-211 59 0H30v-248h39L202-35l-2-213h31V0h-41" id="T"/><g id="f"><use transform="matrix(0.05,0,0,0.05,0,0)" xlink:href="#T"/><use transform="matrix(0.05,0,0,0.05,12.950000000000001,0)" xlink:href="#G"/><use transform="matrix(0.05,0,0,0.05,22.950000000000003,0)" xlink:href="#H"/><use transform="matrix(0.05,0,0,0.05,37.900000000000006,0)" xlink:href="#I"/></g><path d="M140-251c81 0 123 46 123 126C263-46 219 4 140 4 59 4 17-45 17-125s42-126 123-126zm0 227c63 0 89-41 89-101s-29-99-89-99c-61 0-89 39-89 99S79-25 140-24" id="U"/><path d="M115-194c53 0 69 39 70 98 0 66-23 100-70 100C84 3 66-7 56-30L54 0H23l1-261h32v101c10-23 28-34 59-34zm-8 174c40 0 45-34 45-75 0-40-5-75-45-74-42 0-51 32-51 76 0 43 10 73 51 73" id="V"/><path d="M24-231v-30h32v30H24zM-9 49c24 4 33-6 33-30v-209h32V24c2 40-23 58-65 49V49" id="W"/><path d="M96-169c-40 0-48 33-48 73s9 75 48 75c24 0 41-14 43-38l32 2c-6 37-31 61-74 61-59 0-76-41-82-99-10-93 101-131 147-64 4 7 5 14 7 22l-32 3c-4-21-16-35-41-35" id="X"/><path d="M59-47c-2 24 18 29 38 22v24C64 9 27 4 27-40v-127H5v-23h24l9-43h21v43h35v23H59v120" id="Y"/><g id="g"><use transform="matrix(0.05,0,0,0.05,0,0)" xlink:href="#U"/><use transform="matrix(0.05,0,0,0.05,14,0)" xlink:href="#V"/><use transform="matrix(0.05,0,0,0.05,24,0)" xlink:href="#W"/><use transform="matrix(0.05,0,0,0.05,27.950000000000003,0)" xlink:href="#I"/><use transform="matrix(0.05,0,0,0.05,37.95,0)" xlink:href="#X"/><use transform="matrix(0.05,0,0,0.05,46.95,0)" xlink:href="#Y"/></g><path d="M24 0v-261h32V0H24" id="Z"/><g id="h"><use transform="matrix(0.05,0,0,0.05,0,0)" xlink:href="#G"/><use transform="matrix(0.05,0,0,0.05,10,0)" xlink:href="#S"/><use transform="matrix(0.05,0,0,0.05,20,0)" xlink:href="#S"/><use transform="matrix(0.05,0,0,0.05,30,0)" xlink:href="#D"/><use transform="matrix(0.05,0,0,0.05,33.95,0)" xlink:href="#Y"/><use transform="matrix(0.05,0,0,0.05,38.95,0)" xlink:href="#D"/><use transform="matrix(0.05,0,0,0.05,42.900000000000006,0)" xlink:href="#K"/><use transform="matrix(0.05,0,0,0.05,52.900000000000006,0)" xlink:href="#F"/><use transform="matrix(0.05,0,0,0.05,62.900000000000006,0)" xlink:href="#G"/><use transform="matrix(0.05,0,0,0.05,72.9,0)" xlink:href="#Z"/></g><path d="M179-190L93 31C79 59 56 82 12 73V49c39 6 53-20 64-50L1-190h34L92-34l54-156h33" id="aa"/><path d="M115-194c55 1 70 41 70 98S169 2 115 4C84 4 66-9 55-30l1 105H24l-1-265h31l2 30c10-21 28-34 59-34zm-8 174c40 0 45-34 45-75s-6-73-45-74c-42 0-51 32-51 76 0 43 10 73 51 73" id="ab"/><g id="i"><use transform="matrix(0.05,0,0,0.05,0,0)" xlink:href="#Y"/><use transform="matrix(0.05,0,0,0.05,5,0)" xlink:href="#aa"/><use transform="matrix(0.05,0,0,0.05,14,0)" xlink:href="#ab"/><use transform="matrix(0.05,0,0,0.05,24,0)" xlink:href="#I"/></g><g id="j"><use transform="matrix(0.05,0,0,0.05,0,0)" xlink:href="#M"/><use transform="matrix(0.05,0,0,0.05,5,0)" xlink:href="#N"/><use transform="matrix(0.05,0,0,0.05,15,0)" xlink:href="#Q"/></g><path d="M106-169C34-169 62-67 57 0H25v-261h32l-1 103c12-21 28-36 61-36 89 0 53 116 60 194h-32v-121c2-32-8-49-39-48" id="ac"/><g id="l"><use transform="matrix(0.05,0,0,0.05,0,0)" xlink:href="#Y"/><use transform="matrix(0.05,0,0,0.05,5,0)" xlink:href="#ac"/><use transform="matrix(0.05,0,0,0.05,15,0)" xlink:href="#I"/><use transform="matrix(0.05,0,0,0.05,25,0)" xlink:href="#H"/><use transform="matrix(0.05,0,0,0.05,39.95,0)" xlink:href="#I"/></g><g id="m"><use transform="matrix(0.05,0,0,0.05,0,0)" xlink:href="#ac"/><use transform="matrix(0.05,0,0,0.05,10,0)" xlink:href="#G"/><use transform="matrix(0.05,0,0,0.05,20,0)" xlink:href="#E"/></g><g id="n"><use transform="matrix(0.05,0,0,0.05,0,0)" xlink:href="#ab"/><use transform="matrix(0.05,0,0,0.05,10,0)" xlink:href="#G"/><use transform="matrix(0.05,0,0,0.05,20,0)" xlink:href="#L"/><use transform="matrix(0.05,0,0,0.05,25.950000000000003,0)" xlink:href="#Y"/></g><path d="M212-179c-10-28-35-45-73-45-59 0-87 40-87 99 0 60 29 101 89 101 43 0 62-24 78-52l27 14C228-24 195 4 139 4 59 4 22-46 18-125c-6-104 99-153 187-111 19 9 31 26 39 46" id="ad"/><g id="o"><use transform="matrix(0.05,0,0,0.05,0,0)" xlink:href="#ad"/><use transform="matrix(0.05,0,0,0.05,12.950000000000001,0)" xlink:href="#K"/><use transform="matrix(0.05,0,0,0.05,22.950000000000003,0)" xlink:href="#F"/><use transform="matrix(0.05,0,0,0.05,32.95,0)" xlink:href="#X"/><use transform="matrix(0.05,0,0,0.05,41.95,0)" xlink:href="#I"/><use transform="matrix(0.05,0,0,0.05,51.95,0)" xlink:href="#ab"/><use transform="matrix(0.05,0,0,0.05,61.95,0)" xlink:href="#Y"/></g><g id="p"><use transform="matrix(0.05,0,0,0.05,0,0)" xlink:href="#M"/><use transform="matrix(0.05,0,0,0.05,5,0)" xlink:href="#N"/><use transform="matrix(0.05,0,0,0.05,15,0)" xlink:href="#Q"/></g><path d="M84 4C-5 8 30-112 23-190h32v120c0 31 7 50 39 49 72-2 45-101 50-169h31l1 190h-30c-1-10 1-25-2-33-11 22-28 36-60 37" id="ae"/><g id="q"><use transform="matrix(0.05,0,0,0.05,0,0)" xlink:href="#R"/><use transform="matrix(0.05,0,0,0.05,12.950000000000001,0)" xlink:href="#I"/><use transform="matrix(0.05,0,0,0.05,22.950000000000003,0)" xlink:href="#E"/><use transform="matrix(0.05,0,0,0.05,31.950000000000003,0)" xlink:href="#K"/><use transform="matrix(0.05,0,0,0.05,41.95,0)" xlink:href="#ae"/><use transform="matrix(0.05,0,0,0.05,51.95,0)" xlink:href="#L"/><use transform="matrix(0.05,0,0,0.05,57.900000000000006,0)" xlink:href="#X"/><use transform="matrix(0.05,0,0,0.05,66.9,0)" xlink:href="#I"/></g><path d="M108 0H70L1-190h34L89-25l56-165h34" id="af"/><g id="r"><use transform="matrix(0.05,0,0,0.05,0,0)" xlink:href="#af"/><use transform="matrix(0.05,0,0,0.05,9,0)" xlink:href="#G"/><use transform="matrix(0.05,0,0,0.05,19,0)" xlink:href="#Z"/><use transform="matrix(0.05,0,0,0.05,22.95,0)" xlink:href="#ae"/><use transform="matrix(0.05,0,0,0.05,32.95,0)" xlink:href="#I"/></g><path d="M30 0v-248h33v221h125V0H30" id="ag"/><g id="s"><use transform="matrix(0.05,0,0,0.05,0,0)" xlink:href="#ag"/><use transform="matrix(0.05,0,0,0.05,10,0)" xlink:href="#D"/><use transform="matrix(0.05,0,0,0.05,13.949999999999998,0)" xlink:href="#J"/><use transform="matrix(0.05,0,0,0.05,18.95,0)" xlink:href="#I"/><use transform="matrix(0.05,0,0,0.05,28.950000000000003,0)" xlink:href="#X"/><use transform="matrix(0.05,0,0,0.05,37.95,0)" xlink:href="#aa"/><use transform="matrix(0.05,0,0,0.05,46.95,0)" xlink:href="#X"/><use transform="matrix(0.05,0,0,0.05,55.95,0)" xlink:href="#Z"/><use transform="matrix(0.05,0,0,0.05,59.900000000000006,0)" xlink:href="#I"/></g><path d="M185-189c-5-48-123-54-124 2 14 75 158 14 163 119 3 78-121 87-175 55-17-10-28-26-33-46l33-7c5 56 141 63 141-1 0-78-155-14-162-118-5-82 145-84 179-34 5 7 8 16 11 25" id="ah"/><path d="M177-190C167-65 218 103 67 71c-23-6-38-20-44-43l32-5c15 47 100 32 89-28v-30C133-14 115 1 83 1 29 1 15-40 15-95c0-56 16-97 71-98 29-1 48 16 59 35 1-10 0-23 2-32h30zM94-22c36 0 50-32 50-73 0-42-14-75-50-75-39 0-46 34-46 75s6 73 46 73" id="ai"/><g id="t"><use transform="matrix(0.05,0,0,0.05,0,0)" xlink:href="#ah"/><use transform="matrix(0.05,0,0,0.05,12,0)" xlink:href="#Y"/><use transform="matrix(0.05,0,0,0.05,17,0)" xlink:href="#G"/><use transform="matrix(0.05,0,0,0.05,27,0)" xlink:href="#ai"/><use transform="matrix(0.05,0,0,0.05,37,0)" xlink:href="#I"/></g><g id="u"><use transform="matrix(0.05,0,0,0.05,0,0)" xlink:href="#ac"/><use transform="matrix(0.05,0,0,0.05,10,0)" xlink:href="#G"/><use transform="matrix(0.05,0,0,0.05,20,0)" xlink:href="#E"/></g><g id="v"><use transform="matrix(0.05,0,0,0.05,0,0)" xlink:href="#Z"/><use transform="matrix(0.05,0,0,0.05,3.95,0)" xlink:href="#D"/><use transform="matrix(0.05,0,0,0.05,7.9,0)" xlink:href="#J"/><use transform="matrix(0.05,0,0,0.05,12.9,0)" xlink:href="#I"/><use transform="matrix(0.05,0,0,0.05,22.9,0)" xlink:href="#X"/><use transform="matrix(0.05,0,0,0.05,31.899999999999995,0)" xlink:href="#aa"/><use transform="matrix(0.05,0,0,0.05,40.9,0)" xlink:href="#X"/><use transform="matrix(0.05,0,0,0.05,49.9,0)" xlink:href="#Z"/><use transform="matrix(0.05,0,0,0.05,53.85,0)" xlink:href="#I"/></g><g id="w"><use transform="matrix(0.05,0,0,0.05,0,0)" xlink:href="#E"/><use transform="matrix(0.05,0,0,0.05,9,0)" xlink:href="#Y"/><use transform="matrix(0.05,0,0,0.05,14,0)" xlink:href="#G"/><use transform="matrix(0.05,0,0,0.05,24,0)" xlink:href="#ai"/><use transform="matrix(0.05,0,0,0.05,34,0)" xlink:href="#I"/></g><path fill="#333" d="M106-169C34-169 62-67 57 0H25v-261h32l-1 103c12-21 28-36 61-36 89 0 53 116 60 194h-32v-121c2-32-8-49-39-48" id="aj"/><path fill="#333" d="M141-36C126-15 110 5 73 4 37 3 15-17 15-53c-1-64 63-63 125-63 3-35-9-54-41-54-24 1-41 7-42 31l-33-3c5-37 33-52 76-52 45 0 72 20 72 64v82c-1 20 7 32 28 27v20c-31 9-61-2-59-35zM48-53c0 20 12 33 32 33 41-3 63-29 60-74-43 2-92-5-92 41" id="ak"/><path fill="#333" d="M135-143c-3-34-86-38-87 0 15 53 115 12 119 90S17 21 10-45l28-5c4 36 97 45 98 0-10-56-113-15-118-90-4-57 82-63 122-42 12 7 21 19 24 35" id="al"/><g id="x"><use transform="matrix(0.04938271604938272,0,0,0.04938271604938272,0,0)" xlink:href="#aj"/><use transform="matrix(0.04938271604938272,0,0,0.04938271604938272,9.876543209876544,0)" xlink:href="#ak"/><use transform="matrix(0.04938271604938272,0,0,0.04938271604938272,19.75308641975309,0)" xlink:href="#al"/></g><path fill="#333" d="M177-190C167-65 218 103 67 71c-23-6-38-20-44-43l32-5c15 47 100 32 89-28v-30C133-14 115 1 83 1 29 1 15-40 15-95c0-56 16-97 71-98 29-1 48 16 59 35 1-10 0-23 2-32h30zM94-22c36 0 50-32 50-73 0-42-14-75-50-75-39 0-46 34-46 75s6 73 46 73" id="am"/><path fill="#333" d="M100-194c63 0 86 42 84 106H49c0 40 14 67 53 68 26 1 43-12 49-29l28 8c-11 28-37 45-77 45C44 4 14-33 15-96c1-61 26-98 85-98zm52 81c6-60-76-77-97-28-3 7-6 17-6 28h103" id="an"/><path fill="#333" d="M100-194c62-1 85 37 85 99 1 63-27 99-86 99S16-35 15-95c0-66 28-99 85-99zM99-20c44 1 53-31 53-75 0-43-8-75-51-75s-53 32-53 75 10 74 51 75" id="ao"/><path fill="#333" d="M210-169c-67 3-38 105-44 169h-31v-121c0-29-5-50-35-48C34-165 62-65 56 0H25l-1-190h30c1 10-1 24 2 32 10-44 99-50 107 0 11-21 27-35 58-36 85-2 47 119 55 194h-31v-121c0-29-5-49-35-48" id="ap"/><path fill="#333" d="M59-47c-2 24 18 29 38 22v24C64 9 27 4 27-40v-127H5v-23h24l9-43h21v43h35v23H59v120" id="aq"/><path fill="#333" d="M114-163C36-179 61-72 57 0H25l-1-190h30c1 12-1 29 2 39 6-27 23-49 58-41v29" id="ar"/><path fill="#333" d="M179-190L93 31C79 59 56 82 12 73V49c39 6 53-20 64-50L1-190h34L92-34l54-156h33" id="as"/><g id="y"><use transform="matrix(0.04938271604938272,0,0,0.04938271604938272,0,0)" xlink:href="#am"/><use transform="matrix(0.04938271604938272,0,0,0.04938271604938272,9.876543209876544,0)" xlink:href="#an"/><use transform="matrix(0.04938271604938272,0,0,0.04938271604938272,19.75308641975309,0)" xlink:href="#ao"/><use transform="matrix(0.04938271604938272,0,0,0.04938271604938272,29.629629629629633,0)" xlink:href="#ap"/><use transform="matrix(0.04938271604938272,0,0,0.04938271604938272,44.39506172839506,0)" xlink:href="#an"/><use transform="matrix(0.04938271604938272,0,0,0.04938271604938272,54.27160493827161,0)" xlink:href="#aq"/><use transform="matrix(0.04938271604938272,0,0,0.04938271604938272,59.20987654320988,0)" xlink:href="#ar"/><use transform="matrix(0.04938271604938272,0,0,0.04938271604938272,65.08641975308642,0)" xlink:href="#as"/></g><path d="M143 4C61 4 22-44 18-125c-5-107 100-154 193-111 17 8 29 25 37 43l-32 9c-13-25-37-40-76-40-61 0-88 39-88 99 0 61 29 100 91 101 35 0 62-11 79-27v-45h-74v-28h105v86C228-13 192 4 143 4" id="at"/><g id="z"><use transform="matrix(0.05,0,0,0.05,0,0)" xlink:href="#at"/><use transform="matrix(0.05,0,0,0.05,14,0)" xlink:href="#I"/><use transform="matrix(0.05,0,0,0.05,24,0)" xlink:href="#K"/><use transform="matrix(0.05,0,0,0.05,34,0)" xlink:href="#H"/><use transform="matrix(0.05,0,0,0.05,48.95,0)" xlink:href="#I"/><use transform="matrix(0.05,0,0,0.05,58.95,0)" xlink:href="#Y"/><use transform="matrix(0.05,0,0,0.05,63.95,0)" xlink:href="#L"/><use transform="matrix(0.05,0,0,0.05,69.9,0)" xlink:href="#aa"/></g><g id="A"><use transform="matrix(0.05,0,0,0.05,0,0)" xlink:href="#ad"/><use transform="matrix(0.05,0,0,0.05,12.950000000000001,0)" xlink:href="#K"/><use transform="matrix(0.05,0,0,0.05,22.950000000000003,0)" xlink:href="#H"/><use transform="matrix(0.05,0,0,0.05,37.900000000000006,0)" xlink:href="#ab"/><use transform="matrix(0.05,0,0,0.05,47.900000000000006,0)" xlink:href="#K"/><use transform="matrix(0.05,0,0,0.05,57.900000000000006,0)" xlink:href="#ae"/><use transform="matrix(0.05,0,0,0.05,67.9,0)" xlink:href="#F"/><use transform="matrix(0.05,0,0,0.05,77.9,0)" xlink:href="#S"/></g><g id="B"><use transform="matrix(0.05,0,0,0.05,0,0)" xlink:href="#T"/><use transform="matrix(0.05,0,0,0.05,12.950000000000001,0)" xlink:href="#G"/><use transform="matrix(0.05,0,0,0.05,22.950000000000003,0)" xlink:href="#H"/><use transform="matrix(0.05,0,0,0.05,37.900000000000006,0)" xlink:href="#I"/></g><path d="M63-220v92h138v28H63V0H30v-248h175v28H63" id="au"/><g id="C"><use transform="matrix(0.05,0,0,0.05,0,0)" xlink:href="#au"/><use transform="matrix(0.05,0,0,0.05,10.950000000000001,0)" xlink:href="#I"/><use transform="matrix(0.05,0,0,0.05,20.950000000000003,0)" xlink:href="#G"/><use transform="matrix(0.05,0,0,0.05,30.950000000000003,0)" xlink:href="#Y"/><use transform="matrix(0.05,0,0,0.05,35.95,0)" xlink:href="#ae"/><use transform="matrix(0.05,0,0,0.05,45.95,0)" xlink:href="#L"/><use transform="matrix(0.05,0,0,0.05,51.900000000000006,0)" xlink:href="#I"/></g></defs></g></svg>